<?xml version="1.0" encoding="UTF-8"?>
<svg id="Capa_1" xmlns="http://www.w3.org/2000/svg" version="1.1" viewBox="0 0 24 24">
  <!-- Generator: Adobe Illustrator 29.4.0, SVG Export Plug-In . SVG Version: 2.1.0 Build 152)  -->
  <defs>
    <style>
      .st0 {
        fill: #221f20;
      }
    </style>
  </defs>
  <path class="st0" d="M17.9,1.1H6.1C3.4,1.1,1.1,3.4,1.1,6.1v11.7c0,2.7,2.2,5,5,5h11.7c2.7,0,5-2.2,5-5V6.1c0-2.7-2.2-5-5-5ZM8.6,17.8h-2.8v-8.9h2.8v8.9ZM7.2,7.7c-.9,0-1.6-.7-1.6-1.6s.7-1.6,1.6-1.6,1.6.7,1.6,1.6-.7,1.6-1.6,1.6ZM18.9,17.8h-2.8v-4.3c0-1,0-2.4-1.4-2.4s-1.7,1.1-1.7,2.3v4.4h-2.8v-8.9h2.6v1.2h0c.4-.7,1.3-1.4,2.6-1.4,2.8,0,3.3,1.8,3.3,4.2v4.9Z"/>
</svg>