<?xml version="1.0" encoding="UTF-8"?>
<svg id="Capa_1" xmlns="http://www.w3.org/2000/svg" version="1.1" viewBox="0 0 20 24">
  <!-- Generator: Adobe Illustrator 29.4.0, SVG Export Plug-In . SVG Version: 2.1.0 Build 152)  -->
  <path d="M5.1,15.4c0-.4-.3-.6-.8-.6s-.3,0-.4,0v1.3c0,0,.2,0,.3,0,.5,0,.8-.3.8-.7Z"/>
  <path d="M8.1,14.8c-.2,0-.4,0-.4,0v2.8c0,0,.2,0,.3,0,.9,0,1.5-.5,1.5-1.5,0-.9-.5-1.4-1.4-1.4Z"/>
  <path d="M13.7,0H4.1C2.7,0,1.5,1.1,1.5,2.6v9.4h-.2c-.6,0-1,.5-1,1v6.2c0,.6.5,1,1,1h.2v1.1c0,1.4,1.1,2.6,2.6,2.6h13.2c1.4,0,2.6-1.1,2.6-2.6V6L13.7,0ZM2.9,14.2c.3,0,.7,0,1.3,0s1,.1,1.3.3c.3.2.5.6.5,1s-.1.8-.4,1c-.3.3-.8.5-1.4.5s-.2,0-.3,0v1.5h-1v-4.3ZM17.2,22.4H4.1c-.5,0-1-.4-1-1v-1.1h12.3c.6,0,1-.5,1-1v-6.2c0-.6-.5-1-1-1H3.1V2.6c0-.5.4-1,1-1h9.1s0,3.3,0,3.3c0,1,.8,1.8,1.8,1.8h3.3s0,14.8,0,14.8c0,.5-.4,1-1,1ZM6.7,18.4v-4.3c.4,0,.8,0,1.3,0,.8,0,1.4.1,1.8.5.4.3.7.9.7,1.6s-.3,1.4-.7,1.8c-.5.4-1.1.6-2,.6-.5,0-.9,0-1.1,0ZM13.7,15.9v.8h-1.6v1.7h-1v-4.3h2.6v.8h-1.7v1h1.6Z"/>
</svg>