<?xml version="1.0" encoding="UTF-8"?>
<svg id="Layer_1" xmlns="http://www.w3.org/2000/svg" version="1.1" viewBox="0 0 300 128">
  <!-- Generator: Adobe Illustrator 29.4.0, SVG Export Plug-In . SVG Version: 2.1.0 Build 152)  -->
  <defs>
    <style>
      .st0 {
        fill: #221f1f;
      }
    </style>
  </defs>
  <path class="st0" d="M183.6,103.5c-19.5,8.3-40.8,12.3-60.1,12.3-28.6,0-56.4-7.8-78.8-20.9-2-1.1-3.4.9-1.8,2.3,20.8,18.8,48.2,30,78.7,30s47-6.9,64.5-19.7h0c2.9-2.1.4-5.3-2.5-4.1Z"/>
  <path class="st0" d="M172.6,96.3c-1.5,1.1-1.3,2.6.4,2.4,5.6-.7,18.1-2.2,20.3.7h0c2.2,2.9-2.5,14.6-4.6,19.9-.6,1.6.7,2.2,2.2,1,9.4-7.8,11.8-24.2,9.9-26.6-1.9-2.4-18.3-4.4-28.2,2.6Z"/>
  <path class="st0" d="M206.7,76.4c-5.3-3-11.5-3.9-17.4-3.7l15.8-22.6c1.5-2,2.3-3.3,2.3-4.3v-5.8c0-1-.8-1.7-1.8-1.7h-30.5c-.9,0-1.7.7-1.7,1.7v6.8h0c0,1,.8,1.7,1.8,1.7h15.9l-18.3,26.3c-1.1,1.7-1.1,3.6-1.1,4.7v6.9c0,1,1.1,2.1,2.2,1.6,10.4-5.5,22.9-5,32.2,0,1.1.6,2.2-.6,2.2-1.6v-7.3c0-1-.4-2-1.6-2.7Z"/>
  <path class="st0" d="M52.8,89.3h9.3c1,0,1.8-.8,1.8-1.7v-25.3c0-5.5-.3-13.1,6.4-13.1s5.7,7.8,5.7,13.1v25.3c0,.9.7,1.7,1.7,1.7h9.3c1,0,1.8-.8,1.8-1.7v-25.3c0-2.7,0-6.7.9-9.1,1-2.4,3.3-3.9,5.5-3.9s4.8.9,5.5,4.1c.4,1.9.3,6.9.3,8.9v25.3c0,.9.7,1.7,1.7,1.7h9.3c1,0,1.8-.8,1.8-1.7v-30.1c0-5.1.6-10.9-2.3-14.9-2.6-3.6-6.9-5.2-10.7-5.2s-10.6,2.8-12.8,8.8c-2.6-6-6.2-8.8-12.1-8.8s-10,2.8-12.2,8.8h-.2v-6.2c0-.9-.8-1.6-1.7-1.6h-8.7c-1,0-1.8.8-1.8,1.7v47.7c0,.8.8,1.5,1.7,1.6Z"/>
  <path class="st0" d="M233.7,37.3c-13.4,0-20.9,11.5-20.9,26.4s7.4,26.6,20.9,26.6,21.2-11.5,21.2-26.1-7.5-26.9-21.2-26.9ZM233.7,80.5c-7.3,0-7.2-12.4-7.2-18.3s.4-15.1,7.3-15.1,5,1.3,6.1,4.6c1.2,3.8,1.4,8.6,1.4,12.6,0,6.1-.3,16.1-7.5,16.1Z"/>
  <path class="st0" d="M297.6,42.9c-2.6-4.1-6.7-5.6-10.8-5.6-6.4,0-10.1,3.1-12.7,9.6h-.2v-7.3c-.2-.7-.8-1.3-1.7-1.3h-8.6c-.9,0-1.7.7-1.8,1.6v47.7c0,.9.8,1.7,1.7,1.7h9.2c1,0,1.8-.8,1.8-1.7v-25.7c0-3.2.2-6.1,1.5-9,1-2.3,3.1-3.8,5.4-3.8,6.4,0,5.8,7.6,5.8,12.8v25.9c0,.8.8,1.4,1.6,1.5h9.3c.9,0,1.7-.7,1.8-1.5v-30c0-4.6,0-11-2.4-14.8Z"/>
  <path class="st0" d="M149.1,57.1c-5.4.6-12.4,1-17.5,3.2-5.8,2.5-9.9,7.6-9.9,15.2s6.1,14.5,13.9,14.5,10.2-1.6,15.3-6.8c1.7,2.4,2.2,3.6,5.3,6.2.7.4,1.6.3,2.2-.2h0s0,0,0,0c1.9-1.6,5.2-4.6,7.1-6.2.8-.6.6-1.6,0-2.5-1.7-2.4-3.5-4.3-3.5-8.6v-14.5c0-6.1.4-11.8-4.1-16-3.6-3.4-9.5-4.6-14-4.6-8.8,0-18.7,3.3-20.8,14.2-.2,1.2.6,1.8,1.4,1.9l9,1c.8,0,1.4-.9,1.6-1.7.8-3.8,3.9-5.6,7.5-5.6s4.1.7,5.2,2.4c1.3,1.9,1.1,4.5,1.1,6.7v1.2ZM147.3,76.4c-1.5,2.6-3.8,4.2-6.4,4.2s-5.6-2.7-5.6-6.7c0-7.9,7.1-9.4,13.8-9.4v2c0,3.6,0,6.6-1.7,9.8Z"/>
  <path class="st0" d="M43.9,80.5c-1.7-2.4-3.5-4.3-3.5-8.6v-14.5c0-6.1.4-11.8-4.1-16-3.6-3.4-9.5-4.6-14-4.6-8.8,0-18.7,3.3-20.8,14.2-.2,1.2.6,1.8,1.4,1.9l9,1c.8,0,1.4-.9,1.6-1.7.8-3.8,3.9-5.6,7.5-5.6s4.1.7,5.2,2.4c1.3,1.9,1.1,4.5,1.1,6.7v1.2c-5.4.6-12.4,1-17.5,3.2-5.8,2.5-9.9,7.6-9.9,15.2s6.1,14.5,13.9,14.5,10.2-1.6,15.3-6.8c1.7,2.4,2.2,3.6,5.3,6.2.7.4,1.6.3,2.2-.2h0s0,0,0,0c1.9-1.6,5.2-4.6,7.1-6.2.8-.6.6-1.6,0-2.5ZM25.6,76.4c-1.5,2.6-3.8,4.2-6.4,4.2s-5.6-2.7-5.6-6.7c0-7.9,7.1-9.4,13.8-9.4v2c0,3.6,0,6.6-1.7,9.8Z"/>
</svg>