<?xml version="1.0" encoding="UTF-8"?>
<svg id="svg3769" xmlns="http://www.w3.org/2000/svg" xmlns:svg="http://www.w3.org/2000/svg" xmlns:sodipodi="http://sodipodi.sourceforge.net/DTD/sodipodi-0.dtd" xmlns:rdf="http://www.w3.org/1999/02/22-rdf-syntax-ns#" xmlns:inkscape="http://www.inkscape.org/namespaces/inkscape" xmlns:dc="http://purl.org/dc/elements/1.1/" xmlns:cc="http://creativecommons.org/ns#" version="1.1" viewBox="0 0 300 60">
  <!-- Generator: Adobe Illustrator 29.4.0, SVG Export Plug-In . SVG Version: 2.1.0 Build 152)  -->
  <path d="M122.7,9.6c-2.5,0-4.6,2-4.6,4.6s2,4.6,4.6,4.6,4.6-2,4.6-4.6-2-4.6-4.6-4.6Z"/>
  <path d="M194.6,40c-2.5,0-4.5,2-4.5,4.6s2,4.6,4.5,4.6,4.6-2,4.6-4.6-2-4.6-4.6-4.6Z"/>
  <path d="M43.3,20.8c-8.3,0-14.3,6-14.3,14.2s6,14.2,14.3,14.2,14.4-6,14.4-14.2-6.1-14.2-14.4-14.2ZM43.3,42.6c-3.9,0-6.7-3.1-6.7-7.6s2.7-7.6,6.7-7.6,6.7,3.1,6.7,7.6-2.7,7.6-6.7,7.6Z"/>
  <path d="M109.3,35.8h0c-.3-.6-.7-1.1-1.1-1.5l-.3-.3.3-.3c.4-.4.8-.9,1.1-1.4l7.3-10.9h-8.9l-5.5,8.5c-.3.5-.9.7-1.9.7h-1.3V14.5c0-3.2-2-3.7-4.2-3.7h-3.7v38h7.9v-11.4h.7c.9,0,1.5.1,1.8.6l4.4,8.2c1.2,2.2,2.4,2.6,4.7,2.6h6l-4.5-7.4-3-5.7Z"/>
  <path d="M147.6,20.8h0c-4,0-6.6,1.8-8,3.3l-.5.5-.2-.7c-.4-1.6-1.8-2.5-4-2.5h-3.5v27.5h7.9v-12.7c0-1.2.2-2.3.5-3.3.9-3,3.3-4.8,6.3-4.8s3.4,1.3,3.4,4.6v12c0,2.8,1.3,4.2,4.2,4.2h3.7v-17.5c0-6.9-3.4-10.6-9.8-10.6Z"/>
  <path d="M122.8,21.4h-3.7v21.2s0,0,0,0v6.2h4s0,0,.1,0h1.8s1.8,0,1.8,0h0s0,0,0,0v-23.3c0-2.8-1.3-4.2-4.1-4.2Z"/>
  <path d="M74.1,20.8c-8.3,0-14.3,6-14.3,14.2s6,14.2,14.3,14.2,14.4-6,14.4-14.2-6.1-14.2-14.4-14.2ZM74.1,42.6c-3.9,0-6.7-3.1-6.7-7.6s2.7-7.6,6.7-7.6,6.7,3.1,6.7,7.6-2.7,7.6-6.7,7.6Z"/>
  <path d="M242,20.8c-8.3,0-14.3,6-14.3,14.2s6,14.2,14.3,14.2,14.4-6,14.4-14.2-6.1-14.2-14.4-14.2ZM242,42.6c-3.9,0-6.7-3.1-6.7-7.6s2.7-7.6,6.7-7.6,6.7,3.1,6.7,7.6-2.7,7.6-6.7,7.6Z"/>
  <path d="M183.4,21.3c-1.5,0-2.6.6-3.2,1.7l-.2.4-.4-.3c-1.3-1.1-3.5-2.4-7.2-2.4-7.3,0-12.3,5.5-12.3,13.7s5.1,13.9,12.4,13.9,4.5-.6,6-1.8l.6-.5v.8c0,3.7-2.4,5.7-6.7,5.7s-4-.5-5.3-1c-1.7-.5-2.6,0-3.3,1.6l-.6,1.5-.9,2.2.5.3c2.8,1.5,6.3,2.3,9.6,2.3,6.7,0,14.5-3.4,14.5-13v-25.2s-3.6,0-3.6,0h0ZM173.9,41.4c-4.3,0-5.8-3.7-5.8-7.2s.4-6.6,5.4-6.6,5.8.7,5.8,6.8-2.9,7-5.4,7Z"/>
  <path d="M22.3,29.4h0l-1.2-.6,1-.9c1.2-1,3.1-3.3,3.1-7.2,0-6-4.6-9.8-11.8-9.8H5.3s-.9,0-.9,0c-2.1,0-3.8,1.8-3.9,4v33.9h3.8s0,0,0,0h9.4c8,0,13.1-4.3,13.1-11.1s-1.7-6.7-4.5-8.3ZM7.8,19.7c0-1.8.7-2.6,2.4-2.7h3.3c2.8,0,4.5,1.7,4.5,4.5s-1.1,4.6-4.4,4.6h-5.7v-4.4h0v-2ZM14.1,42.3h0s-6.4,0-6.4,0v-7.6c0-1.6.6-2.5,2-2.7h4.3c3.1,0,5.1,2,5.1,5.1,0,3.2-2,5.2-5.1,5.2Z"/>
  <polygon points="291.3 20.8 291.3 20.8 291.3 20.8 291.3 20.8"/>
  <path d="M291.3,20.8c-3.2,0-6.4,1.5-8.4,4.1l-.6.7-.4-.8c-1.5-2.6-3.9-4-7.4-4s-6.1,2-7.2,3.2l-.7.8-.3-1.1c-.4-1.5-1.8-2.4-3.8-2.4h-3.3v27.4s7.4,0,7.4,0v-12.1c0-1.1.1-2.1.4-3.2.7-2.9,2.7-6.1,6-5.7,2,.2,3,1.8,3,4.8v16.2h7.5v-12.1c0-1.3.1-2.3.4-3.3.6-2.8,2.7-5.6,5.8-5.6s3.2,1.3,3.2,4.8v12.2c0,2.8,1.2,4,4,4h3.5v-17.5c0-7-3.1-10.5-9.1-10.5Z"/>
  <path d="M223.3,39.3h0s-3.2,3.4-7.5,3.4-7.8-2.4-7.8-7.7,3-7.8,7.4-7.8,3,.5,3.3,1.4h0c.6,2.1,2.3,2.2,2.7,2.2h4.1s0-3.6,0-3.6c0-4.7-6-6.4-10.1-6.4-8.6,0-14.9,6-14.9,14.3s6.2,14.3,14.8,14.3,11.5-4.9,11.5-4.9l.2-.3-3.2-5.4-.4.5Z"/>
</svg>