<?xml version="1.0" encoding="UTF-8"?>
<svg id="Layer_1" xmlns="http://www.w3.org/2000/svg" version="1.1" viewBox="0 0 300 118">
  <!-- Generator: Adobe Illustrator 29.4.0, SVG Export Plug-In . SVG Version: 2.1.0 Build 152)  -->
  <g>
    <path d="M228.7,54.6c-.5,6.4.5,13.5,0,20-.7,10.4-15.8,10-16.5.1-.5-6.4.5-13.5,0-20-.4-5.9-8.6-6-9,.1-.4,6.9.2,14.5.2,21.5,1.5,11.6,14.4,18.4,24.9,13,.2,0,.4,0,.5.2v11.9c0,1.2-1,3.4-1.8,4.3-4,4.9-12,3.7-14.2-2.3-.9-2.3-.2-4.8-2.8-6.2-3-1.6-6.6.4-6.7,3.8-.2,9.8,9.8,17.8,19.1,16.5,8.1-1.2,14-6.4,15.2-14.7v-48.9c-1.1-5.2-8.4-4.8-8.9.6Z"/>
    <path d="M57.9,58c-7,9.6-4.9,24.6,5.8,30.6,7,4,17.6,3.4,23.8-1.9,2.2-1.9,2.9-5.3-.2-6.6-2.8-1.2-4.4,1.3-6.7,2.4-7.6,3.8-16.9.3-17.8-8.6h25.1c.1,0,1.4-.4,1.6-.5,4.4-2,1.3-10.9-.4-14-6.6-11.6-23.5-12.1-31.2-1.4ZM82.8,68.1h-20c-.3,0-.2-.4-.2-.6.8-7.7,9.1-12.8,15.9-8.2,2.3,1.6,4.2,5.1,4.4,7.9,0,.4.1.7-.2,1Z"/>
    <path d="M300,68.3c-1-9.6-7.5-17.4-17.6-17.9-23.5-1.1-28.1,33.7-6.3,40,6.2,1.8,15.8.5,20.4-4.5,2-2.2.9-6-2.3-6.2-1.9-.1-3.5,1.8-5.2,2.6-7.6,4-17.2.5-18.2-8.5h25.1c2.8,0,4.2-3.2,4-5.6ZM291,68.1h-20.2c.3-5.1,4-10.1,9.4-10.5,5-.4,8.9,2.5,10.3,7.2.2.5.7,2.5.7,2.9,0,.1-.1.4-.2.4Z"/>
    <path d="M97.8,61.2c-5.2,10.9-1,24.9,10.9,28.9,6.6,2.3,15.9,1.2,21.1-3.8,3.2-3.1.3-7.7-3.5-6.2-.9.4-1.9,1.4-2.8,2-6.2,3.6-14.9,2.5-17.9-4.5-.2-.5-1.2-3.2-.9-3.6h25.1c.6,0,2.2-.8,2.6-1.3,2.5-2.5.5-9.2-.9-12-6.8-14.1-27.1-13.4-33.7.5ZM124.7,68.1h-20c-.4-.1-.1-1.2,0-1.5.7-3.6,3.2-7.2,6.9-8.4,6.4-2.1,11.9,1.8,13.1,8.2,0,.3.4,1.8,0,1.8Z"/>
    <path d="M20.3,41c.7,0,1.6.3,2.3.3,4.1-.2,5.1-6.4.7-7.6-2.8-.7-7.6-.6-10.4.4-6.9,2.5-7.3,9.5-7.2,15.9-1.2.3-2.4,0-3.6.7-2.5,1.5-2.7,4.9-.2,6.5.2.1,1.1.6,1.2.6.7.1,1.7,0,2.4,0l.2.5v29.3c.9,4.1,6.6,5.1,8.6,1.3.2-.3.7-1.5.7-1.7v-29.3l.2-.2h7.8c0,0,.8-.3,1-.4,2.3-1.1,2.8-4.1,1.1-6-.3-.3-1.5-1.1-1.9-1.1h-8.1c-.5,0-.4-2.4-.4-2.9.2-3.7,1.5-6.3,5.6-6.3Z"/>
    <path d="M152.7,66.1c-2.6-1-7.6-3-5.2-6.7,2.2-3.3,8.1-2,11.1-.9,1.7.6,4.1,2.2,5.8,1.9,3.2-.5,4.1-4.6,1.5-6.5-3.2-2.4-10.6-3.9-14.5-3.6-6.1.5-12.1,4.2-12.6,10.8-.5,7.3,3.9,10.1,10.1,12.2,3.4,1.2,13.4,2.6,10.8,8.1-2.1,4.6-10.8,2.3-14.3.6-2.1-1-4.5-3.3-6.9-1.7-1.9,1.2-2.3,4.1-.6,5.7,1.4,1.4,5.8,3.3,7.7,3.9,8.5,2.7,21.7,1.5,22.7-9.6.9-10.1-8.3-11.4-15.6-14.1Z"/>
    <path d="M186.6,58.1c3.1-.4,8,1.2,10.1-1.6,1.5-1.9.7-4.8-1.4-5.8-.1,0-1-.4-1.1-.4h-8.1l-.2-.2v-7.8c0-.3-.7-1.5-.9-1.8-2.4-3.1-7.6-1.9-8.2,2-.2,1.1.1,7.6-.2,7.8h-2.3c-.3,0-1.7.8-1.9,1.1-2.2,2-1.1,6.3,1.8,6.7.8.1,2.3-.4,2.6.6.4,7.2-.4,14.8,0,22,.6,9.5,8.6,12.1,16.8,9.8,2.8-.8,5.1-3.3,3-6.1-2.1-2.9-4.9-.8-7.9-1.7-1.9-.6-2.8-2.8-2.9-4.6v-19.4c0-.4.3-.5.7-.5Z"/>
    <path d="M250,33.2c-1.9.2-3.7,1.8-3.9,3.8v50.4c.6,5.2,7.9,5.2,8.8.1v-50.4c-.3-2.4-2.6-4.2-5-3.9Z"/>
    <path d="M45.8,51.2c-3.4,1.6-4.8,4.4-6.6,7.4,0,.1,0,.3-.3.2-.3-2.8.6-6.2-2.4-7.7-2.8-1.5-6,0-6.6,3.2v33.3c.7,5.1,8.4,4.9,8.8-.1.8-9-2.8-22.6,7.7-27.3,2.5-1.1,6.4-.9,6.9-4.4.6-4.9-3.6-6.3-7.5-4.5Z"/>
  </g>
  <path d="M130.5,3.6s-2.5,1-5.5,4.2-4.6,6.9-3.4,7.9c.5.4,1.6.4,3.6-1.4,1.9-1.6,3.4-3.7,4.3-6,1.3-3.2.9-4.7.9-4.7M146.6,9.4c-3.3-1.7-5.7-3.7-8.1-5-2.4-1.2-3.9-1.7-5.8-1.5-.3,0-.5.1-.8.2,0,0,1,3.4-2.9,9-3.9,5.7-7.6,5.7-8.6,4.1-1.1-1.7.3-5,2.6-8.1,2.4-3.1,6.7-5.7,6.7-5.7,0,0-1.3-.8-4.7,1.1-3.2,1.8-8.8,6.2-14,13.6-5.2,7.4-6.2,11.4-7,14.6-.7,3.2,0,6.6,3.5,6.6s7.7-5.4,8.8-7.3c2.2-3.5,3.6-8.9.6-8.1-1.4.4-2.6,2-3.4,3.5-.4,1-.8,2-1.1,3.1-1,.4-2,1-2.9,1.7-1,.7-1.9,1.5-2.7,2.4,0,0,0-2.6,2.1-6.7s5.8-6,7.9-6.2c1.9-.1,4.4,1.5,2.3,7.4-2.1,6-8.3,13.2-14.9,13.3-6,0-10-7.6-1.6-21C111.9,5.7,122.8,1.1,126.3.6s4.7,1,4.7,1c2.1-.9,4.4-1.3,6.7-1.1,4.3.3,7.6,3.4,12.1,5.5-1.2,1.1-2.2,2.2-3.2,3.3M165.9,4.4c-3,1.9-7.1,3.6-11.1,3.3-1,1-2.1,2.2-3.1,3.5,6.9,1.3,12.9-2.9,16.2-6.6,1.2-1.3,2.2-2.7,3-4.3-1.5,1.5-3.1,2.9-4.9,4M156.8,23.8c0,0,0-.2.1-.3,0-.3-.3-.6-.6-.6-.7,0-1.6,0-3.9,2.7-1.9,2.2-3.6,4.5-5,7.1-1.3,2.5-1.9,4.3-1.1,4.8.3.1.5.2.8,0,.5-.1,1.1-.6,2-1.7.4-.5.9-1.2,1.4-2,1.6-2.1,5.5-8.7,6.2-10.1M132.4,26.6c.4-1,.9-3.1-.1-3.8-1.1-.9-3.9,1.1-3.9,3.1s2,3,2.5,3.1c.3,0,.4,0,.5-.2.4-.7.8-1.5,1.1-2.3M130.2,30.4c-.7-.3-1.3-.8-2-1.3-.6-.5-1.1-1.1-1.5-1.8,0,0,0,0-.1,0s-.2.2-1.7,2.4-3.9,6.8-1.7,7.6c1.3.5,3.6-1.8,4.8-3.4.9-1.1,1.6-2.2,2.2-3.5,0-.1,0-.2,0-.2M154.1,35.7c-.6.9-1.2,2.7.7,1.6,2.3-1.3,5.6-6.3,5.6-6.3h1.5c-1.3,2.1-2.9,4-4.5,5.9-2.3,2.6-5.2,4.9-7.2,4.7-2.3-.3-1.6-3.4-1.6-3.4,0,0-3.4,3.5-5.7,3.3-3.1-.4-2.2-4.2-2.2-4.2,0,0-3.5,4.4-6,4.2-3.8-.2-2.8-4.8-1.8-8,.6-1.7,1.1-3.1,1.1-3.1,0,0-.4,0-1.2.2-.4,0-1.2,0-1.2,0,0,0-1.6,2.8-2.8,4.4s-6.6,7.4-9.7,6.3c-2.9-1.1-1.9-5.5-.3-9.1,2.5-5.2,9.4-12.6,13.5-11.6,4.2,1,0,8.6,0,8.6h0c0,0,.3,0,.8,0,.5,0,1-.3,1.5-.4,0,0,4.2-8.7,8.8-14.5s13.8-15.6,17.5-13.2c.9.6.5,2.6-.7,5.1-.5.2-1.1.3-1.6.4.8-1.4,1.3-2.6,1.5-3.5.5-3-6.4,3.3-11.3,10-3,4-5.6,8.3-7.9,12.8.9-.5,1.7-1.2,2.6-1.8,2.2-1.8,4.3-3.8,6.3-5.8,1.9-1.9,3.7-4,5.3-6.1.5,0,1,0,1.6-.2-1.8,2.5-3.8,4.8-5.9,7-2,2-4.1,4.1-6,5.7-1.7,1.4-3.4,2.7-5.2,3.9,0,0-4.3,8.7-2,9.3,1.4.3,4.1-3.9,4.1-3.9,0,0,3.5-5.4,5.7-7.9,2.9-3.3,5.4-5.2,7.9-5.3,1.5,0,2.3,1.5,2.3,1.5l.7-1.1h4.3s-7.9,13.5-8.6,14.4M165.9,4.4c-3,1.9-7.1,3.6-11.1,3.3-1,1-2.1,2.2-3.1,3.5,6.9,1.3,12.9-2.9,16.2-6.6,1.2-1.3,2.2-2.7,3-4.3-1.5,1.5-3.1,2.9-4.9,4M106.3,11h-4l-2.3,3.7h4l2.3-3.7ZM87.2,23.8c1.7-2.3,6.5-10.6,6.5-10.6,0-.3-.3-.6-.6-.6-.7,0-1.7.2-3.9,2.9s-3.9,4.9-5.1,7.1c-1.3,2.5-1.9,4.2-1.2,4.7.3.1.5.1.8,0,.5-.1,1.2-.6,2.1-1.7.4-.5.9-1.1,1.5-1.9M65.5,12.6c-1.1-.9-3.9,1.1-3.9,3.1s2.6,2.7,2.9,2.7c0,0,.2,0,.3,0,0,0,0,0,.1-.1.3-.6.6-1.2.8-1.8.4-1,.9-3.1-.1-3.8M63.8,19.7c-.8-.2-1.5-.6-2.2-1-.7-.4-1.2-1-1.6-1.7,0,0,0,0-.1,0s-.3.4-1.8,2.6-3.8,6.8-1.7,7.6c1.3.5,3.6-1.9,4.8-3.4.9-1.2,1.8-2.5,2.6-3.8,0-.1,0-.2,0-.2M96.8,21.1h1.5s-7.4,10.7-11.6,10.2c-2.3-.3-1.7-3.1-1.7-3.1,0,0-3.3,3.9-6.3,3.1-2.7-.7-1-5.2-1-5.2-.3.1-6.2,6.8-10.4,5.2-4.4-1.7-2.1-7.3-1.3-8.9.7-1.4,1.5-2.8,1.5-2.8,0,0-.7.2-1.1.3s-1,.2-1,.2c0,0-2.1,3.4-3.3,5s-6.6,7.4-9.7,6.3-2.4-5.6-.6-9.1c2.9-5.7,9.7-12.7,13.8-11.6,4.1,1.1.7,7.8.7,7.8,0,0,.8,0,2.8-1.3,2.8-1.9,6.6-7.2,10.7-6.6,1.9.3,3.7,2.2,1.3,6-.8,1.2-2.1,2.2-3.1,1.2-.6-.7,0-1.8.6-2.7.5-.7,1.3-1,2.2-1,0,0,.7-1.5-1-1.5s-4.9,3.2-6.9,6.5c-1.8,3-4.6,8.1-1.8,9.2,2.5,1,7.4-4.7,9.6-7.7s7.3-9.8,11.6-10.1c1.5,0,2.3,1.3,2.3,1.3l.5-.8h4.3s-8,13.4-8.7,14.4c-.5.8-1.2,2.6.7,1.6s5.6-5.8,5.6-5.8M94.5,42.5c-3.1-2.2-6.9-3.3-10.7-3.1-2.1,0-4,1.1-5.2,2.8-1.6-2.8-4.8-4.6-9.8-4.5-8,0-16,3.8-22.3,3.8s-10.5-3.8-10.3-10.5c.3-11.8,10.3-22.4,17.7-27.2C58.2.9,61.8.1,64.2.4c1.7.2,3.8,2.2,2.5,5.1-1.9,4.3-4.5,3.9-4.4,1.9,0-1.3.9-2.2,1.6-2.6.4-.3,1.2-.4,1.6-.4.4-.3.7-2.6-2.4-1.9s-6.8,3.8-10.3,7.7c-3.5,3.9-9,11.3-10.4,19-.6,3.6-.2,10.1,8.3,10.1,7.2,0,17.9-4.8,27.6-4.7,3.8,0,7.1,1.1,9.7,2.6,2.5,1.6,5.6,3.8,6.6,5.4"/>
</svg>