<?xml version="1.0" encoding="UTF-8"?>
<svg id="Layer_1" xmlns="http://www.w3.org/2000/svg" version="1.1" viewBox="0 0 300 95">
  <!-- Generator: Adobe Illustrator 29.4.0, SVG Export Plug-In . SVG Version: 2.1.0 Build 152)  -->
  <path d="M210.2,7.7s-5.6,2.2-12.2,9.4-10.3,15.3-7.5,17.5c1.1.8,3.6,1,8.1-3.1,4.2-3.6,7.5-8.2,9.6-13.3,2.9-7.1,2-10.4,2-10.5M246,20.6c-7.3-3.7-12.6-8.3-18.1-11.1-5.3-2.7-8.7-3.8-12.9-3.3-.6.1-1.2.3-1.8.4,0,0,2.2,7.5-6.5,20.1-8.8,12.8-16.9,12.7-19.2,9.2-2.4-3.7.7-11.2,5.9-18,5.4-7,14.9-12.8,14.9-12.8,0,0-3-1.8-10.4,2.4-7.2,4.1-19.7,13.8-31.3,30.3-11.6,16.5-13.9,25.5-15.5,32.6s-.2,14.8,7.8,14.8,17.1-12.1,19.7-16.2c4.8-7.8,8-19.8,1.4-18.1-3.2.8-5.9,4.4-7.5,7.8-1,2.2-1.8,4.5-2.4,6.9-2.3.9-4.4,2.2-6.4,3.7-2.2,1.6-4.2,3.4-6.1,5.4,0,0,0-5.7,4.6-14.9s12.9-13.4,17.6-13.8c4.3-.3,9.8,3.3,5.1,16.6s-18.5,29.5-33.1,29.7c-13.4.2-22.2-16.9-3.5-46.8C168.8,12.4,193,2.3,200.9,1.1s10.4,2.3,10.4,2.3c4.7-1.9,9.9-2.8,15-2.5,9.6.6,17,7.5,26.9,12.2-2.6,2.4-5,5-7.2,7.4M289.1,9.5c-6.7,4.3-15.9,8.1-24.7,7.3-2.2,2.3-4.6,5-7,7.9,15.4,3,28.8-6.5,36-14.6,2.6-2.9,4.8-6.1,6.7-9.6-3.3,3.4-6.9,6.4-10.9,8.9M268.7,52.8c.1-.2.2-.4.3-.6,0-.7-.7-1.3-1.4-1.3-1.5,0-3.5.2-8.7,6-4.3,4.8-8.1,10.1-11.1,15.8-3,5.5-4.2,9.5-2.5,10.6.6.3,1.2.4,1.8.2,1.2-.3,2.5-1.4,4.5-3.7.9-1.1,2-2.6,3.2-4.4,3.5-4.7,12.2-19.5,13.9-22.5M214.3,59.1c.9-2.3,2-6.8-.3-8.5-2.5-1.9-8.8,2.5-8.8,7,0,4.6,4.5,6.7,5.5,7,.6.2.8.1,1.1-.4,1-1.6,1.8-3.4,2.5-5.1M209.5,67.5c-1.6-.7-3-1.7-4.4-2.8-1.3-1.1-2.4-2.5-3.3-4,0-.1-.2,0-.3,0s-.5.5-3.9,5.4c-3.4,4.9-8.6,15.2-3.9,16.9,3,1.1,8-4.1,10.7-7.6,1.9-2.4,3.5-5,5-7.7.1-.3,0-.4-.2-.4M262.8,79.3c-1.3,2-2.7,6,1.5,3.5,5.1-3,12.4-14,12.4-14h3.3c-3,4.6-6.4,9-10,13.2-5.2,5.8-11.5,11-16,10.5-5.2-.6-3.6-7.5-3.6-7.5,0,0-7.5,7.9-12.6,7.4-7-.8-4.8-9.4-4.8-9.4,0,0-7.9,9.7-13.3,9.4-8.4-.5-6.3-10.7-4-17.9,1.3-3.9,2.4-6.9,2.4-6.9,0,0-.8.2-2.6.5-.9.1-2.6.2-2.6.2,0,0-3.5,6.2-6.3,9.9s-14.7,16.5-21.7,14c-6.5-2.4-4.3-12.3-.6-20.2,5.5-11.5,21-28,30-25.8,9.3,2.2.2,19.2.2,19.2,0,0,0,0,0,.1.2,0,.7.1,1.8,0,1.2-.2,2.3-.6,3.4-1,0,0,9.3-19.5,19.6-32.3s30.8-34.7,38.9-29.4c2,1.3,1.1,5.8-1.6,11.3-1.2.4-2.4.7-3.6,1,1.8-3.2,3-5.9,3.3-7.8,1.2-6.6-14.2,7.3-25.2,22.3-6.6,9-12.5,18.5-17.6,28.5,2-1.2,3.9-2.6,5.7-4.1,4.9-4.1,9.6-8.4,14-13,4.2-4.3,8.2-8.9,11.9-13.7,1.2,0,2.3-.2,3.5-.4-4,5.5-8.4,10.6-13.1,15.5-4.4,4.4-9.1,9.2-13.3,12.7-3.7,3.1-7.6,6-11.6,8.6,0,0-9.6,19.4-4.4,20.7,3.1.7,9.2-8.6,9.2-8.6,0,0,7.9-12.1,12.7-17.6,6.5-7.4,12.1-11.7,17.7-11.8,3.3,0,5.2,3.4,5.2,3.4l1.5-2.4h9.5s-17.7,30-19.1,32.2M289.1,9.5c-6.7,4.3-15.9,8.1-24.7,7.3-2.2,2.3-4.6,5-7,7.9,15.4,3,28.8-6.5,36-14.6,2.6-2.9,4.9-6.1,6.7-9.6-3.3,3.4-6.9,6.4-10.9,8.9M156.3,24.2h-9l-5.1,8.2h9l5.1-8.2ZM113.6,52.7c3.8-5.2,14.4-23.6,14.4-23.6,0-.7-.7-1.3-1.4-1.3-1.5,0-3.9.4-8.7,6.5s-8.6,10.9-11.3,15.9c-3,5.5-4.3,9.3-2.6,10.4.6.3,1.2.3,1.8.2,1.1-.3,2.6-1.4,4.6-3.7.9-1.1,2-2.5,3.3-4.3M65.4,27.8c-2.5-1.9-8.8,2.5-8.8,7,0,4.6,5.7,6,6.4,6.1.2,0,.4,0,.6-.1.1,0,.2-.2.3-.3.7-1.3,1.3-2.7,1.8-4.1.9-2.3,2-6.8-.3-8.5M61.6,43.7c-1.7-.5-3.4-1.3-4.9-2.2-1.5-1-2.7-2.3-3.5-3.9,0-.1-.2,0-.3,0s-.6.8-4,5.7-8.4,15.1-3.7,16.9c3,1.1,8.1-4.2,10.8-7.6,2.1-2.7,4-5.6,5.7-8.5.1-.3,0-.4-.2-.4M135.1,46.7h3.3s-16.5,23.9-25.8,22.8c-5.2-.6-3.7-7-3.7-7,0,0-7.3,8.6-14,6.8-6.1-1.6-2.2-11.7-2.2-11.7-.7.3-13.9,15.1-23.2,11.6-9.7-3.7-4.7-16.2-2.8-19.9,1.6-3.2,3.3-6.2,3.3-6.2,0,0-1.5.4-2.4.6s-2.3.5-2.3.5c0,0-4.6,7.5-7.4,11.2s-14.7,16.5-21.7,14c-7-2.5-5.3-12.4-1.3-20.2,6.4-12.7,21.6-28.2,30.7-25.8,9.2,2.4,1.6,17.3,1.6,17.3,0,0,1.8.2,6.2-2.8,6.3-4.3,14.7-16,23.8-14.6,4.3.6,8.3,5,2.8,13.3-1.7,2.7-4.6,5-6.9,2.7-1.4-1.5-.2-4.1,1.3-6,1.2-1.5,3-2.3,4.9-2.2,0,0,1.5-3.4-2.3-3.4-3.1,0-10.9,7.2-15.3,14.5-4,6.7-10.2,18-4,20.5,5.6,2.3,16.4-10.5,21.3-17.1s16.3-21.8,25.8-22.4c3.3-.2,5.2,2.8,5.2,2.8l1.1-1.7h9.5s-17.9,29.8-19.3,32.1c-1.1,1.8-2.6,5.7,1.5,3.5s12.4-13,12.4-13M129.9,94.5c-7-4.8-15.4-7.3-23.8-7-4.7.1-9,2.5-11.6,6.3-3.6-6.3-10.8-10.2-21.8-10.1-17.9.2-35.6,8.4-49.7,8.4-13.5,0-23.3-8.5-23-23.5C.6,42.4,22.9,18.6,39.5,7.9,49.1,1.8,57.1,0,62.4.6c3.8.4,8.4,4.8,5.5,11.4-4.3,9.5-10.1,8.7-9.9,4.2.1-3,2.1-4.8,3.6-5.9.9-.6,2.6-.8,3.5-.9.8-.7,1.5-5.9-5.4-4.2s-15.1,8.4-23,17.1-20.1,25.1-23.2,42.4c-1.4,8-.5,22.6,18.5,22.4,16.1-.1,39.8-10.7,61.6-10.5,8.5,0,15.8,2.4,21.6,5.9,5.6,3.5,12.4,8.5,14.8,12"/>
</svg>