<?xml version="1.0" encoding="UTF-8"?>
<svg id="Camada_1" xmlns="http://www.w3.org/2000/svg" version="1.1" viewBox="0 0 300 100">
  <!-- Generator: Adobe Illustrator 29.4.0, SVG Export Plug-In . SVG Version: 2.1.0 Build 152)  -->
  <path d="M68.7,47.6c6.7,0,12.2-2.2,16.2-7,4.2-4.5,6.2-10.2,6.2-16.7s-2-12.2-6.2-16.7C80.7,2.5,75.2.2,68.7.2s-12.2,2.2-16.5,6.7c-4.2,4.5-6.2,10.2-6.2,16.7s2.2,12.2,6.5,16.7c4,5,9.5,7.2,16.2,7.2ZM58.7,13c2.5-2.7,5.7-4.2,10-4.2s7.5,1.5,9.7,4.2c2.5,2.7,3.5,6.5,3.5,10.7s-1.2,8.2-3.7,11c-2.5,2.7-5.7,4.2-10,4.2s-7.5-1.5-10-4.2c-2.5-2.7-3.7-6.5-3.7-10.7.5-4.2,1.7-8,4.2-11Z"/>
  <path d="M187.9,44.1c3.2,2.5,7.2,3.5,12,3.5s8.5-1.2,11.7-3.7c3.2-2.5,4.7-6,4.7-10.5s-1.7-8-5-10c-3.2-2-5.7-2.7-10-3.7l-1.2-.2h-.2c-5.7-1.5-7.7-3-7.7-6s2.7-5.5,7.2-5.5,7.7,2.2,8,6v.2h9v-.2c0-4.5-1.7-8-5-10.2-3.5-2.5-7.5-3.7-12-3.7s-8.5,1.2-11.7,3.7c-3.2,2.5-4.7,6-4.7,10.5s1.7,8,5,10c3.2,2,5.7,2.7,10,3.7l1.2.2h.2c5.7,1.5,7.7,3,7.7,6s-2.7,5.5-7.2,5.5-7.7-2.2-8-6v-.2h-9v.2c0,4.5,1.7,8,5,10.5Z"/>
  <path d="M245.3,43.6c3,2.5,6.7,3.7,11,3.7s9-1.5,12.5-4.5l3.7,3.7h10.7l-9.5-9.7c1.7-3.2,2.5-7.2,2.5-11.2v-4h-7.5v3.5c0,2.7-.2,4.7-.7,6.2l-7.2-7.5c5.2-2.2,8.2-6.5,8.2-11.7s-1-5.7-3.2-7.7c-2.2-2.2-5-3.2-8.7-3.2s-6.5,1-9.2,3-4,4.7-4,8.2,1.5,7.2,4.5,10l.5.2c-5.5,2.2-8.2,6-8.2,11.2s1.5,7.2,4.7,9.7ZM256.7,8.2c2.7,0,4.5,2,4.5,4.7s-2,5.2-5,6.5l-1.7-1.7c-1.7-1.7-2.5-3.2-2.5-4.7,0-3.5,2.5-4.7,4.7-4.7ZM253.5,27.4l10.2,10.2c-1.5,1.5-3.7,2.2-6.7,2.2s-8-2-8-6.2,1.5-5,4.5-6.2Z"/>
  <path d="M174.7,38.9c3.7-4.5,6-10.2,6-16s-2-11-5.7-15.2c-4-4.2-10.2-6.7-17.2-6.7h-15.2v45.4h14c7.5,0,14-2.5,18.2-7.5ZM151.2,9.7h6.5c4.5,0,8,1.2,10.2,4,2.5,2.5,3.5,5.7,3.5,9.5s-1.2,7.5-4,10.5c-2.7,3-6.2,4.5-11,4.5h-5.2V9.7Z"/>
  <path d="M34,42.4v4.2h8.5v-24.7h-21.7v8.5h13c-.7,5.5-5,8.7-11.2,8.7-4,0-7.2-1.2-9.7-4.2-2.5-2.7-3.5-6.5-3.5-11.2s1.2-8,3.5-11c2-2.7,5.2-4,9.5-4s10.5,3.2,11,7.7v.2h9.2v-.5c-.5-5-2.7-9-6.2-12-3.5-2.7-8-4.2-13.5-4.2C15.6.2,9.4,2.7,5.9,7.5,2.1,12,.4,17.7.4,23.9s2,12.5,5.7,17,9,7,15.2,7c6.5-.2,10.5-2.7,12.7-5.5Z"/>
  <polygon points="231.3 61.8 254.2 61.8 254.2 72.1 233.5 72.1 233.5 80.5 254.2 80.5 254.2 90.3 232.3 90.3 232.3 98.8 263 98.8 263 53.4 231.3 53.4 231.3 61.8"/>
  <path d="M217.3,71.1h-5.7l-11.7-17.7h-10.7l12.7,19.5c-5.2,2-8.5,6.7-8.5,12.5s1.2,6.7,4,9.5,6.5,4,11.2,4h17.7v-45.4h-9v17.7ZM208.6,90.3c-3.7,0-6-2-6-5.2s2.7-5.5,6.5-5.5h8.5v10.7h-9Z"/>
  <path d="M299.6,66.3v-.2c0-4.5-1.7-8-5-10.2-3.2-2.5-7.2-3.5-12-3.5s-8.5,1.2-11.7,3.7c-3.2,2.5-4.7,6-4.7,10.5s1.7,8,5,10c3.2,2,5.7,2.7,10,3.7l1.2.2h.2c5.7,1.5,7.7,3,7.7,6.2s-2.7,5.5-7.2,5.5-7.7-2.2-8-6v-.2h-9v.2c0,4.5,1.7,8,5,10.2,3.2,2.5,7.2,3.5,12,3.5s8.5-1.2,11.7-3.7c3.2-2.5,4.7-6,4.7-10.5s-1.7-8-5-10-5.7-2.7-10-3.7l-1.2-.2h-.2c-5.7-1.5-7.7-3-7.7-6.2-.2-3.5,2.5-5.5,7.2-5.5s7.7,2.2,8,6v.2h9Z"/>
  <path d="M54,55.6c-3.2-2.5-7.2-3.5-12-3.5s-8.5,1.2-11.7,3.7c-3.2,2.5-4.7,6-4.7,10.5s1.7,8,5,10c3.2,2,5.7,2.7,10,3.7l1.2.2h.2c5.7,1.5,7.7,3,7.7,6.2s-2.7,5.5-7.2,5.5-7.7-2.2-8-6v-.2h-9v.2c0,4.5,1.7,8,5,10.2,3.2,2.5,7.2,3.5,12,3.5s8.5-1.2,11.7-3.7c3.2-2.5,4.7-6,4.7-10.5s-1.7-8-5-10c-3.2-2-5.7-2.7-10-3.7l-1.2-.2h-.2c-5.7-1.5-7.7-3-7.7-6.2s2.7-5.5,7.2-5.5,7.7,2.2,8,6v.2h9v-.2c-.2-4.2-1.7-7.7-5-10.2Z"/>
  <polygon points="169.5 53.4 154 98.8 163.2 98.8 173.4 66.3 183.4 98.8 192.9 98.8 177.7 53.4 169.5 53.4"/>
  <path d="M116.8,52.1c-5.5,0-10,1.5-14,4.7-3.7,3-6,7.5-6.2,13.2v.2h9.2v-.2c.2-3.2,1.2-5.5,3.5-7,2-1.5,4.5-2.2,7.5-2.2,4.2,0,7.2,1.5,9.5,4.5,2.2,3,3.5,6.7,3.5,11s-1.2,7.7-3.5,10.7c-2.2,2.7-5.5,4.2-9.7,4.2s-10.2-3.2-10.7-7.7v-.2h-9.2v.5c.5,5,2.7,9,6.2,12,3.5,2.7,8,4.2,13.5,4.2s13.2-2.7,16.7-7.2,5.5-10,5.5-16.2-2-12-5.5-16.5c-3.5-5.2-9.5-8-16.2-8Z"/>
  <rect x="142.5" y="53.4" width="9" height="45.1"/>
  <polygon points="61.2 61.8 84.2 61.8 84.2 72.1 63.5 72.1 63.5 80.5 84.2 80.5 84.2 90.3 62.5 90.3 62.5 98.8 93.1 98.8 93.1 53.4 61.2 53.4 61.2 61.8"/>
  <path d="M116.1.2c-6.7,0-12.2,2.2-16.5,7-4.2,4.5-6.2,10.2-6.2,16.7s2.2,12.2,6.5,16.7c4.2,4.7,9.7,7,16.5,7s12.2-2.2,16.2-7c4.2-4.5,6.2-10.2,6.2-16.7s-2-12.2-6.2-16.7S122.8.2,116.1.2ZM125.8,34.7c-2.5,2.7-5.7,4.2-10,4.2s-7.5-1.5-10-4.2c-2.5-2.7-3.7-6.5-3.7-10.7.5-4.2,1.7-8,4.2-11,2.5-2.7,5.7-4.2,10-4.2s7.5,1.5,9.7,4.2c2.5,2.7,3.5,6.5,3.5,10.7s-1.2,8.2-3.7,11Z"/>
</svg>