<?xml version="1.0" encoding="UTF-8"?>
<svg id="Layer_1" xmlns="http://www.w3.org/2000/svg" version="1.1" viewBox="0 0 300 78">
  <!-- Generator: Adobe Illustrator 29.4.0, SVG Export Plug-In . SVG Version: 2.1.0 Build 152)  -->
  <path d="M72,54.2c-1,0-1.7.2-2.4,1-.7.7-1,1.4-1,2.4s.2,1.7,1,2.4c.7.7,1.4,1,2.4,1s1.9-.2,2.4-1c.7-.7,1-1.4,1-2.4s-.2-1.7-1-2.4c-.7-.7-1.4-1-2.4-1Z"/>
  <polygon points="72 54.2 72 54.2 72 54.2 72 54.2"/>
  <path d="M30.1,17.1H12.7v1.4h5.7v29.2c0,8.9-2.4,11.2-7.9,11.2s-4.1-2.6-4.1-3.8c0-3.1-.2-5.3-3.1-5.3s-3.3,2.9-3.3,3.8c0,4.1,1.9,7.2,9.8,7.2s14.6-3.1,14.6-13.9v-28.5h5.7v-1.4Z"/>
  <path d="M54.1,56.1c-.3-.8-.5-1.7-.5-2.6v-11.5h4.5c13.4,0,17.2-5.3,17.2-12.4s-2.2-12.4-15.8-12.4h0s-17.2,0-17.2,0v1.4h5v33.5c0,2.6-.2,3.3-.5,4.1-.2,1-1,1.4-2.2,1.9-.7.2-1.9.5-3.6.5v1.4h18.7v-1.4c-1.7,0-2.9-.2-3.6-.5-1.2-.5-1.9-1.2-2.1-1.9ZM53.6,18.8h3.1c10.3,0,12.7,4.3,12.7,11s-4.1,10.5-12.2,10.5h-3.6v-21.5Z"/>
  <polygon points="32.8 54.2 32.8 54.2 32.8 54.2 32.8 54.2"/>
  <path d="M32.8,54.2c-1,0-1.9.2-2.4,1-.7.7-1,1.4-1,2.4s.2,1.7,1,2.4c.7.7,1.4,1,2.4,1s1.7-.2,2.4-1c.7-.7,1-1.4,1-2.4s-.2-1.7-1-2.4c-.7-.7-1.4-1-2.4-1Z"/>
  <path d="M260.8,56.8h0c-1.9,0-2.4-1-2.6-2.9v-16.7c0-2.9-.5-4.5-2.2-6.2-1.7-1.7-4.8-2.4-9.3-2.4s-7.4.7-9.6,2.4c-1.9,1.4-2.9,2.9-2.9,5s.2,1.7.7,1.9c.5.5,1.2.7,1.9.7,1.7,0,2.6-1,3.1-3.1.2-1.7.7-2.6,1.4-3.6,1-1,2.4-1.4,4.1-1.4s3.8.5,4.5,1.7c.7,1.2,1.2,2.6,1.2,4.5v5c-5.5.5-18.9,1.7-18.2,11.7.2,3.8,3.6,7.4,8.1,7.4s8.1-2.9,10.3-5c.2,2.2,2.4,4.8,6,4.8s6.5-1.9,6.7-6.9h-1c0,1.9-1.2,3.1-2.4,3.1ZM251.7,53.7l-.2.2c-2.9,2.6-5.3,3.6-6.9,3.6-4.3,0-5-3.6-5-5.3,0-5.7,7.9-8.6,12.2-8.6,0,0,0,9.8,0,9.8v.2Z"/>
  <path d="M296.6,56.6c-.5-1-1.2-2.4-1.2-4.5v-13.9c0-1.9-.2-3.8-1-5-.7-1.4-1.9-2.4-3.1-3.1-1.4-.7-2.9-1-4.5-1-6.2,0-8.6,3.8-10,6h-.5l-1.2-5.5h-9.6v1.7h4.8v21.1c0,1.7-.2,2.9-.5,3.6-.2,1-1,1.7-1.7,1.9-.5.2-1.4.5-2.6.5v1.9h15.1v-1.9c-1.4-.2-2.6-.5-3.1-1.2-.5-.7-1-2.2-1-4.3v-8.1c0-3.3,0-6.7,1.2-8.6,1.2-2.2,3.6-3.3,6-3.3s3.6.7,4.3,2.2c.7,1.2,1,4.8,1,7.2v10c0,1.7.2,2.9,0,3.6-.2,1-.5,1.7-1.2,2.1-.5.5-1.4.5-2.4.7v1.9h14.6v-1.9c-1.7-.7-2.9-1.2-3.4-1.9Z"/>
  <path d="M228.2,27.2h0c-1,.2-1.4,1.2-1.9,2.4-.2,1.2-.7,1.9-1.4,2.1-.7.2-1.4.2-2.2-.2-1.7-1.4-4.5-3.1-9.8-3.1-8.6,0-12.2,6-12.2,11.5s2.4,9.6,7.9,10.8c.2,0,.2.5,0,.5-4.5,1-8.8,2.4-8.8,6.7s1.4,4.1,3.6,5c2.1,1,5.3,1.4,9.1,1.4s5.7.2,7.2.2c1.4.2,2.8.7,4.1,1.4,1,.7,1.4,1.9,1.4,3.3,0,2.2-1.2,3.6-3.3,5-2.1,1.2-4.8,1.7-8.4,1.7s-5.5-.2-7.7-1.7c-1.7-1-1.9-2.9-1.7-4.3s-.2-2.9-1.9-3.3c-1-.2-2.1.3-2.6,1.2-.5.7-.7,1.7-.7,2.9,0,3.6,2.9,5.3,5,6,3.3,1,5.5,1.2,8.4,1.2,4.1,0,7.2-.7,9.6-1.7,2.4-1.2,3.8-2.6,4.8-4.3,1-1.7,1.4-3.3,1.4-5s-.5-4.1-1.4-5.3c-3.1-4.1-7.4-3.6-17-4.1-4.5,0-5.5-1-5.5-2.4,0-2.2,1.7-2.9,8.4-4.1,6.7-1,12.9-3.6,12.9-11.5s-.5-4.3-1.2-5.7c1.4.2,2.6.2,3.8,0,1.4-.5,2.2-1.2,2.6-1.9.5-1,.7-1.9.2-2.6.2-1.9-1-2.6-2.6-2.2ZM213.2,49.6c-4.1,0-6.2-1.4-6.2-9.6s1.9-10,6.2-10,6.5,3.8,6.5,9.8c0,8.6-2.6,9.8-6.5,9.8Z"/>
  <path d="M153.3,28.6c-9.1,0-14.6,6-14.6,16.3,0,15.3,12,16.3,14.4,16.3,5,0,14.6-3.1,14.6-16.5s-6.2-16-14.4-16ZM153.1,59.2c-6.7,0-7.9-3.3-7.9-14.1s.5-14.6,7.9-14.6,7.9,6.5,7.9,14.1-1.9,14.6-7.9,14.6Z"/>
  <path d="M191.1,29.1c-5.3,0-7.2,3.1-8.6,6.5h-.5s-.7-4.8-1-6h-10.5v1.7h5.7v21.1c0,2.2-.2,3.6-.7,4.5-.5,1-1.9,1.7-4.1,1.7h-1v1.9h17.7v-1.9h-1c-2.4,0-3.3-.5-3.8-1.4-.5-1-.7-2.4-.7-4.5v-11.5c0-3.6,2.9-7.9,6.2-7.9s3.3,5.3,7.4,3.1c1.9-1.2,1.4-7.2-5.3-7.2Z"/>
  <path d="M130.6,55.9c-.3-.9-.5-1.9-.5-2.9V18.5h4.5v-1.4h-11c-.2.5-13.2,32.5-13.2,32.5l-.2.2q-.2,0-.2-.2s-13.9-32.3-13.9-32.5h-12.2v1.4h5.3v36.4c0,.7-.2,1.4-.7,2.2-.5.7-1.2,1.2-1.9,1.4-.5.2-1.4.2-2.4.2v1.4h12v-1.4c-1,0-1.4-.2-2.2-.2-1-.2-1.4-.7-1.9-1.4-.5-.5-.7-1.2-.7-2.2l-.2-3.1v-28.7h.7s15.5,36.4,15.8,36.8h1.2l14.8-36.6h.5v29.7c0,1.2-.2,2.2-.5,3.1-.2,1-1,1.4-1.9,1.9-1,.3-2.1.5-3.1.5v1.4h16.7v-1.4c-1.1,0-2.1-.1-3.1-.5-.7-.5-1.4-1.2-1.7-2.2Z"/>
</svg>