<?xml version="1.0" encoding="UTF-8"?>
<svg id="Layer_1" xmlns="http://www.w3.org/2000/svg" version="1.1" viewBox="0 0 72 100">
  <!-- Generator: Adobe Illustrator 29.4.0, SVG Export Plug-In . SVG Version: 2.1.0 Build 152)  -->
  <path d="M70.1,0C48.1.2,26.2,0,4.3,0c-.6,0-2.3,0-2.7.1-.3.1-.6.5-.7.8,0,.3,0,.9,0,1.2,0,2.2,0,4.5,0,6.7,0,21.8,0,43.5,0,65.3,0,3.8,0,7.7,0,11.5,0,1.6,1.1,1.7,2.3,2.1,10.1,3.9,20.3,7.8,30.6,11.6,1.1.4,1.8.8,3,.5,9.4-3.5,18.8-7.1,28.3-10.6,1.6-.6,3.4-1.1,5-1.8.6-.3,1.2-.6,1.3-1.3V1.2c0-.6-.6-1.1-1.1-1.1ZM50.2,19c-.3.7-1.4,0-1.6,1.1v13.4c0,.3-.8,1.7-.9,1.8-.3.1-.4-.1-.4-.4,0-1,0-2.2,0-3.2,0-3.5,0-7.1,0-10.6,0-.5.1-.8,0-1.3-.2-.6-.7-.3-1.2-.5-.7-.3-.4-1.1.2-1.3.5,0,2.9,0,3.4,0,.5,0,.8.5.6,1ZM30.9,11.7h17c1,.3.8,1.3-.2,1.4-1,0-2.1,0-3.1,0-1.8,0-3.7,0-5.5,0-.5,0-1.6-.1-2,0-.2,0-.2.3-.3.4v16c0,.3.4.5.7.5,1.4.2,3.1-.3,4.5,0,.3,0,.5.2.5.6,0,.9-1.1.7-1.6.7-.1,0-.3,0-.4,0-1,0-2.1-.2-3.1,0-.3,0-.4.2-.5.5v23.4c0,.3-.4,1.2-.8,1.2-.4,0-.7-.8-.7-1.1V13.6c0-.4-.5-.6-.9-.6-1,0-2.1,0-3.1,0-1.1,0-1.5-1-.4-1.4ZM39.2,52.8c0-.1.2-.4.4-.5.4-.1.9,1,.7,1.3-.6,1.2-1.3,2.4-2,3.6-.2.3-.7,1.4-.9,1.6-.4.2-.7-.4-.7-.7,0-.4,0-.6.2-1,.6-1.3,1.6-3.2,2.4-4.4ZM12.8,20.8c0,9.9,0,19.8,0,29.7,0,7,0,13.9,0,20.9,0,.6-.2,1.2,0,1.8.1.4.5.3.8.3,1,.2,1,1.3,0,1.4-.6,0-3,0-3.4,0-.5-.2-.6-.8-.2-1.1.5-.4,1.4,0,1.4-1,.2-1.9-.1-4,0-5.9,0-1.1,0-2.1,0-3.2,0-.7-.1-1.6-.1-2.4,0-13.2.1-26.5,0-39.7,0-1.3,0-2.7,0-4,0-.4-.2-.9-.6-1.1-.3-.1-1,0-1.1-.5-.2-.5.2-.8.7-.8.4,0,1.3,0,1.6,0,.3,0,.6.3.7.6.6.9,1,2,1.5,2.9,1.9,3.4,3.7,6.9,5.6,10.3.3.6,1.5,2.5,1.6,3.1,0,.2,0,1.6,0,1.8,0,0-.1.2-.2.1-.3,0-1.4-2.4-1.6-2.8-2-3.7-4-7.4-6.1-11.1-.1-.2-.2-.5-.3-.7,0-.1-.3-.4-.5-.3-.2.1,0,1.3,0,1.6ZM24.8,64.8c-.7,0-2.8,0-3.4,0-.4,0-.7-.5-.5-.9.4-.7,1.5,0,1.6-1.3,0-.9,0-1.9,0-2.8,0-12.3,0-24.7,0-37.1,0-.8,0-1.9,0-2.6-.2-.8-.8-.4-1.3-.8-.6-.4-.3-1.1.3-1.2.3,0,1.3,0,1.6,0,.3,0,.7.4.9.6l10.5,19.1c.2.5.3,1.7.2,2.2,0,.3-.3.4-.4.2-1.7-3-3.4-6-5-9-1.2-2.1-2.3-4.3-3.4-6.4-.4-.7-.9-1.7-1.3-2.4-.4-.5-.5-.1-.5.3,0,7.8,0,15.7,0,23.5,0,5.7,0,11.4,0,17.1.2.5.7.3,1.1.4.7.2.6,1.2-.2,1.3ZM30.1,74.4c.2-3.8,2.2-9.3,4.2-12.6,0-.2.4-.6.5-.7.3,0,.7.5.7.7,0,.3,0,.6-.2.9-.8,1.8-1.7,3.4-2.4,5.2-1.2,3.2-3.1,9.5.8,11.5.2,0,.4.1.6.2v1.3c-.1,0-.3,0-.5,0-2.9-.9-3.9-3.6-3.7-6.5ZM37.7,88.4c-.7,0-2.5,0-3.2,0-.6,0-1.1-.7-.6-1.2.5-.4,1.3,0,1.4-.8v-21.6c0-.3.3-1.1.6-1.2.4-.1.8.9.8,1.2,0,7.2,0,14.4,0,21.6,0,.7.8.4,1.2.6.7.3.5,1.2-.3,1.3ZM40.4,79.5c-.5.5-1.7,1.3-2.4,1.4-.1,0-.3,0-.4,0v-1.3c.3-.2.6-.2.9-.4,3.1-1.7,2-6.4,1.2-9.1-1.5-5.1-4.5-9.9-7-14.6-2.7-5-5.4-10-8-14.9-.2-.5-.2-1.3-.2-1.9,0-.1,0-.4.2-.5.1,0,.3.1.3.2.8,1,1.4,2.7,2.1,3.8,3.1,5.7,6.2,11.3,9.2,17,1,1.9,2.1,3.8,3,5.8,1.6,3.7,4.3,11,1,14.5ZM48.6,41v23.1c-.9,1.3-1.5-.3-1.9-1-2.3-4.1-4.6-8.3-6.8-12.5-.7-1.2-1.5-2.6-2.1-3.8-.4-.8-.3-1-.2-1.7,0-.3-.1-.5,0-.8.2-.3.4,0,.5.3.5.8,1,1.9,1.5,2.8,1.9,3.3,3.7,6.7,5.5,10,.5.9,1.1,2.3,1.7,3.1,0,0,.1.2.3.2.2,0,.2-.6.2-.8,0-1.3,0-2.8,0-4.1,0-4.3,0-8.6,0-12.9,0-.4.7-2,1.1-2.1.2,0,.3.2.3.4ZM60.6,21.1c0,16.7,0,33.4,0,50.2,0,.4,0,.9,0,1.4.2.9,1.3.3,1.6,1,.2.5-.2.9-.7,1-.6.1-2.5,0-3.2,0-.8,0-1-1-.3-1.3.5-.2,1.1.1,1.2-.7.1-1.5,0-3.5,0-5.1v-4.9c0-11.9,0-23.8,0-35.7,0-2.3.2-5,0-7.2,0-.9-.5-.3-.7.1-.7,1.1-1.3,2.5-2,3.7-4.5,8.3-9.1,16.7-13.6,25-.2.4-.5,1.4-1,1.3-.3,0-.8-1.2-.5-1.5,5.8-10.3,11.1-20.9,16.9-31.2.4-.6.8-1.9,1.6-2.1.3,0,1.4,0,1.6,0,.6,0,.9.7.3,1.1-.3.2-.7,0-1,.3-.2.2-.4.4-.4.7-.1,1.2,0,2.6,0,3.8Z"/>
</svg>