<?xml version="1.0" encoding="UTF-8"?>
<svg id="svg7851" xmlns="http://www.w3.org/2000/svg" xmlns:svg="http://www.w3.org/2000/svg" xmlns:rdf="http://www.w3.org/1999/02/22-rdf-syntax-ns#" xmlns:dc="http://purl.org/dc/elements/1.1/" xmlns:cc="http://creativecommons.org/ns#" version="1.1" viewBox="0 0 300 43">
  <!-- Generator: Adobe Illustrator 29.4.0, SVG Export Plug-In . SVG Version: 2.1.0 Build 152)  -->
  <path d="M228.8,7c-3.1-7.2-1.9-6.4-8.8-6.6-.6,0-2,0-4,0-2,0-2.6,0-4.1,0-6.4.1-5.4-.3-7.6,4.3,0,0-11.1,25.3-15.9,35.8l-.2.4c-.9,1.8-.2,1.8,1.2,1.8h10c.6,0,1.1-.4,1.2-.8,0,0,1.4-3.3,3.3-7.7h24.4c1.8,4.3,3.2,7.5,3.3,7.7.2.5.7.8,1.2.8h10.3c1.5,0,1.9.2,1.3-1.2-1.8-4.4-13.8-30.5-15.5-34.5ZM207.5,25.3c3.2-7.5,6.2-14.8,6.3-15,.2-.4.5-.6,1-.7.2,0,.7,0,1.3,0s1,0,1.2,0c.4,0,.8.3,1,.7.8,2.1,3.4,8.4,6.1,14.9h-16.9Z"/>
  <path d="M72.9.3h-10.2c-.8,0-1,.4-1,1.1v40c0,1.1.2,1.3,1.4,1.3h9.6c1.1,0,1.3-.3,1.3-1.3V1.4c0-.8-.2-1.1-1.1-1.1Z"/>
  <path d="M50.1.3h-8.3c-1.1,0-1.3.3-1.3,1.3v31.7S23.8,7.3,21.6,3.9C19.1,0,18.2.3,10.9.3s-9.6,0-9.6,0c-1.1,0-1.3.3-1.3,1.3v39.8c0,1.1.3,1.3,1.3,1.3h8.3c1.1,0,1.3-.3,1.3-1.3V10.2s13.7,21.6,18.4,28.8c2.3,3.7,2.8,3.7,9.5,3.7h11.3c1.1,0,1.3-.2,1.3-1.3V1.6c0-1-.2-1.3-1.3-1.3Z"/>
  <path d="M298.7.3h-8.3c-1.1,0-1.3.3-1.3,1.3v31.7s-16.7-26-18.9-29.4c-2.5-3.9-3.4-3.6-10.7-3.6s-9.6,0-9.6,0c-1.1,0-1.3.3-1.3,1.3v39.8c0,1.1.3,1.3,1.3,1.3h8.3c1.1,0,1.3-.3,1.3-1.3V10.2s13.7,21.6,18.4,28.8c2.3,3.7,2.7,3.7,9.5,3.7h11.2c1.1,0,1.3-.2,1.3-1.3V1.6c0-1-.2-1.3-1.3-1.3Z"/>
  <path d="M116.5,16.6c-4-.4-15-1.4-18.5-1.8-1.3-.1-1.7-.9-1.8-1.7,0-.4,0-.7,0-1,0-.4,0-.6,0-.9.1-1.2.7-1.7,2-1.7s29.7,0,29.7,0c1.1,0,1.3-.2,1.3-1.3V1.5c0-1-.3-1.2-1.3-1.2h-30.1c-7.8,0-12.3,2.9-13.5,8.8-.3,1.3-.3,3-.3,4.1s0,2.8.2,3.9c.5,3.4,2.5,7.4,11.6,8.3,7.2.7,17.5,1.6,21,1.9,1.6.1,1.9,1.3,2,2,0,.3,0,.6,0,1.1s0,.9,0,1.6c0,.9-.5,1.4-1.7,1.4h-31.5c-1.1,0-1.3.2-1.3,1.3v6.7c0,1.1.3,1.3,1.3,1.3h31.1c7.7,0,12.7-1.3,14.1-8,.3-1.4.3-3.3.3-4.6,0-2-.1-3.8-.3-4.5-1.4-7-6.7-8.4-14.2-9.1Z"/>
  <path d="M171.1,16.6h0c-4-.4-15-1.4-18.5-1.8-1.3-.1-1.7-.9-1.8-1.7,0-.4,0-.7,0-1,0-.4,0-.6,0-.9.1-1.2.7-1.7,2-1.7s29.7,0,29.7,0c1.1,0,1.3-.2,1.3-1.3V1.5c0-1-.3-1.2-1.3-1.2h-30.1c-7.8,0-12.3,2.9-13.5,8.8-.3,1.3-.3,3-.3,4.1s0,2.8.2,3.9c.5,3.4,2.5,7.4,11.6,8.3,7.2.7,17.5,1.6,21,1.9,1.6.1,1.8,1.3,2,2,0,.3,0,.6,0,1.1s0,.9,0,1.6c0,.9-.5,1.4-1.7,1.4h-31.5c-1.1,0-1.3.2-1.3,1.3v6.7c0,1.1.3,1.3,1.3,1.3h31.1c7.7,0,12.7-1.3,14.1-8,.3-1.4.3-3.3.3-4.6,0-2-.1-3.8-.3-4.5-1.4-7-6.7-8.4-14.2-9.1Z"/>
</svg>