<?xml version="1.0" encoding="UTF-8"?>
<svg id="Layer_1" xmlns="http://www.w3.org/2000/svg" xmlns:xlink="http://www.w3.org/1999/xlink" version="1.1" viewBox="0 0 300 32">
  <!-- Generator: Adobe Illustrator 29.4.0, SVG Export Plug-In . SVG Version: 2.1.0 Build 152)  -->
  <image width="7199" height="760" transform="translate(130 -8.3) scale(0)" xlink:href="../../../../../../../Desktop/KelloggSOM_H_RGB.png"/>
  <g>
    <path d="M300,25.1c-.8-2.9-4.7-2.2-7-2.3-.6,0-1.5,0-2.1-.2-.6-.1-.8-.3-.9-.9,0-.8.2-1.5,1.1-1.6.9,0,1.9,0,2.8,0,3.2-.3,5.2-2.5,4.8-5.7.3-.2.7-.4.9-.8.2-.4.2-.8.3-1.2v-2c0-.2-.3-.2-.4-.2,0,0-.5,1-.7,1.3-1.2,1.5-3.2,0-4.7-.4-2.7-.5-6.3.8-6.6,3.9-.2,2.2.6,3.5,2.5,4.6-1.3,1-1.8,2.2-1.6,3.8.2.9.6,1.4,1.2,2.1-2.8.6-3.2,3.7-.3,4.7,2.9,1,10.1.6,10.6-3.4,0-.5,0-1.1,0-1.6ZM292.5,11.9c3.7-.6,4.1,6.5,1.3,7.3-3.9,1-4.3-6.7-1.3-7.3ZM297.5,28c-.7,2.1-5.9,2.3-7.2.7-.7-.9-.6-2.7.7-2.9.9-.2,2.4,0,3.4,0,1.4,0,3.8-.1,3.1,2.2Z"/>
    <path d="M252.3,28.6c-.6-.7-1.8-.7-2.2.2-.7,1.5,1.2,2.5,2.2,1.4.2,1-.4,1.4-1.4,1.2l-.8-.2v.3c0,0,.8.4.8.4h.7c.4-.1,1.1-.6,1.1-1v-2.6h-.4s0,.4,0,.4ZM251.4,30.3c-.5,0-1-.4-1-1s.4-1,1-1,1,.4,1,1-.4,1-1,1Z"/>
    <path d="M230,24.6c.6-.6-.9-.9-1.2-1.1-.8-.4-1.4-1.1-2-1.7-2.5-3-4.7-6.5-7.1-9.6-.3-.5.2-.9.5-1.2,1.8-1.8,4.2-4.1,6.2-5.6.4-.4,1-.7,1.5-1,.4-.2,1.7-.6,1.8-.7.2-.2.1-.6,0-.7h-7.4c-.1,0-.2.2-.2.4,0,.9,2.1.3,1.9,1.6-.2,1.4-3.4,4-4.4,5-1.1,1.1-2.1,2.3-3.2,3.2-.2.2-1,1-1.2.7V5.1c0-.3.4-1,.6-1.2.4-.3,2-.3,1.5-1.1-.2-.3-1.7,0-2,0-1.2,0-2.5,0-3.7,0-1.1,0-2.3-.1-3.4,0-.6,1.1,1.1,1,1.8,1.3.9.4,1.3,1.2,1.4,2.1-.3,4.8.4,10,0,14.8,0,.9-.3,2-1.2,2.4-.5.3-1.5.2-1.3,1.1.1.2,1.2.2,1.5.2.9,0,1.9-.2,2.8-.2,1.4,0,3.1.3,4.3.2.2,0,.4,0,.6-.2.5-.7-1.3-1-1.7-1.1-.7-.3-1.2-.8-1.3-1.5-.2-1.7.1-3.8,0-5.5,0-.4,1.4-1.9,1.8-1.9,0,0,.1,0,.2,0,2.3,2.9,4.3,6,6.5,8.9.3.4.7,1,1.1,1.2.8.3,2,0,2.8,0,.5,0,2.3.3,2.6,0Z"/>
    <path d="M15,2.8v1.2c.7.2,1.8.3,2.4.6.1,0,.7.7.7.8v13.3c-.4-.1-.7-.6-1-.9C12.9,12.8,8.8,7.6,4.4,2.6H.8c0,.3,0,.7,0,.9.3.6,1.6,1.6,2,2.3v.2c0,0,0,16.8,0,16.8L0,23.6c0,.3-.1.8.1,1h7.9v-1c0-.1-2-.5-2.4-.7-.1,0-.8-.8-.8-.8v-14l14.1,16.6h1.1s0-20,0-20l2.9-.9v-1c0,0-8,0-8,0Z"/>
    <path d="M83.9,23.7c-.3-.2-1.6-.5-2-.7,0,0-.6-.7-.6-.8-.2-2.9.2-6.1,0-9-.4-4.3-4.9-5.3-8.2-3.3l-2.4,1.5V.9s-5,1.7-5,1.7v.7c2-.2,2.2,1.7,2.3,3.2v16.3s-2.2.8-2.2.8v.9s7.5,0,7.5,0c.2-.2.1-.6.1-.8-1-.5-2.2-.4-2.8-1.6v-9.4c1.4-2.1,5.9-2.2,7.2,0,1,1.6.6,3.6.6,5.3,0,1.6,0,3.2,0,4.8l-2.1.8v.9c0,0,7.6,0,7.6,0,0-.2,0-.7,0-.9Z"/>
    <path d="M100.9,9.3v.8s2.3.8,2.3.8l-3.4,9.8-3.4-9.9,1.9-.6v-1c0,0-6.2,0-6.2,0v.9s1.1.3,1.1.3l.9,2.5-3.2,7.8-3-9.9h0c0-.1,1.9-.7,1.9-.7v-.9s-6.5,0-6.5,0v.8c1.1.1,1.4.9,1.7,1.8l4.2,12.7h1.3s4.2-9.7,4.2-9.7l3.5,9.6h1.5s4.6-12.5,4.6-12.5c.6-1.1,1.2-1.8,2.5-1.9v-.8s-5.9,0-5.9,0Z"/>
    <path d="M285.7,13.7c.5-.6.7-2.2.6-3,0-.1,0-.5-.2-.5h-.3c-.2,0-.3.6-.5.9-1.1,2-3,.5-4.5.2-2.6-.6-6.1.3-6.9,3.1-.7,2.3.2,4.3,2.3,5.3-.2.3-.5.4-.7.7-1.2,1.3-1.3,3.5,0,4.8,0,0,.5.3.4.4-3.1.8-3.1,3.9,0,4.8,3.3.9,10.3.3,10.3-4.3,0-3.6-4.4-3-6.9-3.1-.7,0-1.8,0-2.4-.2-.9-.3-.9-1.6-.3-2.2,0,0,.4-.3.5-.3.8-.1,2,0,2.9,0,3.2-.2,5.3-2.4,4.8-5.7.2-.3.6-.4.8-.7ZM277.2,25.7c.6-.1,2.3,0,3.1,0,.7,0,1.6,0,2.2.2.6.1,1.2.3,1.4,1,.7,3.1-5.5,3.5-7.1,2-.8-.8-.8-2.9.4-3.1ZM279.4,19.3c-2.9,0-3.2-5.2-1.7-6.8,1-1,2.8-.7,3.5.4,1.2,1.8,1.1,6.4-1.9,6.3Z"/>
    <path d="M191.8,23.7c-.2-.2-1.5-.4-1.9-.7-.3-.2-.5-.6-.7-.8-.6-4.3,2.3-12.8-4.3-13.2-2.3-.2-4.2,1.2-6,2.5v-2.6l-5,1.7v.8c2,0,2.3,2.2,2.3,3.7.1,2.6-.1,5.2,0,7.8l-2.2.8v.9s7.4,0,7.4,0c.2-.1.2-.7,0-.8-.1-.2-1.8-.5-2.1-.7,0,0-.6-.8-.6-.9v-9.3c2.1-2.7,7.2-2.1,7.6,1.8.2,1.8,0,4.8,0,6.7,0,.5-.1,1-.1,1.6,0,.2-1.7.7-2.1.8v.9s7.6,0,7.6,0c0-.2,0-.7,0-.9Z"/>
    <path d="M30,9c-8.4.8-9.5,13.4-1.6,15.6,6.8,1.9,12.1-4.7,9.7-11-1.2-3.3-4.7-4.9-8.1-4.6ZM30.4,23.4c-5.5-1-5.8-12.4-.6-13,7.4-.9,7.8,14.3.6,13Z"/>
    <path d="M158.8,21.8c-2.2.7-4.9,1.3-7,0-2-1.2-2.5-3.5-2.6-5.7h9.8c1.8-8.2-8.8-9.6-11.8-2.9-2.9,6.5,2.2,14.2,9.5,11,.4-.2,2.6-1.4,2.6-1.8l-.3-.6ZM151.9,10.6c1.4-.5,3.7-.2,4.2,1.4.2.6.2,1.9-.3,2.3-.3.3-.9.4-1.3.4l-5.4.2c0-1.8.9-3.8,2.7-4.4Z"/>
    <path d="M110.8,20.4c-.5-.7-1.1-2.3-1.1-3.1v-1.2h9.8c.1-1.2.2-2.4-.1-3.6-1-3.4-5.1-4.2-8.1-2.9-6.4,2.8-5.9,14.1,1.4,15.3,2.6.4,5.1-.5,7-2.3l-.2-.7c-2.9,1-6.6,1.4-8.6-1.5ZM114.8,10.6c1.4.4,2.1,1.4,1.9,2.9-.1,1.1-.7,1.3-1.7,1.4l-5.3.2c0-2.9,2.1-5.2,5.1-4.4Z"/>
    <path d="M265,11c-3.1.2-5.7,2.5-6.3,5.6-1.7,9.2,11.2,10.8,13.4,3.2,1.5-5-2-9.2-7.1-8.8ZM269.1,21.5c-.9,3.1-4.6,2.6-6.1,0-1.4-2.3-2.4-9.1,1.4-9.5,4.2-.5,5.5,6.5,4.6,9.4Z"/>
    <path d="M252.7,4.9v17.3c0,.6-.2,1.2-.8,1.4-.4.2-1.6.4-.7.9,1.1,0,2.3-.2,3.4-.2.9,0,2.4.3,3.2.2.4,0,.7-.3.4-.6-.1-.2-1.2-.4-1.5-.7-.3-.2-.5-.6-.6-1,.1-6.5-.2-13,0-19.5,0-.5.2-1,0-1.5-.5,0-.7.3-1.1.5-.4.2-.8.4-1.2.5-.5.2-2.9.8-3,1-.1.1-.1.3,0,.5.2.5,1.7,0,1.9,1.1Z"/>
    <path d="M126.8,14.6c-.6-.4-1.9-1.1-2.1-1.8-.4-2,1.6-2.6,3.2-2.4,1.4.1,2.2,1,2.4,2.4,0,.2,0,.8,0,.9h1.3s.4-3.9.4-3.9c-3.5-1.6-10-1.3-9.6,3.9.3,4.4,6.2,4.2,7.4,6.7.5,1.2,0,2.7-1.3,3-2.5.7-4.6-.9-4.9-3.4h-1.4c0,.3,0,.6,0,1,0,.6,0,1.9.2,2.5.1.5.8.8,1.3,1,3.7,1.2,9.8.2,8.9-4.9-.5-2.9-3.6-3.7-5.8-4.9Z"/>
    <path d="M248.8,23.7c-.9-.4-1.3-.8-1.4-1.8.2-6-.2-12,0-18,0-.4.3-2.3,0-2.4,0,0-.2,0-.3,0-.2,0-1,.6-1.4.8-.6.2-3.5,1-3.6,1.2,0,0,0,.2,0,.2,0,0,0,.1,0,.2.4.6,1.9,0,2,1.4v16.9c-.1.7-.2,1.2-.9,1.5-.4.2-1,0-1,.6,0,.1,0,.1.1.2.3.2,2.4,0,2.9,0,1.2,0,2.8.3,3.8.2.2,0,.4,0,.5-.2,0-.1,0-.4,0-.5-.1-.1-.7-.2-.9-.3Z"/>
    <path d="M139.6,20.5c-.2-2.9.2-5.9,0-8.8v-.3h4.9l.3-3.2h-.6c-.2.4-.3,1.1-1,1.2h-3.6c0,.1,0-3.8,0-3.8l-1.9.4-.9,3.7-2.7.3v1.2c1.1.1,2.6,0,2.8,1.5,0,.7,0,1.6,0,2.3,0,2.2-.5,5.7.1,7.8.9,3.3,4.8,2.6,7,1.1.2-.1.8-.5.8-.7l-.4-.6c-1.9,1-4.9.8-5-1.9Z"/>
    <path d="M59.7,22.3c-1.4-1.1-.9-3.4-.9-4.9,0-2,0-4,0-6h4.9l.3-3.2h-.6c-.3.4-.3,1.2-1,1.2h-3.7c0,.1,0-3.8,0-3.8l-1.9.3-.8,3.7-2.7.3v1.2c.8,0,2.4,0,2.6,1,.2,3-.2,6,0,8.9.3,5.2,5.1,4.5,8.2,2l-.3-.7c-1.3.6-3,.9-4.2,0Z"/>
    <path d="M241.1,22.1c.2-.3.6-1.1-.1-1-.4,0-1.4.9-1.9,1.1-2.9,1.4-6.1-.7-6.4-3.8,0-.5,0-1,0-1.5h.1c0-.1,8.3-.1,8.3-.1.5,0,0-1.9-.1-2.3-.6-1.6-2.1-2.9-3.8-3.3-8.4-2.1-11,12.6-2.2,13.4,2,.2,4.9-.9,6.1-2.6ZM232.9,13.5c.9-2.3,3.8-2,4.8.1.2.4.6,2.2,0,2.2h-5c-.2-.7,0-1.6.3-2.3Z"/>
    <path d="M166,12.5v-3.5c0,0,0-.1,0-.1l-4.9,1.8v.7c1.7,0,2.2,1.7,2.3,3.1v8.4s-2.1.8-2.1.8v.9c0,0,7.5,0,7.5,0,0-.2,0-.7,0-.9-.3-.2-1.6-.5-2-.7-.1,0-.6-.7-.6-.8.1-2.4-.2-5,0-7.4.2-2,2-3.2,4-3,1.2.1.8,1,1.9,1l.4-3.6c-2.8-1.1-4.8,1.4-6.3,3.4Z"/>
    <path d="M45.3,12.4v-3.6l-4.9,1.7v.8c1.9,0,2.3,2,2.3,3.5.2,2.6-.1,5.4,0,8l-2.2.8v.9s7.4,0,7.4,0c.2-.2.1-.6.1-.8-1-.5-2.3-.5-2.8-1.7,0-2.3-.2-4.7,0-7,.1-1.6,1-2.9,2.6-3.3.5-.1,1.7-.2,2.2,0,.3.2.3,1,1.1.8l.5-3.7c-2.9-.9-4.7,1.4-6.3,3.3Z"/>
    <rect x="198.6" y=".2" width=".5" height="30.6"/>
    <path d="M239.1,27.2c-.4.3-.9,1.6-1.3,1.9-.2,0-1.1-1.7-1.3-1.9-.1-.1-.3,0-.5,0v3.7h.4v-3l1.4,1.9,1.4-1.9v3h.4v-3.7c-.2,0-.3,0-.5,0Z"/>
    <path d="M259.2,28.6c-.4-.6-1.3-.7-1.8,0v-.3s-.5,0-.5,0v2.7h.4v-2c0-.2.5-.5.8-.5.3,0,.7.3.7.6v1.9h.4v-2c0-.4.9-.7,1.3-.3,0,0,.2.5.2.5v1.8h.3v-2.1c0-.8-1.6-1-2-.2Z"/>
    <path d="M209.3,27.9c.2-.7,1.4-.4,1.9,0,.7-.5-.9-.8-1.3-.7-.7.1-1.2.7-.9,1.4.4.9,2.5.4,2.1,1.6-.2.7-1.7.4-2.1,0l-.3.3c.7.7,2.7.9,2.8-.3.2-1.6-2.6-.9-2.2-2.1Z"/>
    <path d="M215.9,28.5v-1.5h-.4v3.9h.4v-2c0-.2.6-.5.8-.5.3,0,.8.3.8.5v2h.4v-2c0,0-.2-.5-.3-.5-.5-.5-1.2-.4-1.7,0Z"/>
    <path d="M247.1,28.2v.3c.7-.2,1.8-.3,1.7.7-.8-.4-2.7,0-1.9,1.2.4.6,1.4.5,1.9,0v.3s.5,0,.5,0v-1.7c0,0-.2-.6-.2-.7-.4-.6-1.4-.4-1.9-.3ZM247.3,30.2c-.3-.9,1.1-.8,1.6-.7.4,1-1.4,1.5-1.6.7Z"/>
    <path d="M220,28c-.8,0-1.5.6-1.5,1.4s.6,1.4,1.5,1.4,1.5-.6,1.5-1.4-.6-1.4-1.5-1.4ZM220.6,30.5c-1.2.6-2-1-1.3-1.8,1.2-1.1,2.5,1.1,1.3,1.8Z"/>
    <path d="M230.1,28c-.8,0-1.5.6-1.5,1.5s.7,1.5,1.5,1.5,1.5-.6,1.5-1.5-.7-1.5-1.5-1.5ZM230.1,30.6c-1.4,0-1.5-2-.3-2.2,1.5-.2,1.7,2.1.3,2.2Z"/>
    <path d="M240.7,28.3v.4c.4-.3,1.4-.4,1.6.1,0,0,.1.4.1.4,0,.2-.2,0-.2,0h-1.3s-.4.2-.4.3c-.4.4-.3,1.1.3,1.4.6.3,1,0,1.6-.3v.3s.3,0,.3,0v-2c0-.8-1.6-1-2.1-.6ZM240.9,30.4c-.1-.1-.1-.4,0-.6.2-.5,1.5-.5,1.6-.2.2.7-1.1,1.3-1.6.8Z"/>
    <path d="M223.2,28.1c-1.6.3-1.4,3,.4,2.9,2-.1,1.7-3.3-.4-2.9ZM223.3,30.6c-1.1-.1-1.1-2,0-2.1,1.5-.2,1.7,2.4,0,2.1Z"/>
    <path d="M262.1,28.7c-.8,1.6,1,2.9,2.3,1.8l-.2-.3c-.6.7-1.8.4-1.9-.6h2.3c.2-1.5-1.7-2.3-2.4-.9ZM262.4,29.4v-.2c.2-1.2,1.7-1.1,1.7.2h-1.7Z"/>
    <path d="M253.8,28.7c-.8,1.6,1,2.9,2.3,1.8l-.2-.3c-.7.7-1.8.4-1.9-.6h2.3c.2-1.5-1.8-2.2-2.5-.9ZM254.1,29.4v-.2c.2-1.2,1.7-1,1.7.2h-1.7Z"/>
    <path d="M244.2,28.5v-.3s-.5,0-.5,0v2.7h.4v-2c0-.2.6-.5.8-.5.3,0,.8.3.8.5v2h.4v-2s-.2-.5-.3-.5c-.4-.4-1.3-.4-1.7.1Z"/>
    <path d="M267.4,28.3c-.5-.4-1.2-.3-1.6.2v-.3s-.5,0-.5,0v2.7h.4v-2c0-.2.6-.5.8-.5.3,0,.8.3.8.5v2h.4v-2c0,0-.3-.5-.4-.5Z"/>
    <path d="M214.4,28.8l.3-.3c-.8-.8-2.3-.5-2.5.7-.2,1.5,1.5,2.4,2.5,1.2l-.2-.2c-1.2,1.1-2.6-.6-1.6-1.6.4-.4,1.1-.3,1.5.1Z"/>
    <path d="M232.8,27.7c.1-.5.4-.4.9-.4v-.3c-.9-.1-1.3.2-1.3,1.2h-.4s0,.3,0,.3h.4v2.4h.4v-2.4h.8v-.3c-.4,0-1,.2-.9-.4Z"/>
    <path d="M270.1,28.5v-.3s-.8,0-.8,0v-.8c0,0-.4,0-.4,0v.8c0,0-.5.1-.5.1v.3s.4,0,.4,0v2c0,.4,1,.5,1.2.3v-.3c-.2.2-.9,0-.9-.3v-1.7h.9Z"/>
    <rect x="225.8" y="27" width=".4" height="3.9"/>
  </g>
</svg>