<?xml version="1.0" encoding="UTF-8"?>
<svg id="Layer_1" xmlns="http://www.w3.org/2000/svg" version="1.1" viewBox="0 0 300 39">
  <!-- Generator: Adobe Illustrator 29.4.0, SVG Export Plug-In . SVG Version: 2.1.0 Build 152)  -->
  <path d="M34.3,5.3v-1.9h-10v1.9c-.1,0,1.9.3,1.9.3l1.8,2.1v20.7h-.3L7.5,3.2s-2.2.1-3.7.1-3.7-.1-3.7-.1v1.8c1.9.1,3.7.7,3.7,3.1v27l-3.4.7v1.9h10.1v-1.9c.1,0-1.9-.3-1.9-.3l-1.8-2.1V11h.1l22.1,26.9h1.9V6.1l3.4-.7Z"/>
  <path d="M125.4,33.5v-12.4c0-6.3-4-8.1-8.2-8.1s-8.5,4-8.5,4v-7.3c0-3.3.1-7.3.3-8.8l-.6-.6-7.8,2.7v1.2c2.5,0,3.7,1.9,3.7,5.8v24.9l-3.4.9v1.9h11.3v-1.9c.1,0-1.8-.3-1.8-.3l-1.8-2.1v-14.5s2.1-2.4,5.4-2.4,7.2,1.2,7.2,7v11.3l-3.4.9v1.9h11.3v-1.9c.1,0-1.9-.3-1.9-.3l-1.8-2.1Z"/>
  <path d="M69.9,18.8c0-2.4,0-4.5.1-5.4l-.4-.4-7.5,2.8v1.2c2.8,0,3.7,2.5,3.7,6.9v11.2l-3.4.9v1.9h11.2v-1.9c.1,0-1.9-.3-1.9-.3l-1.8-2.1v-10.6c0-3.4,2.7-5.4,5.7-5.4s2.1.4,2.7.7l.6-.4,1-4.5s-.9-.3-2.7-.3c-3.6,0-7.3,5.7-7.3,5.7"/>
  <path d="M47.9,36.1c-5.2,0-8.1-5.1-8.1-11s2.2-9.9,6.7-9.9,8.2,4.9,8.2,10.9c0,6-2.4,10-6.9,10M47.2,13.1c-6,0-12.2,4.3-12.2,12.8s6,12.5,12.2,12.5,12.4-4.8,12.4-13-6.1-12.4-12.4-12.4"/>
  <path d="M296.4,33.5v-12.5c0-6.1-4-7.9-8.1-7.9s-8.4,4-8.4,4c0-1.5,0-3,.1-3.7l-.4-.4-7.6,2.8v1.2c3,0,3.7,2.7,3.7,7.3v10.7l-3.4.9v1.9h11.3v-1.9c.1,0-1.9-.3-1.9-.3l-1.8-2.1v-14.3s1.8-2.4,5.1-2.4,6.9,1.2,6.9,7v11.3l-3.4.9v1.9h11.3v-1.9c.1,0-1.9-.3-1.9-.3l-1.5-2.2Z"/>
  <path d="M158.1,15l3.6,1.2-5.8,15.8-5.1-15.8,3.7-1.2v-1.3h-11.2v1.5c1.9,0,3.1,1.2,3.1,2.8s-.1,2.2-.9,4.2l-4.2,10-4.8-15.8,3.7-1.3v-1.3h-11.6v1.5c1.6,0,2.8,1.3,3.7,3.9l7,19.3h1.6l6.9-16.6,6,16.6h1.6l7.9-20.4c.1-.3.3-.7.4-.9l1.6-1.3c.4-.1,1-.1,1.9-.3v-1.5h-9.4s0,1.2,0,1.2Z"/>
  <path d="M178.4,15.5c3.3,0,4.9,1.6,4.9,3.9v1.5l-1.2,1.6h-2.2c0,.1-7.8.4-7.8.4.1-4.3,2.8-7.5,6.3-7.5M181,34.7c-4.8,0-8.8-3-8.8-10.3h15.4s.3-1.3.3-2.8c0-5.7-3.9-8.7-8.8-8.7s-11.5,5.4-11.5,12.8,5.4,12.5,11.3,12.5,7.9-2.7,9.1-3.9l-.4-1c-.1.1-3.6,1.3-6.6,1.3"/>
  <path d="M239.7,15.5c3.3,0,4.9,1.6,4.9,3.9v1.5l-1.2,1.6h-2.2c0,.1-7.8.4-7.8.4.1-4.3,2.8-7.5,6.3-7.5M242.4,34.7c-4.8,0-8.8-3-8.8-10.3h15.4s.3-1.3.3-2.8c0-5.7-3.9-8.7-8.8-8.7s-11.5,5.4-11.5,12.8,5.4,12.5,11.3,12.5,7.9-2.7,9.1-3.9l-.6-1c0,.1-3.4,1.3-6.4,1.3"/>
  <path d="M202.7,24l-2.4-1.2c-4.2-2.1-4.8-2.8-4.8-4.5s1.9-3,4.2-3,4.8,1.3,4.8,5.2h2.1l.7-6.1s-2.8-1.3-6.6-1.3-8.7,2.2-8.7,7,1.9,5.4,5.7,7.3l2.7,1.3c1.9,1,3.6,2.1,3.6,4s-1.2,3.7-4.2,3.7-5.2-2.2-6-5.5h-2.2l.3,4.9c0,1,1,1.6,1.3,1.8,1.5.6,3.9.9,6.6.9,4.2,0,8.5-2.5,8.5-6.9-.1-3.7-1.5-5.5-5.7-7.8"/>
  <path d="M95.1,35.2c-2.4,0-4.5-1.3-4.5-4.5v-13.7h7.9v-.9h.1l.4-4.3h-1c0-.1-.7,1.5-.7,1.5l-.3.4h-6.1c0,.1,0-5.5,0-5.5l-.3-.4-2.7.4-1.3,6-4.3.4v2.1h3.3l1,1.2v.3c0,3.3-.1,10.9-.1,13.1,0,5.4,2.1,7.3,5.4,7.3s5.4-1.2,7.5-3l-.6-1.2c0-.1-1.3.7-3.6.7"/>
  <path d="M223.3,35.2c-2.4,0-4.5-1.3-4.5-4.5v-13.7h7.9v-.9h.1l.4-4.3h-1c0-.1-.7,1.5-.7,1.5v.4c-.1,0-6.4.1-6.4.1v-5.7l-.3-.4-2.7.4-1.3,6-4.3.4v2.1h3.3l1,1.2v.3c0,3.3-.1,10.9-.1,13.1,0,5.4,2.1,7.3,5.4,7.3s5.4-1.2,7.5-3l-.6-1.2c.1-.1-1.3.7-3.6.7"/>
  <path d="M259.7,18.8c0-2.4,0-4.5.1-5.4l-.4-.4-7.5,2.8v1.2c2.8,0,3.7,2.5,3.7,6.9v11.2l-3.4.9v1.9h11.2v-1.9c.1,0-1.9-.3-1.9-.3l-1.8-2.1v-10.6c0-3.4,2.7-5.4,5.7-5.4s2.1.4,2.7.7l.6-.4,1-4.5s-.9-.3-2.7-.3c-3.6,0-7.3,5.7-7.3,5.7"/>
</svg>