<?xml version="1.0" encoding="UTF-8"?>
<svg id="Layer_1" xmlns="http://www.w3.org/2000/svg" version="1.1" viewBox="0 0 300 57">
  <!-- Generator: Adobe Illustrator 29.4.0, SVG Export Plug-In . SVG Version: 2.1.0 Build 152)  -->
  <path d="M75,2c-1-.5-5.2-1.7-6.2-1.6-2.5.1-7.8,3.9-9.5,5.8-3.6,4-3.4,7.6-5.7,11.5-.6,1-1.6,1.7-2.2,2.9-4.6,8-6.9,19.1-3.3,27.8,4.3,10.5,15.8,5.2,21.6-.9,8.9-9.4,13.2-25.3,9.9-37.8-.6-2.3-2.5-6.5-4.7-7.7ZM75.3,26l-.3,1.2c-.2.8-.5,3-.6,3.2-1.9,7.7-4.8,13.4-10.7,18.8-3,2.7-6.4,6-9.8,1.9-2.6-3-3-8.5-2.7-12.4,0-1.1.9-7.7,2-7.7,2.2,3,3,9.4,8.2,7.2.7-2.6-1.9-3.2-3.3-4.9-1.9-2.4-2-4.5-1.8-7.5.4-7,3.3-14.7,8.1-19.9,5.1-5.5,10-4.4,11.2,3.2,0,0,.8,3.3.6,5.4v2.4c.4,3.2-.9,9-.9,9Z"/>
  <path d="M223.5,31c-.4-1-2.3-3.8-2.3-4.3-.1-1.4,1.9-1.5,2.8-2,2.2-1.1,4.4-2.5,6.1-4.3,3.3-3.5,7.9-11.6,4.5-16.1-3-4.1-9.5.2-12,3-1,1.1-4.2,6.2-4.8,6.3l-.8-3.3-2.9.9c-.3,2.1-.2,4.4-.5,6.4-.8,6.7-3,13.9-5.4,20.2-.6,1.5-4.9,10.4-4.5,11,4.8,1.4,6.3-1,7.7-5,1.2-3.3,2.3-7.7,3-11.1.5-2.2.6-10.7,3.9-5.2,3.2,5.5,3.9,13.8,5.7,20,.5,1.8,1.7,6.2,2.7,7.6.9,1.3,6.6,2.3,7.4,1.1.6-1-2.6-4.4-3.3-5.5-4-6.4-4.5-13.1-7.2-19.6ZM216.2,23.2c3.3-6,5.8-12.5,10.9-17.3,1.6-1.5,3.1-3.3,4.9-.6,3.7,5.5-4.8,15.2-9.3,18-1.4.8-7.2,2.9-6.5-.1Z"/>
  <path d="M299.7,32.9c-1,0-3,2.5-3.8,3.2-2.5,2.1-5.1,4.1-8,5.6-5-2.1-1.1-8.1-1-11.6,0-2.3-1.6-1.5-3.1-1-2.5.9-5.3,3-6.6,5.4-.9.6-1.2-2.3-1.6-2.6-.3-.2-2.2-.5-2.3-.4,0,1.2,0,3.1-.4,4.2-.7,1.9-7.5,8-9.4,8.4-1.2.2-3-1.3-3.1-2.5-.1-2.2,3.7-7.4,3.9-10.3,0-1.1-2.9-1.3-3.8-.5-.8.6-1.9,3.8-2.6,4.9-1.6,2.6-6.3,8-9.1,9-3.2,1.1-4.4-2-3.8-4.8.4-2.1,3.9-8.5,3-9.9-.8-1.3-2.5-.5-3.3-.6-.5,0-1-.6-1.6-.8-3.4-1.1-7.1.6-8.7,3.8-.5,1.1-2.3,6.8-2.3,7.7.2,1.6,1.6,4.1,3.1,4.8,4.3,1.9,4.1-2,6.7-4,1.2,1.8.2,4,2.5,5,3.2,1.4,6.5.6,9.1-1.6.8-.7,2.8-3.3,3.5-3.4.8-.1,1.7,2.4,2.4,3,1.6,1.5,4.5,1.5,6.5.7,2.1-.8,3.3-3,5.4-3.2v2.1c4.5,2.2,4.5-2.1,6.1-5.2.6-1.2,3.2-5.5,4.6-5.4,3.1.3-.8,7.2,2.7,9.1,1.3.7,3.6,1.1,5.1.8,2.2-.5,8.7-5.9,9.8-8,.2-.3,1-1.9.2-1.9ZM242.4,31.7c-.5,1.8-4,7.4-5.4,8.6-.3.2-.9.7-1.2.7-1.9-1.2-1.5-2.3-.9-4.2.8-2.5,4.3-9.6,7.5-6.3.3.4.1.8,0,1.2Z"/>
  <path d="M113.5,36.8c-2.4,2.5-6.2,7.7-9.6,8.8-1.4.5-2.8,0-3.4-1.3-1.2-2.5,5-9.1,3.6-11.2-.5-.8-3.6-.7-4.2,0-.4.5-.6,2.4-1,3.2-1.2,2.3-8.8,8.9-11.3,9.8-4.3,1.5-4.6-5.9-2.9-8.4,5-6.8,12.2-13.4,15.5-21.3,1-2.3,2.6-6.5.4-8.5-3.7-3.5-8.9,3.4-10.7,6.1-3.5,5.5-6.2,13.1-7.6,19-.1.5-.5,3.8-.6,4.5-.7,8.5.3,13,9.5,8.3,1-.5,5.3-3.7,5.7-3.7.9,0,1.2,1.9,1.7,2.6,3.1,4.5,10.7-.6,13.3-3.6.3-.3,3.3-4.4,1.7-4.4ZM88.1,27.2c1.2-4.5,5.4-14.1,8.5-17.4.8-.9,1.2-.9,1.3.4.4,3.5-5.5,14.2-7.9,17.1-.5.7-1.1,1.6-2.1,1.4,0-.5,0-1,.1-1.5Z"/>
  <path d="M172.4,33c-.9.9-2.3,4.5-3.3,5.9-1.2,1.9-6,7.9-8.1,8.2-.8,0-1.8-.5-2.1-1.2-.9-1.9,4.6-7.6,3.8-10.2l-4.8-.3c-.7-.8,6.5-8.2,1.6-9.3-4.6-1-9.2,3.5-8.2,8.2.3,1.1,2,1.8,1.7,2.7-3.2,3.6-9.1,9.4-14.4,7.6-.7-.2-2.2-1.1-1.8-1.9,2.7-1.3,12.5-11.5,4.1-10.6-7.8.9-11.6,16-.9,15,3.5-.3,9.2-3.9,11.8-6.3,1-.9,3.3-4.3,4.4-4.2,2.3.2,0,5.2,0,6.7-.2,2.9.2,4.7,3.5,5,3.4.2,6.3-2.3,8.3-4.7,1.1-1.3,6.7-9.7,6-10.7-.5,0-1-.3-1.4,0ZM137.1,39c.3-.8,2.8-5.5,3.5-5.5,2.3,1.1-2.2,6.6-3.3,6.3-.5-.1-.3-.5-.2-.8ZM154.9,32.9c-1.4-.9,2-8,3.6-4.4-.4.8-2.4,5.2-3.6,4.4Z"/>
  <path d="M35.2,12.3c-1.9-2.7-7,1-9,2.4-.8.6-3.1,3-3.7,2.8-.6-.1-2.8-4.3-3.5-5.2-2.1-2.7-6-6.1-9.1-7.4-5.3-2.4-5.4-.6-7.1,4.1C0,15.9-1.2,20.7,1.4,28c1.5,4,4.9,8,9.4,8.2l-3.5-1.5c-3.4-2.3-4.9-6.3-5.9-10.1l.7-.4c1.4.5,2.7,1.4,4.1,1.9,1.6.6,5.4,1.6,6.6,2.4.9.6,2,4,2.3,4l.8-.3c0,0-.5-.8-.6-1.1-.2-1,3.8-6.5,4.4-8.1.1-.3.2-.8-.2-.7-.6,1-3.6,6.5-4.4,6.6-1.2.2-2.6-5.3-2.8-6.4,1.2-2.4,3.1-4.7,3.3-7.5-.6-2.1-2.1,2.5-2.2,2.8-.2.4-.7,2-1.2,1.8-1.1-.4-3.5-7-3.9-8.4l.5,3.6c-.7.7-3.7-2.3-4.8-1.7.8,1.9,4.5,2.4,5.4,3.7.3.5,2.2,6.7,2.4,7.6.1.6,0,1.3,0,1.9-.8.8-7.3-3.1-8.4-3.3-.6,0-1,.2-1.5.2-1.1,0-.8-3.1-.7-4,.2-2.6,2.3-12.3,4.1-14,1.6-1.6,3.4-.4,5.2.6,6.1,3.3,12.2,12.9,12.4,19.8.1,3.4-4.3,9.5-7.8,10.4v.4c2.9,4.3,3.9,7.6,9.8,8,11.8.8,14.5-11.9,13.4-21.2-.3-2.1-1.9-9.3-3-10.8ZM36.9,34.3c-2.9,11-16.3,13.3-20.2,1.8,3.4-1.8,5.6-4,6.8-7.6,1.1-3.2,0-5.6-.4-8.8,3-3,6.3-5.4,10-7.5.7-.2,1.3.7,1.6,1.3,2.4,4.4,3.4,16.2,2.1,20.9Z"/>
  <path d="M133.9,28.7l-12.4,15.7-.9-.3c-.3-5.9.8-18-8.4-16.9-3.5.4-2.9,4.4-.4,3.8,1.5-.3,2.1-2.6,3.8-.6,2.5,2.8,1,9.9,1.2,13.5,0,1.3.5,5.1,2,5.3,2-.3,3.8-2.1,5.1-3.5,2.3-2.4,4.2-5.2,6.3-7.7,2.3-2.6,5-4.8,6.9-7.9,3.7-5.9-.2-5-3.3-1.5Z"/>
  <path d="M192.6,40c-2.2.5-9.8.6-8.7-3,.8-2.7,8.8-2,6.9-5.9-.5-1.1-4.1-1.7-2.8-3.3,1.3-1.6,4.8.7,6.1.4,1.2-.3,1.6-1.8.8-2.8-.6-.8-3-.8-3.2-1.5.6-1.5,2.5-5.8-.2-6.1-2.4-.3-2.3,4.3-2.1,6-.5,1.2-5.2.6-5,5.3,0,1.2.6,1.7.9,2.7-2.5,1.8-4.7,3.1-4.5,6.7.2,4.2,3.2,3.7,6.2,5v4.2c3,2.3,2.7-4.1,3.1-4.4,1.9-.1,7.8,0,6.9-3.2-.6-2.2-3.2-.4-4.5,0Z"/>
  <path d="M104.3,28.3c2.2-.3,4-4,2.1-5.6-.3,0-.5,0-.8,0-4,.4-4.1,6-1.4,5.6Z"/>
  <path d="M266.6,18.8c-2.7-.3-5,2.3-3.4,4.8,2.4,1.5,4.7-2.8,3.4-4.8Z"/>
  <path d="M32.6,35.7c-.6.8-2,2-2.9,2.5l-6.4,1.9c5.3,1.2,10.3-1.5,11.4-6.9-.8-.7-1.7,2-2.1,2.6Z"/>
</svg>