<?xml version="1.0" encoding="UTF-8"?>
<svg id="Layer_1" xmlns="http://www.w3.org/2000/svg" version="1.1" viewBox="0 0 400 134">
  <!-- Generator: Adobe Illustrator 29.0.1, SVG Export Plug-In . SVG Version: 2.1.0 Build 192)  -->
  <defs>
    <style>
      .st0 {
        fill: #fff;
      }
    </style>
  </defs>
  <path class="st0" d="M67.01.29C30.25.29.34,30.19.34,66.94s29.91,66.68,66.67,66.68,66.66-29.9,66.66-66.68S103.76.29,67.01.29ZM67.01,106.13c-21.72,0-39.32-17.6-39.32-39.32s17.6-39.31,39.32-39.31,39.32,17.6,39.32,39.31-17.6,39.32-39.32,39.32Z"/>
  <polygon class="st0" points="364.33 4.65 340.22 40.88 316.13 4.65 280.12 4.65 324.24 68.47 324.24 129.26 356.24 129.26 356.24 68.47 400.34 4.65 364.33 4.65"/>
  <polygon class="st0" points="258.94 4.65 226.93 4.65 226.93 129.26 295.11 129.26 295.11 102.49 258.94 102.49 258.94 4.65"/>
  <polygon class="st0" points="178.4 4.65 146.39 4.65 146.39 129.26 214.56 129.26 214.56 102.49 178.4 102.49 178.4 4.65"/>
  <path class="st0" d="M93.41,73.45c-1.67-.72-3.73.07-4.46,1.74-3.82,8.71-12.43,14.33-21.94,14.33s-18.11-5.62-21.94-14.31c-.72-1.67-2.77-2.49-4.46-1.74-1.7.74-2.48,2.75-1.74,4.45,4.91,11.15,15.94,18.35,28.13,18.35s23.23-7.2,28.14-18.36c.75-1.72-.03-3.71-1.74-4.47Z"/>
</svg>