<?xml version="1.0" encoding="UTF-8"?>
<svg id="Layer_1" xmlns="http://www.w3.org/2000/svg" version="1.1" viewBox="0 0 300 60">
  <!-- Generator: Adobe Illustrator 29.4.0, SVG Export Plug-In . SVG Version: 2.1.0 Build 152)  -->
  <path d="M15.3,15.8c3.8-3.8,12.7,1.1,13.7-4.9.2-1.4.2-5.6,0-7-.2-1.9-1.8-3.3-3.7-3.5-1.5-.2-6.4-.2-7.7.3-4.9,1.9-.3,9.8-4.1,13.5-3.5,3.3-12.2-1.2-13.4,4.4-.3,1.2-.2,5.9,0,7.3.5,4.9,7.1,3.3,10.4,3.5,2.3.2,4.5,2.1,4.8,4.5.2,1.7.2,5.5,0,7.2-.2,2.1-2,4.3-4.1,4.6-3.4.4-10.6-1.6-11.1,3.7C0,50.9-.1,55,0,56.4c.3,1.9,2.1,3.1,3.9,3.2,1.5,0,6,.2,7.3-.3,1.2-.4,2.4-1.7,2.6-2.9.4-2.7-.5-7.8,1-9.8,3.7-4.8,12.3.7,14-5,.4-1.3.3-6,.2-7.4-.5-5.1-7.2-3.4-10.7-3.7-1.9-.2-3.6-1.7-4.2-3.5-.5-1.4-.5-6.7-.3-8.4.1-1,.7-2.2,1.4-3v.2Z"/>
  <path d="M225.8,8.6h-6.4l-.3.3v23.5l-14.7-23.5c0-.1-.4-.4-.6-.4h-5.9l-.2.2v38.9l.2.2h6.6l.4-.4v-23.5l.4.2,14.5,23.3c.2.3.5.4.9.4,1.1,0,4.1,0,5.1,0,.2,0,.4,0,.6-.2V9.1c0-.5-.2-.5-.6-.6h0Z"/>
  <path d="M57.6,25.7c-4-1-12.2-.3-11.9-6.3.4-5.8,8.2-5.9,12.2-4,1,.5,1.8,1.4,2.8,1.8l4-3.8c.5-.7-.6-1.3-1.1-1.7-3.7-3.1-8.6-3.8-13.3-3.4-13.5,1.2-15.8,19.1-2.7,22.3,4.6,1.1,12.5,0,11.9,6.8-.6,6.5-11.5,5.3-15.5,2.5-.4-.3-1.5-1.4-1.9-1.4s-.4.2-.6.4c-.4.3-3.3,3.1-3.5,3.5-.4.7.7,1.6,1.2,2.1,7.2,6.4,25.6,5.7,27-5.9.8-6.6-2.1-11.2-8.6-12.8h0Z"/>
  <path d="M100.2,21.6c0-.4.2-1.8-.2-2h-5.9l-.2.2v38.9c.3.3.5.4.9.4.7,0,5,0,5.4-.2,0,0,.3-.3.3-.4v-12.5c4.6,3.6,12.6,2.8,15.3-2.8,2.1-4.4,2.2-14.8,0-19.2-2.8-5.6-10.9-6.5-15.5-2.6v.2ZM110.7,36.5c-.3,3.9-2,6.5-6.3,5.8-4.5-.7-4.2-7.8-4-11.2.2-2.6,1.1-5.4,4.1-5.8,6.8-.9,6.5,6.5,6.2,11.3h0Z"/>
  <path d="M69.8,22.2c-.4.3-1.1,1-1.2,1.5,0,.2,0,.3.2.5.2.3,3.5,3.4,3.8,3.5.4,0,1.5-1.3,2-1.6,2.1-1.3,7.5-1.6,8.9.8.2.2.6,1.3.6,1.5v2.7c-5.1.2-11.6-1-15.2,3.6-2.4,3.1-1.8,8.8,1.1,11.5,3.4,3.1,10.9,3.3,14.3.2,0,.4-.2,1.7.2,1.8h5.9l.2-.2v-20c0-9.3-15.4-10.8-21-5.6l.2-.2ZM84.2,39.2c0,.4-.5,1.6-.8,2-1.5,1.9-6.5,2.1-8.3.7-1.5-1.2-1.5-4,0-5.1.3-.2,1.7-.8,2-.8h7.2v3.2h0Z"/>
  <path d="M141.5,19.3c-11.6-.7-15.2,11.3-12.4,20.6,2.3,7.6,10.4,10.2,17.5,7.6,1.1-.4,5.1-2.7,5.4-3.7,0-.2,0-.3-.1-.5-.3-.4-3.6-3.5-3.9-3.5-1.7,1.4-3.2,2.6-5.5,2.8-4.7.4-7.3-1.9-7.7-6.6h17.4c.2,0,.4-.5.4-.7,1-7.4-3-15.4-11.2-15.9h.1ZM134.8,31c0-8.1,11.2-8.2,11.2,0h-11.2Z"/>
  <path d="M286,19.8c-9.2.9-10.5,10.3-9.7,17.9.8,7.3,5.8,11.4,13.1,10.8,5.9-.5,9.6-4.6,10.3-10.3,1.3-10.2-1.6-19.6-13.7-18.3h0ZM292.9,36.2c-.2,2.7-1.1,5.7-4.2,6-4.7.5-5.5-3.2-5.7-7-.1-3.6,0-9.1,4.8-9.3,5.5-.2,5.4,6.4,5.2,10.3h0Z"/>
  <path d="M161.4,21.6c-.2-.2.3-1.7-.2-2h-5.9l-.2.2v27.9l.2.2h5.9l.3-.3v-18.4c1.3-5.7,9.7-5.6,10.2.6.4,5.5-.4,11.7,0,17.2,0,.3,0,.6.2.9h6.2l.2-.2v-19.3c0-.6-.4-2.2-.6-2.9-2.2-6.8-11.1-8.2-16.2-4h0Z"/>
  <path d="M189.2,41.6l-.5-.8v-15.4h4.7s.4-.2.4-.3c.4-.6.1-4.1,0-5h-5.1v-7.8c0-.2-.4-.6-.7-.5-1.6.6-4,.8-5.5,1.4-.2,0-.3.2-.5.4v6.5h-2.9l-.2.2v4.6l.4.4h2.7v15.9c0,2.8,3.7,6.7,6.5,6.7h5.2c.1-1,.4-4.9,0-5.5-.5-.7-3.5.3-4.6-.8h.1Z"/>
  <path d="M249.2,20.1v-8c0-.3-.6-.2-.9-.2-.7.1-4.6,1.1-5.2,1.4-.1,0-.3.1-.4.3v6.5h-2.7s-.3.2-.4.2v4.7l.2.2h2.9v15.8c0,3.3,3.7,7,7,7h4.5l.2-.2v-5.1l-.2-.2h-3.1c-.6,0-1.9-1.3-1.9-1.9v-15.3h5l.2-.2v-4.6l-.2-.2h-5v-.2Z"/>
  <path d="M264.2,22.3c0-.5.2-2.3-.2-2.5h-5.9l-.2.2v27.7l.2.2h5.9l.2-.2v-18.3c0-.1.5-1,.6-1.2,1.3-2.1,4.2-3,6.4-1.8.6.3,1.4,1.4,2,1.3l4.8-4.8c-3.1-4.1-10.1-3.9-13.7-.6h0Z"/>
  <rect x="119.6" y="19.6" width="6.6" height="28.4"/>
  <rect x="230" y="19.8" width="6.4" height="28.2"/>
  <rect x="119.4" y="9.4" width="7" height="5.8"/>
  <rect x="229.8" y="9.5" width="6.8" height="5.6"/>
</svg>