<?xml version="1.0" encoding="UTF-8"?>
<svg id="Layer_1" xmlns="http://www.w3.org/2000/svg" version="1.1" viewBox="0 0 300 50">
  <!-- Generator: Adobe Illustrator 29.4.0, SVG Export Plug-In . SVG Version: 2.1.0 Build 152)  -->
  <polygon points="88 7.3 88 14 99.2 14 99.2 42.7 107.2 42.7 107.2 14 118.4 14 118.4 7.3 118.4 7.3 88 7.3"/>
  <path d="M138.9,6.3c-10.4,0-18.7,8.4-18.7,18.7s8.4,18.7,18.7,18.7,18.7-8.4,18.7-18.7-8.4-18.7-18.7-18.7ZM148.1,30.7c-1.2,3.1-4,5.4-7.4,6-.6.1-1.2.2-1.8.2-.6,0-1.3,0-1.9-.2-3.3-.6-6.1-2.9-7.3-6-.7-1.8-1.1-3.7-1.1-5.7,0-1.9.4-3.9,1.1-5.7,1.2-3.1,4-5.4,7.3-6,1.2-.2,2.5-.2,3.7,0,3.3.6,6.1,2.9,7.3,6,1.4,3.7,1.4,7.7,0,11.4Z"/>
  <polygon points="157.8 7.3 157.8 7.3 157.8 7.3 157.8 7.3"/>
  <polygon points="175.9 22.5 167.2 7.3 157.8 7.3 171.9 29.6 171.9 42.7 179.9 42.7 179.9 29.6 194 7.3 184.7 7.3 175.9 22.5"/>
  <path d="M212.9,6.2c-10.3,0-18.7,8.4-18.7,18.7,0,10.3,8.4,18.7,18.7,18.7,10.3,0,18.7-8.4,18.7-18.7h0c0-10.4-8.4-18.8-18.7-18.7ZM222.1,30.7c-1.2,3.1-4,5.4-7.3,6-.6.1-1.2.2-1.8.2h0c-.6,0-1.2,0-1.9-.2-3.3-.6-6.1-2.9-7.3-6-.7-1.8-1.1-3.7-1.1-5.7,0-1.9.4-3.9,1.1-5.7,1.2-3.1,4-5.4,7.3-6,1.2-.2,2.5-.2,3.7,0,3.3.6,6.1,2.9,7.3,6,1.4,3.6,1.4,7.7,0,11.4Z"/>
  <path d="M285.7,7.3h-9.9l-14.3,35.4h8.9l2.9-7.8h15l2.9,7.8h8.8l-14.3-35.4ZM285.9,28.7h0s-10.4,0-10.4,0l5.2-14,5.2,14h0Z"/>
  <polygon points="263.8 7.3 233.4 7.3 233.4 14 244.6 14 244.6 42.7 252.6 42.7 252.6 14 263.8 14 263.8 7.3"/>
  <path d="M55.5,2.6C50,1,44.2.1,38.5.2c-5.8,0-11.6.8-17.1,2.4C8.7,6.7,0,15.2,0,24.9s17.2,24.9,38.5,24.9,38.5-11.1,38.5-24.9S68.2,6.7,55.5,2.6ZM38.5,3.4c12.2,0,22.2,3.5,22.2,7.9s-5.5,6-13.3,7.2h0c-1.3-8.6-4.8-14.8-8.9-14.8s-7.6,6.2-8.9,14.8c-7.8-1.2-13.3-4-13.3-7.2s9.9-7.9,22.2-7.9ZM44,18.9c-3.7.3-7.4.3-11,0,.8-5.5,3-9.4,5.5-9.4s4.6,3.9,5.5,9.4ZM5.6,24h0c0-4.2,1.6-8.2,4.5-11.6,0,.2,0,.5,0,.7,0,5.3,7.9,9.8,19,11.5v1.2c0,9.8,2.7,18.2,6.5,21.1-16.8-1-30-10.8-30-22.9ZM38.5,39.1c-3.2,0-5.8-6.2-5.9-14.1,1.9.2,3.9.3,5.9.3s4,0,5.9-.2c-.2,7.8-2.7,14.1-5.9,14.1ZM41.4,46.9s0,0,0,0h0s0,0,0,0c3.8-2.9,6.5-11.2,6.5-21.1v-1.2c11.1-1.6,19-6.2,19-11.5s0-.5,0-.7c2.8,3.2,4.4,7.3,4.5,11.6,0,12-13.2,21.8-29.9,22.9Z"/>
</svg>