<?xml version="1.0" encoding="UTF-8"?>
<svg id="Layer_1" xmlns="http://www.w3.org/2000/svg" version="1.1" viewBox="0 0 300 92">
  <!-- Generator: Adobe Illustrator 29.4.0, SVG Export Plug-In . SVG Version: 2.1.0 Build 152)  -->
  <path d="M128.1,31.8c-1.8.6-3.8,3.1-3.3,6.9.3,1.7,1.2,4.1,1.5,5.1.6,1.8,1.3,4.7.4,10.6-1.1,7.4-3.9,12.6-10.1,12.5-4.1,0-7.9-3.2-8.3-11.4-.5-7.8.1-11.1,1.4-17.9.6-3.1.8-5.7-1.7-5.3-3.2.7-4.1,1.9-5.1,5.5-1.9,6.6-2.3,11.3-2.1,16,.5,9.9,4.9,16.5,15,16.7,11.7.2,16.4-11.1,16.8-20.5.3-6.9.2-11.7-.8-15.3-.8-2.4-1.6-3.4-3.7-2.9Z"/>
  <path d="M245.4,45.4c-2.6,0-4.6,3.1-4.6,6.7s.8,3.5.8,5.8-1.6,7.1-3.5,7.1c-4.6,0-5.7-18.1-8.5-18.1s-2.4,1.9-2.9,3.3c-2.5,7.2-5.9,15.1-12.5,15.1s-2.7-.6-3.5-1.4c4.6-2.9,7.7-5.8,7.7-9.5s-2.1-7.8-5.6-7.8-9.6,6.7-9.6,14.8.2,2.5.5,3.3c-.3.5-1.7,1-2.9,1-3.1,0-6.4-3.3-6.7-5.2,2.3-5,6.9-10.7,6.1-24.6-.3-5.3-3.1-8.5-6.5-8.3-4.7.3-8.9,10.7-8.3,21.8.1,2.2,1.1,8.1,2.4,11.1-2.3,3.7-5.3,4.3-7,4.3s-6.1-1.4-6.1-7c1.7-4.7.6-10.1-1.8-10.1-3.4,0-4.6,6-4.7,10.3-1.1,2.5-2.4,4.6-4.1,4.6-5.1,0-5.6-16-9.4-16s-8.4,10.2-10,10.2-1.7-2.9-2.3-5.7c-.2-.8-.3-1.7-.8-1.8-1,0-2.3.8-2.8,2-.5,1.2-1.3,5-2.2,8.5-.6,2-1.9,6.2-2.1,7.8-.1,1.1.4,2,1.5,2.1,2.8.3,13.3-12.6,16.6-12.6s5.3,12.7,10.1,12.7,5.5-7.3,7.2-7.3,2.9,7.3,8.3,7.3,9.1-4.5,11.2-4.5,3.5,4.3,7.8,4.3,4.9-.8,7.7-2.6c1.6,1.8,3.5,2.7,5.4,2.7,11.3,0,14.5-10.2,16.8-10.2s1.6,10.1,7.4,10.1,13-13.6,13-20.9-.6-3.5-2.2-3.5ZM192.5,55.1c-.7,0-1.4-.7-1.7-5.6-.5-7.5.6-14.7,2.9-14.8,1.7-.1,2.5,1.3,2.7,4.5.4,7.1-2.6,15.9-3.8,15.9ZM209.1,61.9c-.5-.6-1.5-1.9-1.5-4.8s2.4-4.8,3.4-4.8,2.3,1.6,2.3,3.5-.9,5-4.2,6.1Z"/>
  <path d="M293.9,44.8c-10.8,0-13,16.1-14.7,16.1-2.9,0-1.9-12.9-4-12.9-1.8,0-2.7,2.2-3,3.2-1.4,5.9-5.7,14.5-12.1,14.5s-4.1-.6-4.1-2.1,10.1-1.8,10.1-9.5-2.6-6.9-6.5-6.9-10.2,5.6-10.2,13.4,4.3,9.3,8.7,9.3c7.5,0,12.1-6.2,14.5-11.3,1.1,3.4,1.8,11.3,4.7,11.3s1.9-.6,3.3-3.7c3.4-7.7,6.7-16.5,11.3-16.5s.7,3.1,4.8,3.1,3.3-1.6,3.3-3.4c0-2.6-2.4-4.7-6.1-4.7ZM258,51.9c2.4,0,3.1,2.8,2.5,4.6-.6,1.7-2.6,3.7-5.8,4.2-.7-1.7-1-8.8,3.3-8.8Z"/>
  <path d="M173.7,38c2.5,0,4.3-2.9,4.1-5.5-.2-1.8-1.6-3.1-3.5-3.1s-4.2,2.3-4,5.1c.1,1.9,1.3,3.4,3.4,3.4Z"/>
  <path d="M79.3,24.4c3.5,0,6.7-2.8,6.7-5.2s-.5-2.1-1.9-2.2c.2.3.3.5.3,1.1,0,1.8-2.8,3.9-5.9,3.9s-1.4.8-1.4,1.2c0,.9.9,1.3,2.2,1.3Z"/>
  <path d="M82.9,17.9c0-.5-.2-.9-1-.9-1.1,0-2.6,1-4.1,1s-1.1,0-1.6-.2c.6.4.5,1.4.8,2,.4.7,1,.7,1.5.7,1.4,0,4.4-1.2,4.4-2.7Z"/>
  <path d="M85.6,33.2c.9,0,1.2-4.2,1.2-7.4s.1-3.3-.9-3.6c-1.5,3.1-5.6,3.8-6.9,3.6.4,3.2,5.3,7.5,6.6,7.4Z"/>
  <path d="M5.3,59.3c.8,1.7,1.7,1.9,3.8,2-1.3-1.1-1.5-2.1-1.5-3,0-1.8,1.8-5,2.9-7.2,1.5-2.9,3.2-7.1,3.2-8.9s-.3-1.1-.6-1.1-.8.5-1.1,1.4c-.5,1.8-2.2,5.4-3.1,5.4s-.2-.2-.2-.4c0-1.3,2-5.9,2-7.5s-.2-.9-.6-.9c-1.4,0-2.8,7.7-3.6,7.7s-.5-.2-.5-.8c0-1.3.8-3.6.8-5.2s-.1-1-.6-1c-1.8,0-1.6,7-2.7,7s-.7-.1-.7-1.7.1-2.3.1-2.8-.1-.5-.4-.5c-1,0-1.9,3.7-1.9,7.4s.8,6.7,1.8,6.7,2.5-2.5,2.5-3.5-.2-.7-.5-1.1c-.8-1.3,0-2.8.6-2.8s.9.8,2,1.7c.4.4.6.8.6,1.2,0,2.4-5,5.7-5,11.5s5,7.8,5.7,9c3.5-6.3-6.7-5.6-3.1-12.8Z"/>
  <path d="M18.9,56.4c0-3-2.3-6.4-2.3-9.6s.4-2.3.7-3.1c0,6.7,5.7,11.5,5.7,14.3s-.5,1.1-1.2,1.1-1.1-.6-1.1-1.1,0-.3-.1-.3c-.2,0-.8.7-.8,1.5s.9,2.4,2.6,2.4,3-1.6,3-3.1c0-3.5-6.9-8.9-6.9-14.6s.2-2.6.9-3.8c-4.4,2.8-5.8,6.6-5.8,10s-.1,4.3-1.6,4.3-1-.7-1.2-.7-.3.6-.3.8c0,1.2.9,1.9,1.8,1.9,1.4,0,2.6-1,2.6-3.4v-3.4c0-1.3.1-2.8,1-3.8-.1.4-.1.9-.1,1.3,0,2.9,1.6,4.9,1.6,7.6s-.3,1.6-1.1,1.6-.7-.7-.9-.7-.3.4-.3.9c0,.7.5,1.8,1.9,1.8s2.2-1.1,2.2-2.3Z"/>
  <path d="M75.4,22.9c0-1.5-1.4-4.6-2.4-4.6s-1.7.7-2.6.7-.8-1.3-1.9-1.3-.6,0-.9.2c-2.4,1.2-4.3.8-4.8,1,0,0-.2.1-.2.3,0,2.5,2.7,6.4,7.1,6.4s5.6-1,5.6-2.8ZM66.1,21c0-.1,0-.2.2-.2.4,0,1.5.5,2.9.8,1.6.3,2.5.3,3,.3s.6.1.6.2c0,.4-1.1,1.1-2.6,1.1-2.5,0-4.1-1.3-4.1-2.2Z"/>
  <path d="M25.3,76.8c0-5.1-3.1-8.6-7.2-8.6s-4.2,1.6-4.2,4,1.7,5.5,5.7,5.5,3-1.3,3-2.9-1.4-3.6-3.4-3.6-1,.4-1,1,1.1,1.6,2.5,1.6.6,0,.7-.1c0,.1.1.3.1.4,0,.8-.7,1.2-1.9,1.2-1.7,0-3.4-1.3-3.4-3.3s1-2.1,2.5-2.1c3,0,4.8,2.6,4.8,5.3s-1.3,3.8-4,3.8c-5.4,0-8-4.8-6.8-9.7-1.1.3-2.9,2-2.9,4.8s3.5,8.4,9.3,8.4,6.1-3.4,6.1-5.7Z"/>
  <path d="M54.4,80c-.3-.6,0-1.7-1.1-1.7s-.7.5-.8,1c-1.4-.4-2.6-.6-3.7-.6s-1.4.1-2,.3c-.4-.7-2-2-3.5-2.5-.6,3-3.3,5.4-7.3,5.7-.2,2-1.8,2.5-3,2.5s-2.2-.3-2.3-.6c-.5-2.9-2.7-4.5-3.6-4.8,0,.3,0,.6,0,.9,0,2.4-1.6,3.9-4.7,3.9s-1.1,0-1.6-.1c3.5,3.9,6,2.5,7.7,3.2,2.1,1,3.9,4,10.8,4s5.1-1,6.7-2c.3,1,1.3,1.9,3.1,1.9,2.9,0,4.6-.9,4.6-1.6s0-.5-.5-.5-.4.1-2,.1-4.9-.7-6.3-4c-.2-.5-.6-.5-.8-.5-.9,0-2.4,3.3-8.3,3.3s-3.6-.9-3.6-1.1,0,0,.1,0c.2,0,1.1.1,2.3.1,3.7,0,6.7-1.7,8.6-3.7.6-.7.9-.8,1.5-.8s1,.4,1.2,1c.8,2.1,2.8,3.9,4.8,3.9s2.9-4.8,3.5-5.1c.1,0,.3,0,.4,0,.3,0,.9-.2.9-.9s-.8-.9-1-1.2ZM49.8,83.6c-.7,0-1.3-.6-1.3-1.3s.6-1.3,1.3-1.3,1.3.6,1.3,1.3-.6,1.3-1.3,1.3Z"/>
  <path d="M74,64.1c-4.9,0-3.7,4.3-9.4,5.6-1.1.2-1.4.6-1.4,1,0,.9.5,2,1.1,2,2.5,0,6.4-5.2,7.1-5.2s.6,0,.6.7c0,1.9-5.4,4.4-5.4,5.7s1.9,2.5,3.8,2.5c2.7,0,5.2-5.6,5.7-5.6s.6.3.6.7c0,1.5-1.8,4.5-5.1,5.7-.7.3-.8.6-.8.8,0,.7.8,1.8,1.6,1.8s7.2-5.5,7.2-9.9-3-6-5.7-6ZM76.2,68.9c-.4,0-.7-.1-1-.3-.4-.2-1.2-.8-1.2-1.8s.5-1.3,1-1.3c1.4,0,3,1.3,3,2.3,0,.8-.8,1.1-1.7,1.1Z"/>
  <path d="M2.1,40.1c1.1,0,2.5-.8,4.2-2.2-1.3.3-2.3.5-3.2.5s-2.1-.5-3.2-2c0,2.5.8,3.8,2.1,3.8Z"/>
  <path d="M2.8,24.4c1.2,0,2.2-.7,2.2-.7-1.9-.6-3-2-3-3.9,0-.2,0-.4,0-.6-1.2.5-1.8,1.6-1.8,2.7,0,1.5,1.1,2.6,2.6,2.6Z"/>
  <path d="M7,35.7c0,1.2.9,2,2.1,2s1-.1,1.3-.3c-.9-.9-1.3-1.9-1.3-2.9s.1-1.1.2-1.5c-.8.2-2.4,1.1-2.4,2.8Z"/>
  <path d="M13.5,37.3c1.6,0,2.4-1.4,2.4-2.8,0-2.2-2-3.8-3.7-4.3-.7.9-1.5,2.3-1.5,3.9s1.1,3.3,2.8,3.3Z"/>
  <path d="M12.3,26.7c0,.7.6,1.3,1.3,1.3s1.3-.6,1.3-1.3-.6-1.3-1.3-1.3-1.3.6-1.3,1.3Z"/>
  <path d="M9,21c0-1.6-.7-4.1-3-4.1s-2.2,1-2.2,2.3c0,2.7,2.7,3.7,5,3.7.2-.5.3-1.2.3-1.9Z"/>
  <path d="M11.9,22.4c-.7,0-1.3.6-1.3,1.3s.6,1.3,1.3,1.3,1.3-.6,1.3-1.3-.6-1.3-1.3-1.3Z"/>
  <path d="M10.4,26.3c-.4-.6-.3-1.1-.5-1.4-.2-.2-.6-.2-1.2-.2-.2,0-.5,0-.7,0-1.1,0-2.4.1-3.9,1.1-2.9,1.9-2.5,4.9-2.9,5.7,0,.1-.1.2-.1.4,0,.3.3.6.6.6s.4,0,.6,0c.8,0,1.7.6,3,.6s1.7-.2,2.8-.8c2.4-1.2,3.4-4.2,3.4-4.7s-.5-.6-.9-1.1ZM5.8,31.4c-1.1,0-2.3-1.4-2.3-2.6s.5-1.5.9-1.5.2.1.2.3c.2,1.6,1.3,2.6,2.3,3.1.1,0,.2.1.2.2,0,.2-.6.6-1.2.6ZM9,29.3c-1.2,0-2.1-1.8-2.1-2.8s.4-.7.9-.7.3,0,.5.1c.3.2.3.8.7,1.3.2.3.9.7.9.9,0,.5-.3,1.1-.8,1.1Z"/>
  <path d="M1.2,33.4c0,.2,0,.3,0,.5,0,1.6.8,2.4,1.9,2.4s1.8-.5,2.7-1.6c-.4,0-.8.1-1.2.1-1.2,0-2.6-.3-3.4-1.4Z"/>
  <path d="M65.8,37.4c-.9,0-1.6.7-1.6,1.6s.7,1.6,1.6,1.6,1.6-.7,1.6-1.6-.7-1.6-1.6-1.6Z"/>
  <path d="M53.7,35.7c-1,0-1.9.9-1.9,1.9s.9,1.9,1.9,1.9,1.9-.9,1.9-1.9-.9-1.9-1.9-1.9Z"/>
  <path d="M56.2,39.8c0,.7.6,1.3,1.3,1.3s1.3-.6,1.3-1.3-.6-1.3-1.3-1.3-1.3.6-1.3,1.3Z"/>
  <path d="M61.7,44.2c1.3,0,2.3-1,2.3-2.3s-1-2.3-2.3-2.3-2.3,1-2.3,2.3,1,2.3,2.3,2.3Z"/>
  <path d="M54.2,31.5c-.7,0-1.3.6-1.3,1.3s.6,1.3,1.3,1.3,1.3-.6,1.3-1.3-.6-1.3-1.3-1.3Z"/>
  <path d="M60.1,35.4c0-1.1-.9-2-2-2s-2,.9-2,2,.9,2,2,2,2-.9,2-2Z"/>
  <path d="M65.5,33.4c-.8,0-1.4.6-1.4,1.4s.6,1.4,1.4,1.4,1.4-.6,1.4-1.4-.6-1.4-1.4-1.4Z"/>
  <path d="M56.1,31.1c0,.7.6,1.3,1.3,1.3s1.3-.6,1.3-1.3-.6-1.3-1.3-1.3-1.3.6-1.3,1.3Z"/>
  <path d="M65.9,44.5c.7,0,1.3-.5,1.3-1.3s-.6-1.2-1.3-1.2-1.3.6-1.3,1.2.6,1.3,1.3,1.3Z"/>
  <path d="M59.7,32c0,1.2,1,2.1,2.1,2.1s2.1-1,2.1-2.1-1-2.1-2.1-2.1-2.1,1-2.1,2.1Z"/>
  <path d="M60.6,37.1c0,.7.6,1.3,1.3,1.3s1.3-.6,1.3-1.3-.6-1.3-1.3-1.3-1.3.6-1.3,1.3Z"/>
  <path d="M64.8,27.9c0-.7-.6-1.3-1.3-1.3s-1.3.6-1.3,1.3.6,1.3,1.3,1.3,1.3-.6,1.3-1.3Z"/>
  <path d="M67.5,78.8c-.9.7-2.9,2.2-6.3,2.2s-2.6-.6-2.9-.6-.7.3-1.1.8c-.8.9-1.8,2.7-1.8,4.6s1,2.7,3,2.7c6.3,0,11-3.9,11-7.1s-1.1-2.5-1.8-2.5ZM64.4,84.9c-.8.6-2,1-3.7,1.1.3-.8.5-1.6.5-2.4s0-.5,0-.8h.4c2.7,0,3.8-1,4-1s.4,0,.4.7-.3,1.7-1.5,2.5Z"/>
  <path d="M58.9,76.7v1.5c0,.6,1.5,1.3,3.3,1.3s2.8-.4,3.6-1.1c.3-.2.3-.6.3-1v-.8c0-1-1.5-1.5-3.5-1.5s-3.8,1.1-3.8,1.6Z"/>
  <path d="M69.1,46.3c-.5,0-1.2,1.3-1.8,1.3s-1-1.6-1.5-1.6-.2.3-.2.6,0,1.1,0,1.4-.5.4-1,.4-1.1,0-1.1.3.7.6,1.3,1c1.2.8,3.1,1.6,3.1,3.6s-2.5,3-4.2,3.3c-.8.1-1.7.3-1.7.5,0,.4,2.2.5,2.2,1s-1,1.6-1,2,0,.1.1.1c.4,0,1.4-.9,1.9-.9s.5,1.9,1,1.9.4-2.9.6-3.6c.4-1.3,1.3-2.5,2.1-2.5s1.1,1.7,1.1,2.5c0,1.7-1.2,3.5-1.2,4.2s0,.2.2.2c.4,0,1.2-1.1,1.6-1.1s1.4,1.8,1.8,1.8.2-.2.2-.4c0-.5-.3-1.4-.3-2s2.1-.3,2.1-.7-.9-.6-1.5-.9c-1.2-.7-2.6-2.3-2.6-3.6s.3-.8.6-.8c2.6,0,3.7,4,4.2,4s.2-1.8.4-2c.1-.1.3-.2.6-.2.4,0,1,.1,1.4.1s.4,0,.4-.1c0-.3-2-1-2-1.6s1.1-1.6,1.1-1.9,0-.2-.2-.2c-.5,0-2.1,1.2-4.3,1.2s-1.6-.1-1.6-.8.6-1.2,1.5-1.6c1-.4,3-.4,3-.9s-1.9-.4-1.9-.8.8-1.5.8-2,0-.2-.1-.2c-.4,0-1.3,1.1-1.9,1.1s-1-1.4-1.5-1.4c-.1,0-.2.1-.2.3,0,.5.2,1.6.2,2.9s-.6,2.2-1.3,2.2-1.1-1-1.1-1.8c0-1.2.6-2.6.6-3.9,0-.3,0-.4-.2-.4Z"/>
  <path d="M56.5,52.3c.4,0,.5.3.5.4,0,.6-1,1.5-1,2.4s1.4,1.9,2.3,1.9,1.5-.4,1.5-1.1-1.5-1.9-1.5-2.8.5-.6,1.1-.6c1.3,0,1.8.2,1.8.5s-.6,1.1-.6,1.3,0,.4.4.4c1.1,0,4.9-.8,4.9-1.5s-3.6-3.6-4.4-3.6-.3.1-.3.3c0,.2,0,.6,0,.9,0,.6-.2.7-.9.7s-1.9-.3-1.9-1.4c0-2.3,4.4-1.8,4.9-3.9-1.9,0-2.9-1.3-4.2-1.3s-1.3.3-1.3,1.4.1,1,.1,1.6-.1.9-.7.9-.6-.6-.6-1.4.1-1.4.1-1.9c0-3.5-3.8-2-4.2-4.9-.9,1.7-1.2,2.9-1.2,3.9,0,3.6,4.9,3.2,4.9,5.8s-.5,1-.9,1c-.8,0-1.4-1.7-2.7-1.7s-1.1.5-1.1,1.5.2,1.3.2,2c0,1.4-.6,2.1-1.3,2.8,4.4-.4,4.7-3.7,6-3.7Z"/>
  <path d="M57.3,58.1c.5.6.6,1.1.6,1.7,0,1.4-1.1,2.9-1.1,4.3s1.2,3.1,2.9,3.1,3-1.6,3-3.3c0-2.5-1.9-5.1-5.4-5.8ZM59.9,63.4c-.5,0-.8-.4-.8-.8s.2-.7.2-1c0-.4,0-.8.2-.8.6,0,1.2,1,1.2,1.7s-.3,1-.9,1Z"/>
  <path d="M65.8,67.5c1.4,0,2.3-1.1,2.3-2.4s-1.6-3.3-4.1-3.5c.2.4.3.7.3,1.1,0,.9-.6,1.8-.6,2.8s.8,2,2.1,2Z"/>
  <path d="M54.6,67.9c.9,0,1.6-.7,1.6-1.6,0-1.3-1.3-2.5-3.3-2.5.3.3.4.7.4,1,0,.5-.2,1-.2,1.6s.6,1.5,1.5,1.5Z"/>
  <path d="M53,76.8c6,0,8.9-4.9,9-8.6-1.1,1-4.1,1.3-5.6,1.3-4.6,0-5.8-2.3-6.5-2.3s-.6,1-.6,1.4,0,.5-.2.5-.5-.1-.7-.1-.3.2-.3.5c0,1.4,1.8,2.4,3.6,2.4s3.5-1,4.1-1,.4.3.4.5c0,.4-.4.8-.4,1,0,.5,1.1.1,1.1.7s-1.4,1.5-3.5,1.5c-4.2,0-6.9-2.9-6.9-5.5,0-5,5.4-3.4,5.4-5.3s-.6-1-1.1-1c.6-.7,1.3-.9,2.1-.9s1.1.1,1.6.1,1.3-.2,1.3-1-.4-1-1.9-1.2c.2-1,2.3-.5,2.3-1.4,0-.6-1.2-1.1-2.7-1.1-5.7,0-9.9,4.7-9.9,9.8s3.4,9.7,9.6,9.7Z"/>
  <path d="M19.2,26.7c-1.6,0-.9-2.7-1.7-2.7s-.9,1.5-.9,2c0,1.9,1.2,3.9,4,3.9s4.6-1.4,6.4-3.3c.3,2,1.4,5.5,4.4,5.5s2.8-1.3,2.9-2.9c-.2.2-.5.4-.8.4-.6,0-.7-.9-.7-1.6,0-1.2.4-2.6.9-2.6s.5.2.5,1.1c0,.7,0,1.5.4,1.5s.7-1.4.7-2.3c0-2.1-1-4.1-3.2-4.1s-3.3,1.4-4.4,3.3c0-.4.1-.8.1-1.1,0-2.6-1.4-5-4.1-5s-4.1,1.2-4.9,3.7c.2-.2.9-.7,1.5-.7s.9.6.9,1.5-.1,1.3-.4,2c-.4,1.1-1.1,1.4-1.5,1.4ZM31.8,23.8c.2,0,.3.5.3.9,0,2-.9,5.2-1.8,5.2s-.4-.3-.4-1c0-1.8,1.2-5.1,1.9-5.1ZM29.1,24.8c.1,0,.3.1.3.7,0,1.2-.5,2.3-.9,2.3s-.5-.5-.6-1.7c.5-.9.9-1.3,1.2-1.3ZM25.9,22.8c.4,0,.7.7.7,1.4s0,.9,0,1.3c-.9,1-1.3,1.4-1.7,1.4s-.4-.3-.4-.7c0-.7.5-3.4,1.5-3.4ZM24.2,20.4c.2,0,.3.2.3.5,0,1-1.3,7.2-2.4,7.2s-.4-.3-.4-.5c0-1.3,1.4-7.2,2.5-7.2Z"/>
  <path d="M15.5,41.6c1.2-2.6,4.3-3.8,6.3-3.8s.7,0,.9,0c-1,.9-1.3,2.6-1.3,3.7,0,.5-.2.6-.6.6,0,1.1.9,2.7.9,3.6s-.2.6-.3.6c0,1.5,1.5,2.5,1.5,3.5s0,.4-.2.5c.1.6,1.7,1.6,1.9,2.1.3.6.5.7.7.7.6,0,1.5-.7,1.5-1.3s-.2-.4-.3-.5c-.6-.5-1-1.5-1.2-2.1-.2,0-.5,0-.6-.5-.2-.7-.2-2-.5-2.8-.4-.1-.6-.3-.6-1.2s.3-2.1.3-2.8c-.2,0-.5-.1-.5-.5,0-1.1,1.1-1.9,1.4-3.3,1.9,1.4,2.4,2.8,2.4,4.1s-.1,1.3-.2,1.9c1.4-.7,3.5-1.7,3.5-3.9s-.6-2.6-4.4-3.2c1.2-.4,2.7-.7,3.9-.7,2.1,0,3.4.7,3.7,2.2.4-.7.8-1.4.8-2.1,0-1.6-1.4-2.7-3.1-2.7s-3.9,1.1-5.8,2.4c.9-1.8,1.5-2.9,2.6-2.9s.3,0,.5,0c-.4-1.5-1.9-2.9-2.7-2.9-1.4,0-1.5,1.7-1.5,5.3-1.1-2.3-2.9-4.8-4.9-4.8s-1.9.9-1.9,2.6,0,.8.1,1.1c.2-.6.7-.8,1.4-.8,1.4,0,3.2,1.1,4.3,2.6-1.3-.2-2.6-.5-3.7-.5s-1.3,0-1.8.3c-1,.4-2.3,1.9-2.3,4.1s0,.7.1,1.1Z"/>
  <path d="M82.2,54.8c-1.5,0-2.3,1.2-2.3,2.4s.3,1.6.9,2.1c-.6-.6-1.4-.9-2.5-.9s-2.2.9-2.2,2.3c0,3.3,5.5,1.8,5.6,6.4,2.3-2,3.6-5,3.6-7.7s-1.3-4.7-3-4.7Z"/>
  <path d="M61.7,23.9c0-.5-.2-1.6-.6-2.1,0,3-2.2,4.2-4.1,4.2s-.9,0-1.3-.2c.4-.3.7-.9.7-1.3s-.2-.4-.5-.4-.7,0-1,0c-.9,0-1.7-.4-2.6-1.2-.6.8-.9,2-.9,3.1,0,1.8.7,3.5,1.5,3.7.4,0,.4-1.2,1-1.2s1,.5,2.6.5c2.5,0,5.2-1.4,5.2-5.1Z"/>
  <path d="M56.6,21.5c0,.2.1.4.3.5.9.4,1.4,1,1.7,1.6,1.5-.8,2.1-3.2,2.1-4.5s0-1-.4-1-.6.3-.9.3-1.1-1.1-3.3-1.1-3.5,1.8-3.5,3.3.1.8.2,1.1c.2-.9,1.2-2,2.7-2s1.5.2,1.7.7c-.4.2-.7.7-.7,1Z"/>
  <path d="M10.3,5.6c.7,0,1.9-.3,2.8-.3s.9,0,.9.5c0,.8-1.8,2.3-1.8,3s.2.3.3.3c.7,0,1.8-1.7,2.9-1.7,1.8,0,.6,3.8,1.6,3.8s.6-3.7,2-3.7,2,2.6,2.9,2.6.4-.2.4-.4c0-.7-1-2.1-1-3.1s.4-.8.9-.8c.8,0,1.8.5,2.4.5s.4,0,.4-.3c0-.8-3-1.7-3-2.7,0-1,1.6-1,1.6-1.5s-1-.4-2.4-.4c-2.2,0-1.9,1.8-3.6,1.8s-1.3-1.9-3.5-1.9-2.6.2-2.6.5,1.6.2,1.6,1.3-3.4,1.5-3.4,2.2.3.3.6.3Z"/>
  <path d="M.3,7.5c0,1,6.6,0,6.6,1.1S1.1,14.6,1.1,16.3s.3.5.6.5c1.7,0,6.3-3.3,7.5-3.3s.5.5.5,1c0,.9-.3,2.2-.3,3.2s.2,1.3.9,1.3c1.2,0,2.4-2.1,3.2-2.1s.4,6.2,2,6.2,1.9-6.7,2.8-6.7,1.6,1.9,2.4,1.9.5-3.4,1.6-3.4,4.5,4,6,4,.6-.4.6-.8c0-1.8-2.5-5.8-2.5-7.1s0-.4.5-.4c1.3,0,5.1,1.8,6.9,1.8s1-.3,1-.8c0-2-5.4-5.7-5.5-7.2,0-.1,0-.3.2-.4.9-1,4.8-1.7,4.8-2.5s-.8-.4-1.2-.4c-3.1,0-7.7,1.1-7.7,2.2s4.1,3.9,4.1,5.3-.2.5-.6.5c-1.1,0-3.6-1.4-4.8-1.4s-.7.4-.7.9c0,1.6,1.9,4.7,1.9,5.6s0,.2-.2.2c-.6,0-3.5-3.4-4.5-3.4s-.4.5-.4,1.2v1.1c0,.8,0,1.2-.4,1.2-.9,0-1.3-2.4-2.1-2.4s-1,4.4-1.9,4.4-.1-4.8-1.1-4.8-2.2,3.2-3,3.2-.3-.3-.3-.5c0-1,.6-2.5.6-3.5s-.1-.7-.5-.7c-1,0-3.3,1.7-4.2,1.7s-.3,0-.3-.2c0-.8,3.7-3.4,3.7-4.5s-5-.4-5-1.6,3.6-2.2,3.6-3.3S5.1.9,3.5.9.4,1.1.4,1.7c0,.9,4.5,1.1,4.5,1.9S.3,6.3.3,7.5Z"/>
  <path d="M3.3,9.3c-.8,0-1.8.2-2.2.6-.4.3-.7,1.2-.7,1.9s.1.8.4.8c.9,0,3.5-2.2,3.5-2.9s-.5-.4-1-.4Z"/>
  <path d="M31.5,5c0,.6,2.1,1.9,3.1,1.9s.7-.8.7-1.6-.4-1-1.3-1-2.5.3-2.5.7Z"/>
  <path d="M35.1,17.9c0-.3,0-.5-.2-.7-.6-.8-4.9-4.2-5.8-4.2s-.2.1-.2.2c0,1.2,4.2,6.9,5,6.9s1.2-1.2,1.2-2.2Z"/>
  <path d="M76.5,5.7c-1.6,0-4.8.8-4.8,1.2s5.7,1.1,5.7,3.5-1.2,1.7-1.7,1.7c-1.9,0-2.9-1.9-3.4-1.9s-.3.1-.3.3c0,.3.3,1.1.3,1.9,0,2.1-2.4,2.4-2.4,2.8s0,.2.3.3c1.7.3,3.5.4,5.2.4,6.1,0,11-1.9,11-7.2s-.9-3.9-.9-5.3.3-1.4,1.2-2c-1.7,0-1.9-.5-3.1-.5s-2.3.9-2.3,2.3.2,1.2.2,2.2-.2,2.3-1.3,2.3-1.3-.6-1.3-1.4c0-1.3.7-2.2.7-3.1,0-1.6-1.9-2-4-2s-5.2.7-5.2,1c0,.6,3.6.2,6.1,3.5ZM83.7,2.2c.5,0,.8.4.8.8s-.4.8-.8.8-.8-.4-.8-.8.4-.8.8-.8ZM83,7c.9.3,1.4,1.1,1.4,2.1,0,1.7-1.7,3.8-6.3,3.8s-.8,0-1.2,0c3.9-.6,6.1-2.9,6.1-5.9Z"/>
  <path d="M85.8,47.4c-1.6,0-2.5,2.8-4,2.9,1-4,5-6.1,5-9.9s-3.6-5.8-5.1-6.7c-2.5-3.6-4.3-6.3-8.3-6.3s-2.8.3-4,.3c-2.3,0-3-.9-3.2-.9s0,0,0,.2c0,3.1,1.6,10.3,8.9,10.3s5.5-1.5,6.4-1.5,4.1,1.1,4.1,4.6-1.6,4-2.1,4-1.1-.9-1.1-1.8.6-3,.6-4.2,0-.7-.3-.7c-.6,0-3.5,1.8-3.5,4.1s2.9,3.2,4,3.8c-1.1,1.8-1.8,3-2.3,4.7,0-1.3-1.2-3.9-1.6-4.9-1.8-5-2.5-6-6.3-6.4.6,2,7.1,6.9,7.1,11.8s0,.7,0,.9c-2-5.8-5.4-7.1-6.6-8.6-2-2.2-.8-4.4-4.1-5.6.2.3.3.6.3,1,0,1.1-.6,2.4-.6,3.4,0,3.5,4.1,2.4,6.5,4.4,2.3,1.9,3.7,5,4.6,8.4.9-1.5,1.5-3.3,3.1-3.3s1.4,1.3,1.4,2.3,0,.4,0,.5c1.6-1.4,2.5-3.6,2.5-5.1s-.4-1.6-1.2-1.6ZM79.5,34.3c-.3,0-1-.2-1.4-.2-1.1,0-1.9,1.6-2.5,1.6s-.3-.2-.3-.4c0-.6,1.1-1.4,1.1-1.8s-.5-.4-.7-.4c-1.1,0-2.7,1.6-3.7,1.6s-.4,0-.4-.3c0-.4,1.2-1,1.2-1.5s-.5-.5-.8-.5c-.6,0-1.7.3-2.4.3s-.7,0-.7-.4c0-.7,2.2-.2,2.2-1s-.7-1.1-.7-1.5.2-.3.3-.3c.8,0,1.6,2.1,2.5,2.1s.5-.3.5-.7,0-.7,0-1,.2-.5.3-.5c.6,0,1.1,3,2.6,3s.2-1.8.8-1.8.5.5.5.8c.2,2,1.9,2,1.9,2.7s-.1.3-.4.3Z"/>
  <path d="M51.1,11.3c0,.6,2.3.2,2.3.9s-1.7,3.1-1.7,3.7,0,.2.2.2c.6,0,2.6-2.2,3-2.2s.6,1.3.7,2.1c0,.4.1.4.3.4.4,0,1-1.5,1.5-1.5.6,0,2.3,1.8,5.2,1.8,4.1,0,7.9-2.9,7.9-7.9s-3.4-7.7-8.2-7.7-3.9,1.1-4.8,1.1c-.5,0-1.3-1.3-1.7-1.3s-.3.3-.3.9,0,1.5-.4,1.5c-.8,0-3.9-2.3-3.9-1.5s2.1,3.1,2.1,3.7-2,1.2-2,1.6c0,.7,2.2.9,2.2,1.8s-2.3,1.7-2.3,2.4ZM62.3,2.6c3.3,0,5.3,2.3,5.3,6.1,0,4.8-3.4,6-5.2,6s-3.9-1.2-3.9-1.8.2-.5.5-.5c.7,0,2.3,1.1,2.9,1.1s.2,0,.2-.3c0-.6-.6-1.6-.6-2.1s.1-.2.3-.2c.9,0,2.2.4,3,.4s.3-.1.3-.3c0-.7-2.2-2.2-2.2-2.6s2.7-1,2.7-1.6-3.7-.2-3.7-.8.7-1.3.7-1.6-.1-.2-.4-.2-1.9.6-2.6.6-.7,0-.7-.5c0-.8,1.3-1.6,3.4-1.6ZM54.5,6.9c0,0,0-.1.2-.1.4,0,1,.1,1.5.1s.5-1.9.8-1.9.6,1.8,1,1.8,1.2-.5,1.6-.5.1,0,.1.1c0,.2-.8,1.1-.8,1.4s1.9.7,1.9.9-1.9.3-1.9.6.7,1.2.7,1.5,0,.1-.1.1c-.3,0-1.3-.5-1.6-.5s-1,1.4-1.3,1.4-.2-.1-.2-.3v-1.3c0-.1-.1-.3-.3-.3-.4,0-1.2,0-1.4,0s-.2,0-.2-.1c0-.3,1.3-1.2,1.3-1.4,0-.4-1.3-1.1-1.3-1.5Z"/>
  <path d="M41.2,71.5c0-.6-.4-1.2-1-1.2s-.9.4-.9.9.4,1,.4,1.5-.1.6-.4,1c-.4-.7-1.4-1-1.9-1-3.5,0-2.1,5-5.8,5s-1.7-.2-2.2-.2-.4.1-.4.3c0,.9,1.2,3,4.7,3s6.8-2.1,6.8-4.7-.1-.9-.3-1.4c.1-.2.5-.3.8-.3.5,0,.8.6,1.3.6s.9-.4.9-.9-.2-.7-.6-.9c.3-.2.5-.5.5-.9,0-.6-.4-1.1-1.1-1.1s-.5.1-.7.3Z"/>
  <path d="M21.3,66.6c2.7.7,4,2.1,4.3,3.8.3,1.6.6,3,1.2,3.7.8.9,2.5,1.8,3.9,1.8s2.2-.4,2.2-1.5-1.6-3.9-4.1-3.9-.5,0-.9,0-.7,0-1-.3c-.5-.5-.7-3-1.7-4.5-1.1-1.7-2.3-2.1-4-2.1s-2.5.6-2.5,1.6.3,1,2.4,1.5ZM29,71.6c.8,0,2.3,1,2.3,1.9,0,.2-.2.5-.7.5-1,0-2.5-1.1-2.5-1.7s.5-.8.8-.8Z"/>
  <path d="M38.1,62.5c0,.9-1.6,1.8-3.7,1.8-2.4,0-4-.4-5.5-1.9-.4-.4-.6-.8-1.1-.8s-.8,1-.8,1.9c0,3.3,3.1,7.2,7.5,7.2s7.5-3.8,7.5-6.8-.4-3.5-3.4-4.6c-1.5-.6-2.2-1.5-2.5-3.2-.7,1-1.1,2-1.1,2.6,0,2.3,3.1,2.3,3.1,3.8ZM39.6,64c.3,0,.6.2.6.7,0,1.7-1.9,3.8-3.1,3.8s-.5-.2-.5-.6.1-.9.1-1.3c0-1.2.5-1.1,1.6-1.6.8-.4,1.1-.9,1.4-.9Z"/>
  <path d="M32.9,49c0-1.4,2.4-2.5,2.4-4.8s-1.3-3-3.1-4c.3.6.5,1.3.5,1.8,0,2.7-5.1,3.8-5.1,5.9s4.9,3.8,4.9,5c0,.4-.2.7-.8.7s-1.5-.5-2.5-1.3c-1.1,1-1.8,2.5-1.8,4.1,0,3.3,3.5,6.1,6.9,6.1s1.1-.1,1.7-.2c-1.8-.2-3.1-1.6-3.1-3.4s2.4-4.2,2.4-5.9-2.6-2.3-2.6-4Z"/>
  <path d="M18,62.1c-.1-1.2-1.2-2.1-2.3-2-.4,0-.8.2-1.1.5-.3-1-1.2-1.9-2.5-1.7-1.2.2-1.9,1.2-1.8,2.4,0,.2,0,.4.2.7,0,0-.2,0-.3,0-1,.1-2,1.1-1.9,2.4.1,1.1,1.2,2,2.4,1.9.4,0,.8-.2,1.1-.3.3,1.1,1.2,1.8,2.4,1.6,1.2-.2,2.1-1.1,1.9-2.4,0-.3-.1-.5-.2-.8,0,0,.2,0,.3,0,1.2-.2,2-1.2,1.9-2.4ZM13.3,64.6c-.7,0-1.3-.4-1.4-1.1,0-.7.4-1.3,1.1-1.4.7,0,1.3.4,1.4,1.1,0,.7-.4,1.3-1.1,1.4Z"/>
</svg>