<?xml version="1.0" encoding="UTF-8"?>
<svg id="svg2" xmlns="http://www.w3.org/2000/svg" xmlns:svg="http://www.w3.org/2000/svg" xmlns:sodipodi="http://sodipodi.sourceforge.net/DTD/sodipodi-0.dtd" xmlns:inkscape="http://www.inkscape.org/namespaces/inkscape" version="1.1" viewBox="0 0 300 160">
  <!-- Generator: Adobe Illustrator 29.4.0, SVG Export Plug-In . SVG Version: 2.1.0 Build 152)  -->
  <sodipodi:namedview id="namedview4" bordercolor="#666666" borderopacity="1.0" inkscape:current-layer="g8" inkscape:cx="537" inkscape:cy="335" inkscape:pagecheckerboard="0" inkscape:pageopacity="0.0" inkscape:pageshadow="2" inkscape:window-height="705" inkscape:window-maximized="1" inkscape:window-width="1366" inkscape:window-x="-8" inkscape:window-y="-8" inkscape:zoom="0.5" pagecolor="#ffffff" showgrid="false"/>
  <g>
    <polygon points="148.2 158.6 148.2 158.6 148.2 158.6 148.2 158.6"/>
    <path d="M223.8,102.4c-.2,0-.3,0-.4.2-10.5,29.4-40.2,50.6-75.2,50.6s-64.7-21.2-75.2-50.6c0-.2-.2-.2-.3-.2-.2,0-.2.2-.2.3,10,32.3,40.1,55.8,75.8,55.8,35.6,0,65.7-23.5,75.8-55.8,0-.2,0-.3-.2-.3Z"/>
    <path d="M76.1,47.4c0,0,.2,0,.2-.2,4.6-8.8,10.9-16.6,18.7-23-.6.7-1.1,1.5-1.5,2.3-.7,1.1-1.3,2.2-1.7,3.4,0,0,0,.2,0,.3.4.5.2,1,0,1.5-.4.8-.7,1.7-1.1,2.5-.3.7-.5,1.3-.3,2.1.2.7-.3,1.3-1.1,1.6,0,.3,0,.8.2,1,.7.9.3,1.7-.4,2.4,0,.2-.1.4,0,.5.4.6,1.3,1.1,1,1.7.2.2.8-1.1.5-1.5-.3-.4-.2-.7,0-1,1.1-2.5,0-5.5,1.9-7.8.6.3.3,2-.5,3.1,0,0,.2.2.2.3,0,1.2.8,2.3,0,3.5.2,1.3.8,3.1.8,4.7,0,.6-.7,1.7-.9,1.9-.6.7-.3,1.6-.2,1.8.1.2.7,1.2.8,1.5,2.5-.1,5.7-.2,7.7-.3,0,0-.4-1.5-.5-2.1-.1-.6-.3-1.2,0-1.8.2-.4.3-.9.4-1.3.4-1,.9-2,1.4-2.9,0-.2.3-.4.5-.5.4-.2.6-.5.6-1,0-.6.3-1.1.8-1.7.1-.2.3,0,.5-.2.2-.1.3-.5.5-.6.3-.2.6-.3.8-.3.6-.1,1.4-.2,1.7-.9.1,0,.3.1.4.1.9-.3,1.8-.1,2.7.3,0,0,.1-.2.2-.2.2.3.5.7.8.8.2,0,.3,0,.5,0,.1,0,.2,0,.4-.1.2,0,.3,0,.5,0,0,0,.2.2.3.3h.1s0,0,.2-.1c0,0,0-.3,0-.4,0,0,0-.1.2-.2.3-.2,0-.5.1-.6.5,0,1.8-.4,1.9-.2.5.6,1,.1,1.5.3.4.2.9.4,1.1.7.3.4.6.5.9.3.8-.3,1-.1,1.3.6,0,0,0,.2.2.3.4.3.4.4.2.8-.3.7-.3,1.6-.1,2.3.2.7.8,1.6.6,2.1.2.3.8,0,1,0,0,0,.2,0,.2,0,0-.5.8-1.3.9-2,.3-1.5-.4-3.5.5-4.8.4-.6,1.1-1.1,1.8-1.3,1.3-.3,2.3-1.4,3.8-1.3.5-.5,1-.6,2.1-.6.2,0,.5-.1.5-.2-.1-.5.3-.4.5-.5.8-.2,1.1-.9.8-1.6-.1-.7.1-1.2.3-1.8,0-.2.3-.3.3-.1,0,.4-.2,1,0,1.2,0,0,0,.3-.2.5,0,0,0,.3.2.1.4-.8,1.8-.7,1.4-2.1,0,0,.2,0,.2-.1.1.2.5.3.5.7.4,0,.7-.7.9-.9.2-.2.7-.2,1-.6.3,0,.6-.1.9,0,.2,0,.8,0,1.2,0,0,0,0,0,0-.1-.3,0-.6,0-.8-.1-.2,0-.4,0-.6-.1,0-.1-.1-.2-.1-.2,1.4-.1,2.1.5,4.7.4,0-.2-.5-.2-.7-.4-.2-.1-.3-.4-.2-.5.6-.9,2.1-1.4,3.3-1.2,1,0,2.6.1,3-.2,1.1,0,2.4-.2,2.4.2-.6.3-1.2.3-1.8.5-.2,0-.4.2-.5.4,0,.1.1.3.2.5.2.4.6.3,1,.2,1.7-.6,3.5-.3,5.2-.3.5,0,.2-.2.2-.3.9.1.9-.2,1.7,0,0,0,0-.1,0-.2-.2-.2-.4-.3-.5-.5,0-.2-.2-.2.2-.5.2-.2,0-.3-.2-.2-.6.3-1.2.7-1.8,1-.4-.1-.9-.4-1.3-.4-1.2-.2-2.1-.7-2.3-1.8.3-.2.6-.3,1-.5-.6,0-1.1-.1-1.6-.2,0,0,0-.1,0-.2.5,0,1.1,0,1.6,0,.1,0,.4-.1.5-.3,0-.2-.1-.4-.3-.5-.5-.3-.9-.4-1.3-.4-2.4,0-4.4.4-6.3.9.7-.4,2.9-1.1,3.7-1.3.3,0,.8,0,1-.1.6-.5,1.3-.5,2-.3,1.6.4,3.3.8,4.9,1.2,1.1.3,2.1.4,3.2,0,.5-.2,1.1-.2,1.6,0,.4,0,.8.2,1.3,0,.3,0,.8-.2,1.1-.5.2-.2.2-.5.2-.8-1.8-.8-2-1-1.6-1.4-1.3-.5-3.1-1-3.7-2.1-.6-1.1-.5-1.5-.5-1.5-.5-.6-1.9-1.9-2.3-2.6-1.4.7-2.9,1.5-4.5.4-.7-.5-1.1-1.2-.4-1.9-.7-.3-1.5-.3-2-1.1-.3-.4-.9-.6-1.4-.8-1.1-.3-2.2-.4-3.3-.6-.1,0-.2,0-.2,0,0,0,0,.1,0,.2,0,.1,0,.3,0,.4,0,.3-.3.3-.6.3.3.4,0,.4.3.7-.1.1-1.2.6-1.6.6,0,0,0,.2-.1.2.5.2,1.3.8,1.3,1.6-.3,1.3-2.9,1.2-4,1.3-.3,1.7-.2,2.4-2.4,2.5,0,0-.3-.1-.3-.2-.2-.4-.3-.7-.5-1.1,0-.1,0-.3,0-.4.3-.5.4-1,.7-1.5-1.5-.5-3.4-.4-4.4-1.9-.6-.4-2.5-1-3.2-1.2.2-.3.3-.6.5-.9-.3-.2-1.1-.6-1.1-.6.7-.7,2.1-2.1,6.8-3.1,1.6-.2,3.2-.5,4.8-.6-.7.2-1.4.4-1.7.7,0,0,.2.7.5.7.4,0,1-.2,1.5-.2.8,0,1.6.3,2.5.4-.5-.9-1.6-.9-1.9-1.7,2.5-.2,5-.4,7.5-.4.2.2.3.3.5.4.2,0,.5.1.7.1,0,0-.2.1-.4.3.4,0,.7.2.8.2.7-.5.6,0,.7.4-.7,0-1.3.2-1.9.3,0,.2,0,.3.1.5,0,0-.9,0-1.4-.1-.6,0-1.5-.3-1.9-.3-.4,0-.6.5-.6.5,0,0,.2.3.9.3s1.5,0,2.1.3c.6.2,1.8.9,1.8.9.1.1.5.6.6.7,1.3.5,2.6,1,4,1.3,0,0,0-.1.1-.2-.4-.4-.9-.7-1.3-1.1h0c.8.3,1.6.8,2.5,1.3-.4-.8.4-.6.8-.9-.7-.4-1.4-.8-2-1.2-.2-.1-.3-.4-.3-.6,0,0,.2-.2.3-.2,1.9.7,2.3,1.3,2.7,1.2,1.3-.4,1.8-.5,1.8-.6-.5-.5-2.9-1.4-4.5-2.1h0c.3-.1.6,0,.9,0-.3-.6-.7-.9-1.4-1.1,2.4.2,4.9.4,7.3.7-.2,0-.7.6-.9.6-.2,0-.4,0-.6,0-.3,0-.6.2-.7.4,0,.3,0,.7.2.9.7.9,1.8,1.5,2.5,2.4.7.8,1.5,1.3,2.6,1.4,1,.2,1.8.6,2.7,1,.3-.6.6-.9.9-1.3l-.2-.5c.3-.3.8-.3,1-.6.2-.4.4-.6.9-.5,1,.2,2.1.2,3-.2.5-.2,1.2-.4,1.8-.5,4.9,1.5,9.6,3.5,14,5.9,0,1.1-.8,1-.8,1.2s.9.5.9,1.2c0,.3,0,.4,0,.5.9.5.9.3,1.6,1.2.1.1.4,0,.5.2.4.7,1.8,1.2,2,0,0-.1.3-.3.2-.4.4.3,1.2.9,1.7.9.4,0,1.5.9,1.8,1.3,0,.1.6.4.5.6,0,.1-.7.2-.8.3-.5-.2-.3-.5-.6-.8-.4-.3-.9-.5-1.4-.7-.4.5-.1.9.5,1.3.8.6,1.4,1.3,2.3,2,0,.1-.5,0-.8.2-.1,0,0,.2-.1.3-.2.1-.4.2-.4.3,1,.6.5.8.4,1.1-.2-.3-.4-.7-.6-.6.4,1.2.3.8-.5,1.7,0,.1.3.5.4.7-.2.3-.4.6-.6,1-.4,0-1-.4-1.4-.3,0,.2.6.6.8.9-.8.4-1.7-.4-2.3.5.4.6.9.7,1.6.7.3,0,.6,0,.8.1.9.5,1.9,1.1,2.2,1.5.3.4.5,1.5,1.5,2.9-1.8.1-3.4.5-5,.3-1,0-.7.3-1,.5-.3.2-.7,0-.6.4,0,.2.4.3.5.5,1.1,1.4,1.8,2.8,1.7,4.6,0,.5.2.6.4.6.6,0,.6.5.8.9.1.3.2.6.3,1,.4,0,.9,0,1.2-.2.6-.4.9-.2,1.3.2.3.3.5.5,1,.9.3.5,1-1.2,2.8-1.3.7,0,.7-1,.7-1.5-.1-.7.3-1.5-.5-2.1,0,0,0-.4,0-.6,0-.5,0-1.2.4-1.6.6-.5,1-1,.3-1.7-.3-.2-.4-.8-.3-1,.5-.4,1.4,0,2,.2.3,0,.2-.6.3-.8.1-.2.3-.4.4-.6.7.2,1.3.8,1.8,1.3.6.7,1.3,1.3,2,1.9,1.5,1.3,3.4,2.1,3.9,4.1-.5,0-1.2-.2-1.4.2h0c0,0,0,0,0,0,0,.2,0,.5.2.6.6.4,1.2.8,1.8,1.2,0-.2,0-.4-.1-.5,0-.3-.2-.6-.2-1s0-.1,0-.2h0c0-.1,0-.2,0-.3,0,0,0-.1,0-.2,0-.5,0-1.1-.6-1.6-.2-.1-.2-.5-.4-.8h0c.3.2.5.3.8.5l.2-.2h0c-.9-.8-1.6-1.7-2.6-2.3-1.1-.5-1.5-1.5-2.3-2.2-.8-.6-1.5-1.3-1.7-2.2,0-.1.2-.3.3-.2,1.3.8,2.3,2,3.5,2.9,1.2.6,2.3,1.4,2.9,2.6.3.6.9,1.1,1.3,1.6.4.5,1.5.7,1.7,1.3.3.7.8,1.1,1.4,1.5,1.2,1.8,2.3,3.7,3.3,5.6,0,0,.2.1.2.1.2,0,.3-.1.3-.3h0c-6.2-13.9-16.1-25.6-28.8-34-13-8.6-28.1-13.1-43.7-13.1s-30.7,4.5-43.7,13.1c-12.6,8.4-22.6,20.1-28.8,33.9h0c0,.3.1.4.3.4ZM197.5,21.8c.4,0,.6,0,.8,0,.6.4,1.6.8,1.1,1.7h0c0,0-.6.1-.7,0-.5-.5-.7-.4-.9.1-.5-.2-.9-.4-1.3-.6h0c.3,0,.6,0,1,.1,0-.3-.1-.5-.2-.7.1,0,.3-.1.5-.2-.1-.2-.2-.3-.4-.6Z"/>
    <path d="M148,5.9c-.6,0-1.2-.3-1.9.4.6,0,2.1.5,1.9-.4Z"/>
    <path d="M162.5,22.6c-.9,0-1.7.2-2.1.4-1.5.8-2.9,1.9-2.6,2.4.3.6,1.8.4,2.7.7.9.3,1.8.5,2.8.8,0,0-.6.2-1.1.2-.1,0-.2.2,0,.2.8,0,1.6,0,2.5-.2.3.3-.2.5-.2.6.2,0,.3,0,.5.1.2,0,.3-.3.4-.2.2.2,0,.4,0,.4.6.5.5.5,1-.5-.2-.1,0-.2,0-.3-.2,0-.4.1-.8.2.1-.4.7-.4.4-.6,0,0-.7.2-1,.3h0c.3-.3.9-.6.9-.7,0,0-.5,0-1-.2,0-.2.5-.6.6-.9-1-.3-1.9-.6-3-.9.2-.1.3-.2.4-.2v-.2c-.5,0-1.3,0-1.7,0,.2-.4,0-.9,1.5-1.1h0c-.2,0,0-.4-.1-.4Z"/>
    <path d="M206.5,36.9c0-.5-.5-1-.8-1.8,0,.4-.2.4-.2.6,0,.5.4.8,1,1.2Z"/>
    <path d="M205.7,35.1s0,0,0,0c0,0,0,0,0,0h0Z"/>
    <path d="M151.6,24.2c-.1,0-.3.3-.4.4h0c.6.6.7.6,1.6,1,.4,0,.7-.2,1.1-.3-.8-.5-1.9-.1-2.3-1.1Z"/>
    <path d="M154.9,23.2v-.2c-.7-.8-1.9-1.3-2.8-1.2.6.4,1.5,1,2.8,1.4Z"/>
    <polygon points="152.1 21.8 152.1 21.8 152.1 21.8 152.1 21.8"/>
    <path d="M182.4,24.6c0,0,0,.4,0,.4.4.3.4.3.8.5.1.2.2.6,0,.9h0c-.1.5,0,.7.1.8.2.1.6.2.9,0,.5-.3,1.4-1.1,2.3-1.9-.2-1-.8-1.4-1.2-1.8,0-.1.1-.3.2-.4-.4-.3-.6-.6-.9-.8-.6.1-1.2.5-1.6,1.1,0,.1.4.2,0,.6-.2.2-.3.3-.7.5Z"/>
    <polygon points="185.9 22.7 185.9 22.7 185.8 22.7 185.9 22.7"/>
    <polygon points="185.9 22.7 185.8 22.7 185.8 22.7 185.8 22.7 185.9 22.7"/>
    <path d="M184.7,19.6c-.2.4-.5.7-.7,1.1.2.1.5.3.8.5.2.2.3.4.4.6h.2c-.1,0-.1,0-.3.4.4-.1.4,0,.6,0,0,.2,0,.3.2.5.2-.1.4-.2.7-.3-.1,1.4.9.7,1.4.8.6.5.8.7,1.2,1.3,0,0,0,0-.2.2h-.8c0,.2,0,.5.2.5.8,0,.3.8-.2,1.1.7.2,1.3.3,1.8.4-.4.3-.7-.1-1.3,1.3,1.5-.7,1.2,0,1.7-.1.9-.4,3.2-.3,3.5-.8,0,0,0,0,0-.2-.2,0-.4-.2-.6-.2.3-1.6-.8-2.1-1.4-1.5-1-1.6-2.8-2.1-4.3-3.2,0,0,0-.3,0-.5,0-.7-.4-1-1-.9-.8.1-1,0-.5-.8-.6,0-1,0-1.4,0Z"/>
    <path d="M207.4,40.1h0c0,0,.1,0,.2,0,.2-.5.4-.2.4-.5,0-.6-.6-1.6-1.3-2.3-.2.3-.4.5-.4.6.3.7,1,1.1,1.2,2.1Z"/>
    <path d="M149,122.7c1.3-.6,2.2-1.2,3.7-1,.3-.5,1.2-1.1,1.9-.9.8,0,1.6.6,2.4.4.8-.5,1.8-.9,2.2-1.9.6-.4,1.4-.8,1.8-1.4,1-1.6,1.9-2.3,2.6-3.9.8-1.5.4-3.5,2.5-4,.5-.1.9-.7,1.3-1,1.2-1.2,2.8-1.9,4.2-2.9.9-.7,1.9-1.2,2.5-2.3.7-1.5,1-1.5,1.1-3.1,0-.2,0-1.5.1-2.7-8.3-.2-18-.3-26.4-.3-11.1,0-22.2.2-33.3.5.2.4.3.7.4,1,.7,1.6,1.3,2.9,2.6,3.7,1.8,1.1,3.2,2.7,4.5,4.3.1.1.2.4.2.6,0,1.1.1,2.2.1,3.3,0,.5-.4.9-.5,1.4,0,.5,0,.9,0,1.6,0,1,0,2-.2,3.1,0,.6-.1,1.2-.2,1.8-.2.9-.7,1.7-.3,2.7,0,.1,0,.3,0,.4-.6.6-.2,1.2,0,1.8.5,2-.4,3.8-.9,5.6-.1.4-.7.1-.1,1.1.4.8.7,1.7.4,2.7,0,.3,0,.8.1,1.2.2.4,0,.3,0,.4-.1.8,0,1,.6,1.1v-1.4c0,0,.2-.2.4.1.2,1.4,0,.8.2,2.7-.3-.3-.4-.8-.6-1.2-.1,0-.4,0-.4.1,0,.9.2,1.1.2,1.3-.1.6-.2.5-.5,1.1,0,.4.7,0,.9.2.1,0,0,.4,0,.6-.2,0-.4,0-.4,0,0,.1,0,.3.2.5.8,2.2,1.9,3.2,1.9,3.2,2.2,2.1,2.6,2.3,4.5,2.9,1.5.5,1.4,0,1.5,0,0,0-.2-.1-.7-.6-.5-.5-.3-.6-.9-.9l-1-.6c.3,0,.8.3.8.2-.2-.3-.6-.7-.7-1.3.2,0,.5-.2.7-.2.1-.1,0-.4,0-.7.3-.2.8-.6,1-.8,0-.1,0-.4,0-.7-.7-.5-1.7-.3-1.5-1.3.1-.3.9-.3,1.3-.4,0-.2.2-.5.2-.7-.2-.9.7-.7,1.4-1-.2-.2-.3-.6-.5-.6-.9-.2-1.1-.3-1-1.4.7.4,1.4.6,2.1.6.3,0,.4,0,.3-.5-.2-.7.4-1.2,1.1-1.1.8,0,1.6.2,2.5.2.7,0,1.8-.8,1.8-1.3,0-.3-.3-.2-.3-.4-.2-.3-.2-.6,0-.7.2-.3.2-.5.2-.6-.3-.3-.7-.7-1.1-1,0,0-.2-.2-.2-.4,0,0,.3-.2.3-.3,0,0,.4.6.4.6.2.1.6,0,.8.4.6.9,1.5.4,2.1.9,0,0,.3,0,.4,0,1.3-.8,2.5-1.4,3.7-2.4.4-.2-.7-.2-.9-.2,1.5-1,1-1.2,1.2-1.2.4,0,1-.2,1,0h0c-.9.8-.7.8-.6.8,0,0,.3,0,.6-.4.8-.8,1.5-1.6,2.5-2.1.5-.3.7-.6.7-1.3,0-.9.2-1.7,1.2-2.1Z"/>
    <path d="M252.7,58.1c-1.3,0-2.6-.2-3.9-.3-5.3,12-10.6,24.1-15.9,36.2,3.1.2,6.2.4,9.3.6l2.8-6.8c5.1.4,10.3.7,15.4,1.2.9,2.4,1.9,4.8,2.8,7.3h0c3.1.3,6.2.5,9.3.8-5.3-12.9-10.6-25.7-15.9-38.6-1.3-.1-2.6-.2-3.9-.3ZM248.1,80.2c1.5-3.7,3.1-7.5,4.6-11.2,1.5,4,3.1,7.9,4.6,11.9-3.1-.2-6.1-.5-9.2-.7Z"/>
    <path d="M109.4,78.2c-2.9-7.7-5.9-15.4-8.8-23-3.3.1-6.5.3-9.8.4,5.1,12.2,10.2,24.4,15.3,36.6h0c1.1,0,2.2,0,3.3-.1,1.1,0,2.2,0,3.3,0,5.1-12.6,10.2-25.1,15.3-37.6-3.3,0-6.5.1-9.8.2-2.9,7.8-5.9,15.7-8.8,23.6Z"/>
    <path d="M22,82.6c0,5.3-2,8.2-6.6,8.6-4.6.5-6.6-2-6.6-7.3v-22.3c-2.9.3-5.9.6-8.8.9v22.5c0,10.3,5.1,15.2,15.4,14.2,10.3-1,15.4-6.9,15.4-17.3v-22.5c-2.9.3-5.9.5-8.8.8v22.3Z"/>
    <path d="M218.5,69.8h0c-1.5-.6-2.9-1.2-4-1.8-1.9-1-2.8-2.1-2.8-3s1.2-2.4,4.1-2.2c5.7.3,11.8,3.9,13.5,5,.2.1.3.2.5.3v-8.8c0,0-.1,0-.2-.1-2.8-1.6-8.8-4.2-13.9-4.4-6.6-.3-13.2,2.8-13.2,10.3s7.7,11,13.8,13.5c1.4.6,2.7,1.1,3.8,1.7,1.9.9,2.8,2,2.8,3,0,2.5-2,3.8-6.2,3.3-3.6-.4-7.9-2.3-13.2-5.7-.2-.1-.3-.2-.5-.3v8.8c0,0,.1,0,.2.1,1.7,1,7.8,4.5,13.5,4.8,9.8.5,15.4-3.7,15.4-11.5s-7.9-10.6-13.6-12.9Z"/>
    <path d="M175.6,78.5c2,0,4,0,6,.1,2.6,4.5,5.2,9,7.8,13.5,3.3,0,6.6.2,9.9.3-2.9-4.9-5.8-9.8-8.8-14.7h0c3.4-1.1,7.2-4,7.2-10.9s-3.9-11.8-10.9-12c-6.6-.2-13.3-.3-19.9-.4v37.2c2.9,0,5.8,0,8.7.1v-13.2ZM175.5,62.3c2.7,0,5.4.1,8.1.2,4,0,4.9,2.4,4.9,4.3s-.8,4.2-4.9,4.1c-2.7,0-5.4-.1-8.1-.2v-8.4Z"/>
    <path d="M78.3,93.4c2.9-.2,5.8-.3,8.7-.4v-37.2c-2.9.1-5.9.3-8.8.4,0,12.4,0,24.8,0,37.2h0Z"/>
    <path d="M131.7,54.4c0,12.4,0,24.8,0,37.2,9.5-.1,19-.2,28.5,0v-7.9c-6.7,0-13.3,0-20,0v-7.1h0c4.5,0,8.9,0,13.4,0v-7.9c-4.5,0-8.9,0-13.4,0v-6.6c6.6,0,13.2,0,19.7,0v-7.8c-9.5,0-18.9,0-28.4,0Z"/>
    <path d="M62.2,77.8c-5.2-6.5-10.3-13-15.5-19.5h0c-2.8,0-5.7.3-8.5.5v37.2c2.9-.2,5.8-.5,8.7-.7v-22.6c5.6,7.1,11.2,14.1,16.8,21.2h0c2.4,0,4.8-.2,7.2-.3v-37.2c-2.9.2-5.8.3-8.7.5v20.7Z"/>
    <path d="M285,90.3v-29.4c-2.9-.3-5.8-.6-8.7-.8,0,12.4,0,24.8,0,37.2,7.9.7,15.8,1.5,23.7,2.4v-7.8c-5-.6-10-1.1-15-1.6Z"/>
    <path d="M276.3,60.1s0,0,0,0h0s0,0,0,0Z"/>
  </g>
</svg>