<?xml version="1.0" encoding="UTF-8"?>
<svg id="Layer_1" xmlns="http://www.w3.org/2000/svg" xmlns:rdf="http://www.w3.org/1999/02/22-rdf-syntax-ns#" xmlns:dc="http://purl.org/dc/elements/1.1/" xmlns:cc="http://creativecommons.org/ns#" version="1.1" viewBox="0 0 85 100">
  <!-- Generator: Adobe Illustrator 29.4.0, SVG Export Plug-In . SVG Version: 2.1.0 Build 152)  -->
  <path d="M22.7,60.4c-.8.5-2,.9-3.5.9-3.3,0-3.9-3.1-3.9-5.1v-23.3h-7.3v23c0,7.7,3.7,11.7,10.9,11.7s8.2-1,11-2.9v-31.7h-7.3v27.6Z"/>
  <polygon points="8.1 32.9 8.1 32.9 8.1 32.9 8.1 32.9"/>
  <path d="M42.5,0h0C26.3,0,12.2,3.1.5,9.3v49.5c0,10.4,3.9,19.1,11.3,25.2,6.9,5.6,28.1,14.9,30.7,16,2.5-1.1,24-10.5,30.7-16,7.4-6.1,11.3-14.8,11.3-25.2V9.3C72.8,3.1,58.7,0,42.5,0ZM80.7,58.8c0,9.3-3.4,16.8-9.9,22.2-5.8,4.8-23.4,12.7-28.3,14.8-5-2.2-22.6-10.1-28.3-14.8-6.5-5.3-9.9-13-9.9-22.2v-28.3C23,13.4,45.6,9.3,66.5,9.6h0c4.8,0,9.6.4,14.2.8v48.4Z"/>
  <path d="M58.8,41.7c0,3.9,1.1,6.8,7.1,10.3,3.2,1.9,4.5,3.1,4.6,5.4,0,2.6-1.7,4.1-4.4,4.1-2.3,0-5.1-1.3-7-3v6.7c2.3,1.4,5.1,2.3,8,2.3,7.2,0,10.4-5.1,10.6-9.8.1-4.3-1-7.5-7.1-11.1-2.7-1.6-4.9-2.6-4.8-5.3,0-2.6,2.2-3.5,4.3-3.5,2.6,0,5,1.4,6.6,3v-6.4c-1.3-1-4-2.5-8-2.4h0c-4.8.1-9.8,3.6-9.8,9.5Z"/>
  <path d="M43.6,32.1h0c-4,0-7.2.9-9.9,2.6v47.6h7.3v-15.4c.7.2,1.8.4,3.3.4,8.1,0,12.8-7.3,12.8-18s-4.8-17.3-13.5-17.3ZM43.4,61.4c-1,0-1.9-.2-2.4-.4v-22.5c.6-.3,1.6-.5,2.6-.5h0c4.2,0,6,3.4,6,11.6s-2,11.9-6.2,11.9Z"/>
</svg>