<?xml version="1.0" encoding="UTF-8"?>
<svg id="svg883" xmlns="http://www.w3.org/2000/svg" xmlns:svg="http://www.w3.org/2000/svg" xmlns:sodipodi="http://sodipodi.sourceforge.net/DTD/sodipodi-0.dtd" xmlns:rdf="http://www.w3.org/1999/02/22-rdf-syntax-ns#" xmlns:inkscape="http://www.inkscape.org/namespaces/inkscape" xmlns:dc="http://purl.org/dc/elements/1.1/" xmlns:cc="http://creativecommons.org/ns#" version="1.1" viewBox="0 0 300 68">
  <!-- Generator: Adobe Illustrator 29.4.0, SVG Export Plug-In . SVG Version: 2.1.0 Build 152)  -->
  <sodipodi:namedview id="base" bordercolor="#666666" borderopacity="1.0" inkscape:current-layer="layer1" inkscape:cx="160.53626" inkscape:cy="143.68158" inkscape:document-units="mm" inkscape:pageopacity="0.0" inkscape:pageshadow="2" inkscape:window-height="1017" inkscape:window-maximized="1" inkscape:window-width="1920" inkscape:window-x="-8" inkscape:window-y="-8" inkscape:zoom="1.0267819" pagecolor="#ffffff" showgrid="false">
    <inkscape:grid id="grid3728" type="xygrid"/>
  </sodipodi:namedview>
  <g>
    <rect x="138" y="17.6" width="14.9" height="48.5"/>
    <path d="M118,25.7h-.3v-8.1h-14.1v48.5h14.8v-22.3c0-10.1,6.1-14.6,15.3-13.4h.3v-12.8c-.8-.3-1.6-.4-3-.4-5.8,0-9.7,2.7-13,8.3Z"/>
    <path d="M91.6,22.1c-4.1-3.8-9.5-5.9-16.3-5.9-14.6,0-24.7,11.1-24.7,25.6s9.7,25.8,25.7,25.8,10.9-1.6,14.9-4.4c4.3-2.9,7.3-7.2,8.1-11.5h-14.2c-1.4,3.2-4.4,5.1-8.7,5.1-6.5,0-10.5-4.3-11.3-10.8h34.9c0-10.4-2.7-18.8-8.4-24ZM65.2,36.4c1.1-5.8,4.3-9.6,10.4-9.6s8.8,3.9,9.4,9.6h-19.8Z"/>
    <rect x="138" y=".4" width="14.9" height="13.2"/>
    <path d="M283.1,16.2c-6.6,0-11.3,2.8-14.8,8.1h-.3v-6.6h-14.3v48.5h14.8v-27c0-6.2,3.6-10.5,8.9-10.5s7.8,3.6,7.8,8.7v28.8h14.8v-31.6c0-10.7-6.4-18.3-16.9-18.3Z"/>
    <polygon points="175 54.2 197.4 29 197.4 17.6 157 17.6 157 29.3 179.7 29.3 179.7 29.5 157 54.9 157 66.1 198.5 66.1 198.5 54.5 175 54.5 175 54.2"/>
    <path d="M224.8,16.3c-15.4,0-25.8,11.1-25.8,25.7s10.3,25.7,25.8,25.7,25.8-11.2,25.8-25.7-10.3-25.7-25.8-25.7ZM224.7,56.7c-7,0-10.7-5.9-10.7-14.8s3.7-14.8,10.7-14.8,10.9,5.8,10.9,14.8c0,8.9-3.9,14.8-10.9,14.8Z"/>
    <path d="M38.5,17.6l-11.8,30.8-11.8-30.8H0l18.4,47.9c.1.4.5.6.9.6h14.9c.4,0,.7-.2.9-.6l18.4-47.9h-14.9Z"/>
  </g>
</svg>