<?xml version="1.0" encoding="UTF-8"?>
<svg id="svg883" xmlns="http://www.w3.org/2000/svg" xmlns:svg="http://www.w3.org/2000/svg" xmlns:sodipodi="http://sodipodi.sourceforge.net/DTD/sodipodi-0.dtd" xmlns:rdf="http://www.w3.org/1999/02/22-rdf-syntax-ns#" xmlns:inkscape="http://www.inkscape.org/namespaces/inkscape" xmlns:dc="http://purl.org/dc/elements/1.1/" xmlns:cc="http://creativecommons.org/ns#" version="1.1" viewBox="0 0 300 44">
  <!-- Generator: Adobe Illustrator 29.4.0, SVG Export Plug-In . SVG Version: 2.1.0 Build 152)  -->
  <defs>
    <style>
      .st0 {
        fill: #231f20;
      }

      .st1 {
        fill: #ed1c24;
      }
    </style>
  </defs>
  <g>
    <rect class="st1" x="81.1" y="14.6" width="8.8" height="28.5"/>
    <path class="st1" d="M69.3,19.2h0c0,.1-.2.1-.2.1v-4.8h-8.3v28.5h8.7v-13.1c0-5.9,3.6-8.6,9-7.9h.2v-7.5c-.5-.2-.9-.2-1.8-.2-3.4,0-5.7,1.6-7.6,4.9Z"/>
    <path class="st1" d="M53.8,17.2h0c-2.4-2.2-5.6-3.4-9.6-3.4-8.6,0-14.5,6.5-14.5,15s5.7,15.2,15.1,15.2,13-6.8,13.5-9.3h-8.3c-.8,1.9-2.6,3-5.1,3-3.8,0-6.2-2.5-6.6-6.3h20.5c0-6.1-1.6-11-4.9-14.1ZM38.3,25.6c.6-3.4,2.5-5.6,6.1-5.6s5.2,2.3,5.5,5.6h-11.6Z"/>
    <rect class="st1" x="81.1" y="4.4" width="8.8" height="7.8"/>
    <path class="st1" d="M166.3,13.8h0c-3.9,0-6.6,1.6-8.7,4.7h-.2v-3.9h-8.4v28.5h8.7v-15.9c0-3.6,2.1-6.2,5.2-6.2s4.6,2.1,4.6,5.1v16.9h8.7v-18.6c0-6.3-3.8-10.8-9.9-10.8Z"/>
    <polygon class="st1" points="102.8 36.1 116 21.3 116 14.6 92.2 14.6 92.2 21.4 105.6 21.4 105.6 21.6 92.2 36.5 92.2 43 116.6 43 116.6 36.3 102.8 36.3 102.8 36.1"/>
    <path class="st1" d="M132.1,13.8c-9,0-15.2,6.5-15.2,15.1s6.1,15.1,15.2,15.1,15.2-6.6,15.2-15.1-6.1-15.1-15.2-15.1ZM132,37.6c-4.1,0-6.3-3.5-6.3-8.7s2.2-8.7,6.3-8.7,6.4,3.4,6.4,8.7-2.3,8.7-6.4,8.7Z"/>
    <path class="st1" d="M22.6,14.6l-6.9,18.1-6.9-18.1H0l10.8,28.1c0,.2.3.4.5.4h8.8c.2,0,.4-.1.5-.4l10.8-28.1h-8.8Z"/>
  </g>
  <g>
    <rect class="st0" x="208.6" y="4.2" width="8.8" height="7.8"/>
    <path class="st0" d="M194,6.7c-1.5,1.5-2.3,3.6-2.3,6.2v1.6h-3.4v6.3h3.4v22.4h8.7v-22.4h5.8v-6.3h-5.8v-.8c0-2.5,2.1-2.9,5.8-2.7v-6.7c-4.8-.5-9.8,0-12.2,2.5Z"/>
    <rect class="st0" x="208.6" y="14.4" width="8.8" height="28.7"/>
    <polygon class="st0" points="234.8 44 234.8 44 234.8 44 234.8 44"/>
    <path class="st0" d="M266.9,25c-3.6-.6-6.9-.9-6.9-3s1.7-2.7,4-2.7,4.4.8,4.7,3.5h8.2c-.4-5.7-4.8-9.2-12.9-9.2s-12.3,3.1-12.3,9.2,5.1,8.1,10.2,9c3.9.7,7.3.9,7.3,3.5s-1.7,2.9-4.6,2.9-5-1.4-5.3-4.3h-8.5c.3,6.3,5.5,10.2,13.9,10.2h0c7.4,0,12.9-3.3,12.9-9.5s-5.8-8.6-10.9-9.5Z"/>
    <path class="st0" d="M234.8,13.6c-9.1,0-15.2,6.5-15.2,15.2s6.1,15.2,15.2,15.2,15.2-6.6,15.2-15.2-6.1-15.2-15.2-15.2ZM234.8,37.5c-4.1,0-6.3-3.5-6.3-8.7s2.2-8.7,6.3-8.7,6.4,3.4,6.4,8.7-2.3,8.7-6.4,8.7Z"/>
  </g>
  <path id="path2934" class="st1" d="M295.6,0l-10.8,23.2-4.1-8.8h-4.4l6.7,14.4h3.6L300,0h-4.4Z" inkscape:connector-curvature="0"/>
</svg>