<?xml version="1.0" encoding="UTF-8"?>
<svg id="svg883" xmlns="http://www.w3.org/2000/svg" xmlns:svg="http://www.w3.org/2000/svg" xmlns:sodipodi="http://sodipodi.sourceforge.net/DTD/sodipodi-0.dtd" xmlns:rdf="http://www.w3.org/1999/02/22-rdf-syntax-ns#" xmlns:inkscape="http://www.inkscape.org/namespaces/inkscape" xmlns:dc="http://purl.org/dc/elements/1.1/" xmlns:cc="http://creativecommons.org/ns#" version="1.1" viewBox="0 0 300 83">
  <!-- Generator: Adobe Illustrator 29.4.0, SVG Export Plug-In . SVG Version: 2.1.0 Build 152)  -->
  <rect x="138" y="17.3" width="14.9" height="48.5"/>
  <path d="M118,25.4h-.3v-8.1h-14.1v48.5h14.8v-22.3c0-10.1,6.1-14.6,15.3-13.4h.3v-12.8c-.8-.3-1.6-.4-3-.4-5.8,0-9.7,2.7-13,8.3,0,0,0,.2,0,.2Z"/>
  <path d="M91.6,21.8c-4.1-3.8-9.5-5.9-16.3-5.9-14.6,0-24.7,11.1-24.7,25.6s9.7,25.8,25.7,25.8,22.2-11.6,23-15.9h-14.2c-1.4,3.2-4.4,5.1-8.7,5.1-6.5,0-10.5-4.3-11.3-10.8h34.9c0-10.4-2.7-18.8-8.4-24h0ZM65.2,36.1c1.1-5.8,4.3-9.6,10.4-9.6s8.8,3.9,9.4,9.6h-19.8Z"/>
  <rect x="138" width="14.9" height="13.2"/>
  <path d="M283.1,15.9c-6.6,0-11.3,2.8-14.8,8.1h-.3v-6.6h-14.3v48.5h14.8v-27c0-6.2,3.6-10.5,8.9-10.5s7.8,3.6,7.8,8.7v28.8h14.8v-31.6c0-10.7-6.4-18.3-16.9-18.3h0Z"/>
  <polygon points="175 53.9 197.4 28.7 197.4 17.3 157 17.3 157 28.9 179.7 28.9 179.7 29.2 157 54.6 157 65.7 198.5 65.7 198.5 54.2 175 54.2 175 53.9"/>
  <path d="M224.8,15.9c-15.4,0-25.8,11.1-25.8,25.7s10.3,25.7,25.8,25.7,25.8-11.2,25.8-25.7-10.3-25.7-25.8-25.7ZM224.7,56.4c-7,0-10.7-5.9-10.7-14.8s3.7-14.8,10.7-14.8,10.9,5.8,10.9,14.8-3.9,14.8-10.9,14.8Z"/>
  <path d="M38.5,17.3l-11.8,30.8-11.8-30.8H0l18.4,47.9c.1.4.5.6.9.6h14.9c.4,0,.7-.2.9-.6l18.4-47.9s-15,0-15,0Z"/>
</svg>