<?xml version="1.0" encoding="UTF-8"?>
<svg id="svg883" xmlns="http://www.w3.org/2000/svg" xmlns:svg="http://www.w3.org/2000/svg" xmlns:sodipodi="http://sodipodi.sourceforge.net/DTD/sodipodi-0.dtd" xmlns:rdf="http://www.w3.org/1999/02/22-rdf-syntax-ns#" xmlns:inkscape="http://www.inkscape.org/namespaces/inkscape" xmlns:dc="http://purl.org/dc/elements/1.1/" xmlns:cc="http://creativecommons.org/ns#" version="1.1" viewBox="0 0 300 42">
  <!-- Generator: Adobe Illustrator 30.0.0, SVG Export Plug-In . SVG Version: 2.1.1 Build 123)  -->
  <polygon points="74.1 1.4 47.5 1.4 47.5 7.3 55.1 7.3 42.3 31.2 29.2 7.3 38.6 7.3 38.6 1.4 0 1.4 0 7.3 8.9 7.3 26.8 40 47.6 40 65.2 7.3 74.1 7.3 74.1 1.4"/>
  <path d="M163.9,33.8l.2.2h-8.2V7.3h8.9V1.4h-35.6v5.9h9v26.6h-9v5.9h53.4v-17.9h-5.9c0,6.8-5,11.8-12.7,11.8Z"/>
  <path d="M98.6.7c-17.9,0-27.3,8.9-27.3,20.2s9.2,20.3,27.5,20.3,27.3-9,27.3-20.3S116.5.7,98.6.7ZM98.4,35c-6.6,0-9.4-7.3-9.2-14.4,0-7.5,3.7-13.9,9.7-13.7,6.1,0,9.4,6.8,9.2,14.1,0,7-3,14.3-9.7,14.1Z"/>
  <polygon points="247.3 1.4 220.7 1.4 220.7 7.3 228.4 7.3 215.5 31.2 202.4 7.3 211.8 7.3 211.8 1.4 173.2 1.4 173.2 7.3 182.1 7.3 200 40 220.9 40 238.4 7.3 247.3 7.3 247.3 1.4"/>
  <path d="M272.5.7c-17.9,0-27.3,8.9-27.3,20.2s9.2,20.3,27.5,20.3,27.3-9,27.3-20.3S290.4.7,272.5.7ZM272.4,35c-6.6,0-9.4-7.3-9.2-14.4,0-7.5,3.7-13.9,9.7-13.7,6.1,0,9.4,6.8,9.2,14.1,0,7-3,14.3-9.7,14.1Z"/>
</svg>